<svg xmlns="http://www.w3.org/2000/svg" width="828.907" height="132.937" viewBox="0 0 2156.15 345.8" xmlns:xlink="http://www.w3.org/1999/xlink" shape-rendering="geometricPrecision" text-rendering="geometricPrecision" image-rendering="optimizeQuality" fill-rule="evenodd" clip-rule="evenodd"><defs><radialGradient id="id3" gradientUnits="userSpaceOnUse" gradientTransform="matrix(-.62853 -.22759 .22534 -.6348 1715 537)" cx="1078.08" cy="178.48" r="1414.93" fx="1078.08" fy="178.48"><stop offset="0" stop-color="#a2d9f7"/><stop offset=".631" stop-color="#51b3e4"/><stop offset="1" stop-color="#008dd2"/></radialGradient><radialGradient id="id4" gradientUnits="userSpaceOnUse" gradientTransform="matrix(.02117 .628 -.5812 .02287 947 -505)" cx="922.74" cy="76.07" r="1137.26" fx="922.74" fy="76.07"><stop offset="0" stop-color="#fefefe"/><stop offset=".631" stop-color="#e1e2e2"/><stop offset="1" stop-color="#c5c6c6"/></radialGradient><clipPath id="id0"><path d="M952.01 27.26h324.45l-3.37 56.06H948.64l3.37-56.06z"/></clipPath><clipPath id="id1"><path d="M1090.12 79.6h394.58l5.74 77.78h-394.58l-5.74-77.78z"/></clipPath><linearGradient id="id2" gradientUnits="userSpaceOnUse" x1="1090.64" y1="50.63" x2="1065.52" y2="261.98"><stop offset="0" stop-color="#008dd2"/><stop offset=".369" stop-color="#1c5fac"/><stop offset="1" stop-color="#393185"/></linearGradient><style>.fil3,.fil4{fill:#fefefe;fill-rule:nonzero}.fil4{fill:#a2d9f7}</style></defs><g id="Слой_x0020_1"><g id="_1761017932096"><path d="M0 123.37c263.02-41.26 382.66-54.43 573.48-35.66 288.9 28.42 379.83 48.4 637.97 128.86 201.13 58.8 282.42 77.58 517.94 106.18 220.59 15.88 289.03 3.87 426.76-33.85V14.79H0v108.59z" fill="url(#id3)"/><path d="M0 107.82c263.02-41.26 382.66-54.43 573.48-35.66 288.9 28.42 379.83 48.39 637.97 128.85 201.13 58.8 282.42 77.58 517.94 106.19 226.65 13.99 279.25.18 426.76-33.85V0H0v107.82z" fill="url(#id2)"/><path d="M1020.57 147.82c37.3 12.84 76.85 26.59 119.83 41.36 217.05 70.44 306.51 90.58 562.35 130.29 250.55 21.39 325.15 3.65 453.4-30.58v33.61c-156.32 26.32-225.97 31.87-452.17 8.73-154.19-21.86-348.12-66.18-564.02-139.83-42.82-15.44-82.21-29.94-119.39-43.58zM418.95 0h107.84c207.38 36.66 315.56 82.42 493.78 147.82C817.64 77.98 681.06 35.06 418.95 0z" fill="url(#id4)"/><path class="fil3" d="M984.31 70.2h-4.99V52.79h-19.55V70.2h-4.99V31.57h4.99v16.78h19.55V31.57h4.99z"/><path id="1" class="fil3" d="M994.31 44.53c2.74-1.71 5.91-2.56 9.5-2.56 6.65 0 9.98 3.49 9.98 10.47V70.2h-4.84v-4.26h-.13c-1.92 3.28-4.73 4.91-8.45 4.91-2.68 0-4.81-.72-6.38-2.17-1.58-1.45-2.38-3.4-2.38-5.86 0-5.16 3.06-8.16 9.16-9.01l8.18-1.15c0-4.5-1.86-6.76-5.59-6.76-3.3 0-6.32 1.11-9.05 3.35v-4.72zm8.18 12.7c-2.26.3-3.82.86-4.67 1.69-.86.83-1.28 1.99-1.28 3.49 0 1.31.46 2.38 1.4 3.22.93.83 2.16 1.24 3.69 1.24 2.13 0 3.88-.75 5.26-2.24 1.39-1.5 2.08-3.38 2.08-5.64v-2.65l-6.46.88z"/><path id="2" class="fil3" d="M1057.66 70.2h-35.76V42.61h4.86v23.57h10.59V42.61h4.86v23.57h10.59V42.61h4.86z"/><path id="3" class="fil3" d="M1090 70.2h-4.41V48.65c-.14.28-.75 1.39-1.85 3.31l-12.34 18.23h-4.99V42.61h4.46v21.27c.38-.85.87-1.76 1.45-2.75l12.67-18.52h5.01v27.58z"/><path id="4" class="fil3" d="M1111.99 51.34c0-6.23 1.69-11.19 5.07-14.89 3.37-3.69 7.94-5.53 13.71-5.53 5.37 0 9.7 1.81 12.96 5.41 3.28 3.61 4.92 8.31 4.92 14.1 0 6.27-1.69 11.24-5.04 14.91-3.36 3.67-7.85 5.51-13.47 5.51-5.49 0-9.88-1.81-13.19-5.41-3.31-3.6-4.96-8.3-4.96-14.09zm5.24-.4c0 4.67 1.19 8.42 3.58 11.24 2.38 2.82 5.5 4.23 9.34 4.23 4.12 0 7.36-1.35 9.71-4.05 2.35-2.71 3.52-6.49 3.52-11.34 0-4.99-1.15-8.84-3.45-11.54-2.31-2.72-5.46-4.07-9.47-4.07-3.94 0-7.13 1.43-9.58 4.29-2.44 2.86-3.67 6.61-3.67 11.25z"/><path id="5" class="fil3" d="M1178.91 70.2h-6.64l-11.79-13.3h-.13v13.3h-4.86V42.61h4.86v12.65h.13l11.19-12.65h6.29l-12.47 13.27z"/><path id="6" class="fil3" d="M1206.62 70.2h-4.89V57.8h-13.57v12.4h-4.86V42.61h4.86v11.2h13.57v-11.2h4.89z"/><path id="7" class="fil3" d="M1216.03 44.53c2.74-1.71 5.91-2.56 9.5-2.56 6.65 0 9.98 3.49 9.98 10.47V70.2h-4.84v-4.26h-.13c-1.92 3.28-4.73 4.91-8.45 4.91-2.68 0-4.81-.72-6.38-2.17-1.58-1.45-2.38-3.4-2.38-5.86 0-5.16 3.06-8.16 9.16-9.01l8.18-1.15c0-4.5-1.86-6.76-5.59-6.76-3.3 0-6.32 1.11-9.05 3.35v-4.72zm8.18 12.7c-2.26.3-3.82.86-4.67 1.69-.86.83-1.28 1.99-1.28 3.49 0 1.31.46 2.38 1.4 3.22.93.83 2.16 1.24 3.69 1.24 2.13 0 3.88-.75 5.26-2.24 1.39-1.5 2.08-3.38 2.08-5.64v-2.65l-6.46.88z"/><path id="8" class="fil3" d="M1242.21 67.62c0-.89.31-1.65.92-2.26.61-.62 1.38-.93 2.3-.93.93 0 1.7.31 2.32.94.61.62.92 1.38.92 2.26 0 .87-.31 1.61-.92 2.23-.61.63-1.4.94-2.34.94-.92 0-1.68-.31-2.28-.94-.61-.62-.91-1.36-.91-2.23z"/><path id="9" class="fil3" d="M1254.5 67.62c0-.89.31-1.65.92-2.26.61-.62 1.38-.93 2.3-.93.93 0 1.7.31 2.32.94.61.62.92 1.38.92 2.26 0 .87-.31 1.61-.92 2.23-.61.63-1.4.94-2.34.94-.92 0-1.68-.31-2.28-.94-.61-.62-.91-1.36-.91-2.23z"/><path id="10" class="fil3" d="M1266.79 67.62c0-.89.31-1.65.92-2.26.61-.62 1.38-.93 2.3-.93.93 0 1.7.31 2.32.94.61.62.92 1.38.92 2.26 0 .87-.31 1.61-.92 2.23-.61.63-1.4.94-2.34.94-.92 0-1.68-.31-2.28-.94-.61-.62-.91-1.36-.91-2.23z"/><path class="fil4" d="M1094.76 127.42V85.4h12.35c3.69 0 6.64.88 8.84 2.65 2.2 1.76 3.31 4.09 3.31 7.01 0 2.32-.65 4.36-1.96 6.13-1.32 1.77-3.11 3.03-5.41 3.77v.11c2.85.32 5.14 1.41 6.84 3.24 1.71 1.83 2.57 4.17 2.57 6.98 0 3.62-1.3 6.55-3.89 8.78-2.59 2.23-5.92 3.35-9.97 3.35h-12.67zm5.43-37.27v13.16h4.94c2.62 0 4.68-.64 6.18-1.92 1.49-1.28 2.23-3.05 2.23-5.31 0-3.96-2.64-5.94-7.92-5.94h-5.43zm0 17.87v14.65h6.51c2.84 0 5.03-.66 6.58-1.96 1.55-1.32 2.32-3.13 2.32-5.46 0-4.82-3.27-7.22-9.8-7.22h-5.61z"/><path id="1" class="fil4" d="M1129.65 99.5c2.98-1.86 6.43-2.79 10.34-2.79 7.23 0 10.85 3.8 10.85 11.39v19.32h-5.26v-4.64h-.14c-2.08 3.56-5.15 5.34-9.2 5.34-2.92 0-5.23-.79-6.95-2.36-1.72-1.57-2.58-3.7-2.58-6.37 0-5.61 3.32-8.87 9.96-9.8l8.9-1.25c0-4.9-2.03-7.35-6.08-7.35-3.59 0-6.88 1.21-9.85 3.64V99.5zm8.9 13.82c-2.46.32-4.16.93-5.08 1.84-.94.9-1.4 2.17-1.4 3.8 0 1.43.5 2.59 1.52 3.5 1.01.91 2.35 1.35 4.01 1.35 2.32 0 4.22-.82 5.72-2.44 1.51-1.63 2.26-3.68 2.26-6.13v-2.88l-7.03.95z"/><path id="2" class="fil4" d="M1198.56 127.42h-38.9v-30h5.28v25.63h11.53V97.42h5.29v25.63h11.51V97.42h5.29z"/><path id="3" class="fil4" d="M1255.1 127.42h-7.44l-15.79-19.1c-.55-.67-.92-1.19-1.11-1.57h-.14v20.67h-5.43V85.4h5.43v19.78h.14c.3-.49.68-1.01 1.11-1.55l15.24-18.23h6.7l-17.64 20.16 18.92 21.86z"/><path id="4" class="fil4" d="M1257.78 112.75c0-4.95 1.38-8.87 4.15-11.73 2.77-2.87 6.52-4.3 11.26-4.3 4.5 0 8.04 1.38 10.6 4.13 2.56 2.76 3.84 6.57 3.84 11.44 0 4.74-1.37 8.57-4.1 11.47-2.73 2.92-6.39 4.37-10.98 4.37-4.49 0-8.07-1.41-10.75-4.23-2.68-2.82-4.01-6.54-4.01-11.15zm5.43-.17c0 3.45.87 6.18 2.62 8.17 1.74 1.99 4.08 2.99 7.04 2.99 3.04 0 5.35-.97 6.95-2.92 1.59-1.94 2.39-4.74 2.39-8.37 0-3.66-.8-6.46-2.39-8.41-1.59-1.95-3.91-2.93-6.95-2.93-2.98 0-5.34 1.03-7.07 3.06-1.73 2.05-2.59 4.85-2.59 8.41z"/><path id="5" class="fil4" d="M1328.27 127.42h-5.21v-24.58c-.4 1.24-1.05 3.09-1.95 5.53l-7.3 19.05h-4.74l-7.52-19.05c-.44-1.1-1.07-2.94-1.93-5.53v24.58h-4.5v-30h6.81l7.68 19.32c.24.59.93 2.54 2.09 5.83.1-.33.79-2.25 2.03-5.76l7.46-19.39h7.09v30z"/><path id="6" class="fil4" d="M1356.32 128.1v13.43h-4.83V128.1h-.97c-4.38 0-7.94-1.42-10.68-4.24-2.74-2.83-4.11-6.54-4.11-11.11 0-4.86 1.38-8.75 4.15-11.65 2.77-2.91 6.39-4.36 10.85-4.36h.76V84.67h4.83v12.07h.73c4.52 0 8.16 1.46 10.92 4.37 2.76 2.92 4.14 6.8 4.14 11.64 0 4.56-1.36 8.26-4.08 11.09-2.72 2.84-6.26 4.26-10.62 4.26h-1.08zm0-27.02v22.68h.62c2.98 0 5.35-1.02 7.09-3.07 1.75-2.06 2.62-4.74 2.62-8.08 0-3.61-.87-6.44-2.6-8.47-1.74-2.04-4.07-3.06-6.97-3.06h-.76zm-4.83 22.68v-22.68h-.68c-2.94 0-5.3 1.04-7.04 3.11-1.75 2.06-2.62 4.88-2.62 8.42 0 3.39.9 6.09 2.68 8.11 1.79 2.03 4.16 3.04 7.11 3.04h.54z"/><path id="7" class="fil4" d="M1377.59 112.75c0-4.95 1.38-8.87 4.15-11.73 2.77-2.87 6.52-4.3 11.26-4.3 4.5 0 8.04 1.38 10.6 4.13 2.56 2.76 3.84 6.57 3.84 11.44 0 4.74-1.37 8.57-4.1 11.47-2.73 2.92-6.39 4.37-10.98 4.37-4.49 0-8.07-1.41-10.75-4.23-2.68-2.82-4.01-6.54-4.01-11.15zm5.43-.17c0 3.45.87 6.18 2.62 8.17 1.74 1.99 4.08 2.99 7.04 2.99 3.04 0 5.35-.97 6.95-2.92 1.59-1.94 2.39-4.74 2.39-8.37 0-3.66-.8-6.46-2.39-8.41-1.59-1.95-3.91-2.93-6.95-2.93-2.98 0-5.34 1.03-7.07 3.06-1.73 2.05-2.59 4.85-2.59 8.41z"/><path id="8" class="fil4" d="M1420.24 123.19v18.04h-5.31V97.42h5.31v5.18h.11c2.35-3.93 5.79-5.88 10.31-5.88 3.83 0 6.84 1.34 9.02 4.03 2.18 2.68 3.27 6.29 3.27 10.81 0 4.99-1.23 9-3.7 12.03-2.46 3.04-5.79 4.55-9.96 4.55-3.85 0-6.83-1.65-8.93-4.94h-.11zm-.03-8.14c0 2.44.79 4.5 2.36 6.18 1.57 1.67 3.55 2.51 5.92 2.51 2.81 0 5.03-1.09 6.61-3.26 1.59-2.17 2.39-5.18 2.39-9.01 0-3.23-.74-5.77-2.22-7.6-1.48-1.84-3.51-2.76-6.07-2.76-2.62 0-4.78.93-6.46 2.8-1.68 1.86-2.52 4.25-2.52 7.16v3.99z"/><path id="9" class="fil4" d="M1469.67 101.84h-8.9v25.58h-5.31v-25.58h-8.93v-4.42h23.14z"/><path id="10" class="fil4" d="M1473.79 124.63c0-.97.33-1.8 1-2.46.67-.68 1.5-1.01 2.5-1.01 1.01 0 1.85.34 2.52 1.02.67.68 1 1.5 1 2.45 0 .94-.33 1.75-1 2.43-.67.69-1.52 1.02-2.55 1.02-1 0-1.82-.33-2.48-1.02-.67-.68-.99-1.48-.99-2.43z"/></g></g></svg>