<?xml version="1.0" encoding="UTF-8"?>
<!DOCTYPE svg PUBLIC "-//W3C//DTD SVG 1.1//EN" "http://www.w3.org/Graphics/SVG/1.1/DTD/svg11.dtd">
<!-- Creator: CorelDRAW 2018 (64-Bit) -->
<svg xmlns="http://www.w3.org/2000/svg" xml:space="preserve" width="53.2776mm" height="17.2981mm" version="1.1" style="shape-rendering:geometricPrecision; text-rendering:geometricPrecision; image-rendering:optimizeQuality; fill-rule:evenodd; clip-rule:evenodd"
viewBox="0 0 1111.86 361"
 xmlns:xlink="http://www.w3.org/1999/xlink">
 <defs>
  <style type="text/css">
   <![CDATA[
    .fil0 {fill:#009846}
    .fil2 {fill:#2B2A29;fill-rule:nonzero}
    .fil1 {fill:#009846;fill-rule:nonzero}
   ]]>
  </style>
 </defs>
 <g id="Слой_x0020_1">
  <metadata id="CorelCorpID_0Corel-Layer"/>
  <g id="_1899838118256">
   <path class="fil0" d="M535.01 27.47l-102.25 0.2 -18.43 131.99 -18.38 0 0 35.55 24.27 0c19.87,0 29.38,-12.35 33.53,-31.62l13.2 -102.71 27.97 0 0 134.42 40.08 0 0 -167.84z"/>
   <path class="fil0" d="M824.09 60.89l49.63 0 0 101 -49.63 0 0 -101zm-32.89 -33.42l115.42 0 0 167.84 -115.42 0 0 -167.84z"/>
   <path class="fil0" d="M704.76 27.47l67.2 0 0 33.42 -50.66 0 0 134.42 -37.8 0c-1.25,0 -2.28,-1.03 -2.28,-2.28l0 -142.01c0,-12.95 10.6,-23.55 23.55,-23.55z"/>
   <path class="fil0" d="M954.77 27.47l68.32 0c0.5,0 1,0.02 1.49,0.05l0 33.37 -53.27 0 0 101 53.27 0 0 33.37c-0.49,0.03 -0.99,0.05 -1.49,0.05l-68.32 0c-12.95,0 -23.55,-10.6 -23.55,-23.55l0 -120.74c0,-12.95 10.6,-23.55 23.55,-23.55z"/>
   <path class="fil0" d="M583.07 27.47l68.32 0c1.54,0 3.04,0.15 4.5,0.44l0 32.98 -56.28 0 0 35.52 42.69 0 0 33.15 -42.69 0 0 32.33 56.28 0 0 32.98c-1.46,0.29 -2.96,0.44 -4.5,0.44l-68.32 0c-12.95,0 -23.55,-10.6 -23.55,-23.55l0 -120.74c0,-12.95 10.6,-23.55 23.55,-23.55z"/>
   <path class="fil1" d="M1065.55 33.38l10.1 0 0 -5.91 -27.19 0 0 5.91 10.1 0 0 27.51 6.98 0 0 -27.51zm46.32 -5.91l-8.59 0 -7.47 26.78 -7.64 -26.74 -8.69 -0.04 0 33.42 6.52 0 0 -18.87 0.09 0 5.46 18.91 8.45 -0.04 5.27 -18.87 0.09 0 0 18.87 6.52 0 0 -33.42z"/>
   <path class="fil0" d="M253.38 244.05l-0.73 0.9 -0.08 -0.9 0.81 0zm-127.5 -110c1.91,0.88 3.89,-1.78 5.18,-2.96 0.99,-0.9 4.12,-2.47 5.41,-3.15 0,3.57 -2.42,5.41 -4.89,6.52 -1.19,0.54 -7.3,2.74 -8.56,2.85l2.85 -3.26zm-0.07 1.29l0.41 -0.54 -0.27 -0.41 -0.54 0.54 0.41 0.41zm-6.04 3.6c1.24,-5.31 0.71,-17.92 5.29,-19.15l2.85 8.96c-2.33,1.56 -7.48,9.94 -8.15,10.19zm-0.82 -28.11c0,-2.56 2.39,-3.11 4.48,-3.67l1.25 4.07 -0.34 -0.35 -5.08 4.32 -0.4 -3.54 0.09 -0.83zm2.04 -12.63c0,1.19 -4.01,5.52 -4.89,6.11l2.71 -7.64c0.56,0.09 2.17,0.68 2.17,1.53zm-10.59 -86.37c0,-1.52 2.79,-5.86 3.76,-6.83 1.74,-1.74 3.91,-2.95 7.24,-2.95l0.82 0c4.34,0 7.25,3.9 8.15,7.74 -1.88,2.81 -5.01,6.2 -9.37,6.52 -4.26,0.32 -10.6,0.43 -10.6,-4.49zm142.58 223.67c-3.24,2.82 -7.96,0.76 -8.98,8.94 -0.03,0.2 -1.93,5.7 -2.26,6.7 -0.8,2.38 -1.68,4.32 -4.64,4.32 -4.74,0 -17.11,-10.62 -17.11,-15.48l0 -8.15c0,-8.74 2,-16.41 4.13,-23.17 0.75,-2.37 2.49,-8.06 1.76,-11.24 -0.68,-2.97 -2.98,-7.15 -6.29,-7.15l-1.63 0c-4.47,0 -5.66,6.93 -11.81,6.93 -3.59,0 -9.37,-1.78 -9.37,-5.3l0 -0.81c0,-4.39 10.53,-6.04 14.16,-9.06 2.23,-1.86 3.84,-3.85 5.26,-6.56 1.06,-2.03 3.11,-5.57 5.84,-5.57l0.41 0c4.09,0 5.7,5.31 7.66,7.82 2.56,3.28 6.67,3.18 12.3,3.18 6.97,0 8.31,-0.02 13.68,1.8 2.36,0.8 9.02,4.72 10.76,4.72l4.07 0c3.15,0 6.36,-4.22 8.24,-6.02 2.92,-2.79 5.56,-2.95 8.8,-5.05 4.47,-2.9 2.6,-5.33 4.73,-9.12 2.32,-4.13 7.14,-2.82 8.79,-5.07l1.61 0.46c0.37,-1.55 1.06,-3.31 2.87,-3.31 0.86,0 0.54,0.15 1.63,0.41 -0.76,-2.85 -2.49,-6.11 -6.11,-6.11 -3.79,0 -5.34,-0.89 -9.37,-1.22 3.36,-5.01 0.33,-9.94 4.89,-11l0 -0.81c-1.64,-0.44 -1.63,-1.22 -4.07,-1.22l-0.82 0c-4.44,0 -8.9,3.17 -9.78,6.93l-3.24 -1.66 -0.02 -2.42c-1.58,1.06 -3.71,1.78 -4.75,3.4 -0.13,0.19 -1.36,6.58 -1.36,6.79 0,1.68 0.81,2.56 0.81,4.89l0 1.63c0,0.98 -1.46,2.44 -2.44,2.44l-0.81 0c-3.24,0 -6.77,-5.27 -8.65,-7.24 -3.49,-3.65 -4.3,-4.6 -11.31,-4.57 -6.94,0.03 -8.05,-0.62 -10.45,-5.43 -1.21,-2.43 -4.21,-8.55 -4.21,-11.68l0 -1.63c0,-7.65 15.61,-3.52 21.31,-16.98 1.92,-4.52 3.33,-9.38 4.59,-14.56 1.22,-5.04 5.46,-8.26 5.46,-13.69l0 -2.04c0,-5.42 -4.48,-10.85 -4.48,-16.3l0 -1.22c0,-4.15 3.02,-5.65 3.26,-8.55l2.45 -0.39c-0.39,-1.66 -1.23,-1.92 -1.23,-2.87 0,-1.45 1.39,-1.6 2.85,-1.63 -1.01,-0.88 -2.07,-2.85 -3.26,-2.85l-0.41 0c-4.28,0 -9.43,5.81 -13.04,6.11l0 -1.63c0,-1.64 -1.63,-4.06 -1.63,-5.71l0 -1.22c0,-1.14 0.23,-1.31 0.63,-2.23 0.19,-0.45 0.14,-0.47 0.38,-0.85 0.04,-0.07 0.35,-0.24 0.39,-0.42 0.03,-0.13 0.3,-0.1 0.23,-0.17l-0.34 -0.48c-2.46,2.15 -5.23,0.35 -8.31,4.46 -1.39,1.84 -0.71,2.76 -1.2,5.32 -0.13,0.69 -1.55,3.35 -1.97,4.14 -5.54,-1.29 -2.45,-6.93 -3.26,-7.74l-0.34 -0.48c-1.95,2.88 -6.59,4.4 -6.59,9.85l0 0.41c0,5.89 13.85,14.75 13.85,22.82l0 0.81c0,2.02 -1.84,6.59 -2.76,7.83 -2.2,2.95 -4.34,1.69 -7.64,2.95 -4.8,1.84 -4.27,10.81 -9.96,10.81l-0.81 0c-3.91,0 -8.9,-6.41 -11.57,-8.39 -5.31,-3.94 -5.84,-4.65 -14.91,-4.65 -10.54,0.01 -26.07,-3.37 -26.07,-13.44l0 -2.85c0,-2.53 1.83,-6.52 4.07,-6.52l0.41 0c7.93,0 10.13,10.59 14.26,10.59l2.04 0c7.6,0 6.18,-6.49 10.86,-8.7 3.89,-1.84 11.55,-2.11 11.55,-7.6l0 -2.44c0,-2.65 -4.13,-2.44 -6.92,-2.44 1.82,-1.27 5.37,-2.18 7.91,-3.9 2.22,-1.51 4.4,-3.32 6.24,-5.16 4.06,-4.07 6.69,-8.58 10.39,-12.84 4.72,-5.43 16.55,-21.28 25.16,-21.28l2.85 0c3.77,0 8.2,5.45 9.86,8.06 1.95,3.06 3.97,12.17 4.8,13.12 -0.09,-3.9 -3.41,-12.98 -5.02,-15.76 -1.91,-3.28 -6.91,-8.69 -11.68,-8.69l-3.67 0c-9.07,0 -25.87,15.06 -30.31,21.02 -5.28,7.09 -18.91,20.94 -30.39,20.94 0.77,-2.88 3.4,-0.43 5.05,-3.51 0.88,-1.66 1.15,-5.05 3.1,-5.05l0.81 0c1.16,0 2.23,1.72 2.85,2.45l2.34 -14.62 -0.3 -0.46c0,-6.56 -8.17,-6.44 -15.09,-6.5 -8.46,-0.08 -6.91,-9.8 -11.8,-9.8l-3.67 0c-1.88,0 -3.43,1.63 -6.11,1.63 -5.29,0 -13.1,-14.26 -21.59,-14.26l-4.48 0c-5.7,0 -10.6,4.18 -14.26,6.11 -0.37,-4.48 -4.5,-9.37 -9.37,-9.37l-0.41 0c-6.11,0 -14.66,5.72 -14.66,11l0 2.04c0,6.45 6.49,10.18 13.44,10.18l2.44 0 0.75 2.07c-4.37,1 -5.93,4.78 -6.05,10.15 -1.29,-1.48 -1.32,-6.11 -3.67,-6.11 -1.92,0 -10.17,5.03 -11.41,6.11l10.81 -5.25 2.08 9.77c-4.69,1.1 -8.41,4.73 -8.41,10.56l0 2.04c0,5.65 3.67,6.73 3.67,9.37 0,4.38 -7.48,8.59 -10.18,12.63l0 4.48 0.41 0c0,-6.13 4.06,-5.78 8.15,-7.74 0.48,5.83 2.98,4.08 4.89,6.93l-0.52 5.29c-4.27,0.01 -7.63,2.71 -7.63,6.94l0 3.67c0,3.82 1.83,10.29 3.02,13.28 2.17,5.51 2.28,6.14 2.28,13.61l0.41 0 0.48 -0.05 -2.6 -23.98c-0.18,-2.36 0.86,-7.34 2.93,-7.34l0.41 0c1.63,0 2.02,0.84 3.67,1.22l0 1.22c0,3.39 -1.17,4.56 -1.22,6.92l3.04 -4.23 0.73 0.33 -4.1 12.21 -0.56 -0.09 0.41 0.41 1.87 -3.45c-0.15,1.77 -0.99,2.16 -0.99,3.79l0 0.41c0,2.51 3.67,6.8 3.67,8.56 0,0.06 -2.04,3.99 -2.04,7.33 0,5.49 2.85,9.06 2.85,14.26 0,0.01 -4.29,5.71 -4.9,10.99 -0.41,3.56 -1.21,10.91 -1.21,14.27l0.41 0c0,-3.35 2.26,-14.11 3.44,-16.52 2.63,-5.37 7.18,-5.31 14.08,-5.89l0 2.85c0,0.95 0.12,1.05 0.41,1.63l0.29 0.4 -9.2 6.59 0.29 0.41 -0.06 -0.49 6.56 -1.89c-0.3,1.92 -1.14,2.18 -1.14,3.13l0 1.22c0,2.05 2.16,5.3 3.18,6.59 2,2.51 2.21,4.75 3.33,6.04 -0.09,-4.02 -3.26,-7.62 -3.26,-10.19l0 -1.63c0,-1.93 8.29,-4.84 10.19,-5.7 5.61,-2.53 5.53,-3.95 9.37,-6.52l-4.16 16.57 0.49 0.13c1.08,-1.55 1.28,-3.7 2.54,-5.2 1.12,-1.33 2.57,-2.33 3.65,-3.69 1.87,-2.37 4.5,-6.54 4.81,-10.26 1.21,0.88 3.26,5.56 3.26,7.74l0 4.07c0,9.98 -15.19,15.11 -22.4,18.74 -4.56,2.3 -9.05,4.34 -13.72,6.65 -5.36,2.65 -7.98,5.08 -12.36,8.01 -4.05,-2.14 -14.1,-3.24 -19.56,-5.7 -6.04,-2.73 -9.77,-6.32 -9.77,-15.08l0 -7.74 4.34 -27.66 -0.27 -4.94c0,-9.83 -7.42,-17.21 -15.39,-19.24 -6.05,-1.54 -10.59,-0.15 -15.91,-1.2 -5.52,-1.09 -5.36,-5.04 -5.36,-11.75 0,-36.96 -31.37,-3.49 -31.37,-37.07l-0.41 0 0 8.15 -0.41 0c0,-3.96 -1.18,-13.97 -2.85,-15.89 1.47,6.32 0.35,12.23 -0.43,19.54 -0.12,1.1 -2.23,6.8 -2.78,8.63 -0.76,2.57 -1.28,6.48 -1.28,9.72 0,3.41 2.27,7.24 2.45,9.37 -1.46,-0.34 -1.91,-0.82 -3.67,-0.82l-1.63 0c-2.4,0 -7.74,1.79 -8.96,2.85 1.54,-0.36 2.55,-0.82 4.48,-0.82l2.85 0c9.88,0 8.89,14.42 18.98,17.28 16.9,4.78 24.74,-6.28 27.87,-6.28 5.54,0 14.92,1.44 18.87,3.13 4.67,1.99 8.01,7.05 8.01,13.58l0 2.04c0,11.93 -6.11,20.39 -6.11,32.19l0 11c0,7.51 4.45,17.96 8.05,22.1 5.57,6.42 9.53,8.46 21.28,8.46 -0.45,0.94 -1.48,7.32 -1.22,8.96l2.58 19.13 -0.14 1.65c0,5.26 -7.35,13.04 -12.22,13.04l-2.03 0c-2.49,0 -6.21,-6.93 -13.44,-6.93l-0.41 0c-3.35,0 -7.29,2.57 -9.07,4.37 -2.71,2.74 -2.74,5.08 -2.74,10.29 0,3.84 0.34,9.43 -0.58,12.45 -1,3.28 -2.27,6.78 -2.27,10.77 0,11.03 8.15,15.74 8.15,23.63 0.55,0.82 3.66,4.68 3.66,5.3l0 0.82c0,1.01 -1.02,1.53 -1.63,2.44 3.62,-0.84 4.03,-0.31 6.2,-3.17 1.75,-2.32 0.65,-4.57 4.8,-4.57 0.1,0 7.74,5.97 7.74,6.52l0 0.41c0,1.1 -0.19,1.12 -0.41,2.04 7.42,-1.73 6.11,-7.12 6.11,-14.67 0,-0.21 0.59,-0.89 0.82,-1.22l4.06 0.48c0.91,0.05 1.3,-0.45 2.86,-0.48l0 2.04 0.3 -0.32 3.98 3.77 -0.21 3.89c1.36,-1.56 4.48,-4.28 4.48,-6.93l0 -3.26c0,-2.55 -2.24,-4.83 -4.89,-4.89 -2.31,-9.92 -21.59,-1.82 -21.59,-14.26l0 -2.04c0,-7.81 8.38,-12.79 15.48,-13.86 4.14,-0.62 8.42,-1.39 12.16,-2.5 2.87,-0.85 8.79,-2.75 11.5,-3.16 8.25,-1.26 15.21,-4.54 19.44,-9.89 2.9,-3.68 3.45,-4.5 5.14,-9.52 1.22,-3.63 1.2,-9.22 2.67,-11.99 6.82,3.28 3.08,2.03 6.84,7.01 1.86,2.45 4.86,4.8 9.05,4.8l4.07 0c5.39,0 13.55,-5.3 19.96,-5.3l0.81 0c3.48,0 8.55,1.44 8.55,4.89l0 2.85c0,4.71 -4.48,15.04 -4.48,20.37l0 0.41c0,7.85 6.21,8.25 9.62,12.79 3.95,5.27 6.28,7.17 15.23,7.17l2.04 0c17.13,0 43.14,0.95 44.4,-14.26l2.02 0.5c0.62,-2.68 1.26,-3.35 4.5,-3.35 -1.02,-2.13 -1.35,-3.89 -4.22,-4.75 -0.21,-0.06 -7.58,-0.55 -8.01,-0.55 0.21,-0.91 0.41,-0.94 0.41,-2.04l0 -3.26c3.86,-1.03 0.54,-4.07 7.74,-4.07 -0.89,-1.22 -5.26,-4.48 -7.33,-4.48l-2.44 0c-1.59,0 -3.67,1.55 -3.67,2.85l0 1.22c-3.3,0 -3.42,1.19 -5.3,2.44 -0.44,-1.64 -1.22,-1.63 -1.22,-4.07l0 -1.63c0,-0.91 0.09,-1.13 0.38,-1.66 0.08,-0.15 0.3,-0.35 0.37,-0.44 0.08,-0.09 0.61,-0.2 0.47,-0.34l-0.41 -0.41z"/>
   <path class="fil2" d="M421.65 337.19l7.74 2.44c-1.19,4.47 -3.17,7.78 -5.94,9.96 -2.77,2.16 -6.27,3.25 -10.52,3.25 -5.26,0 -9.59,-1.84 -12.98,-5.53 -3.38,-3.68 -5.08,-8.72 -5.08,-15.12 0,-6.76 1.7,-12.01 5.11,-15.75 3.4,-3.74 7.88,-5.61 13.43,-5.61 4.85,0 8.79,1.48 11.81,4.41 1.81,1.74 3.15,4.23 4.06,7.49l-7.91 1.93c-0.47,-2.1 -1.45,-3.76 -2.93,-4.98 -1.49,-1.22 -3.3,-1.82 -5.42,-1.82 -2.94,0 -5.33,1.08 -7.15,3.24 -1.83,2.15 -2.75,5.65 -2.75,10.49 0,5.12 0.9,8.78 2.7,10.95 1.81,2.18 4.15,3.27 7.03,3.27 2.13,0 3.96,-0.69 5.49,-2.08 1.53,-1.39 2.64,-3.56 3.3,-6.54z"/>
   <path id="1" class="fil2" d="M475.57 344.95l0 7.2 -26.6 0c0.29,-2.74 1.15,-5.33 2.59,-7.78 1.44,-2.45 4.29,-5.7 8.53,-9.75 3.42,-3.27 5.51,-5.49 6.29,-6.65 1.04,-1.61 1.57,-3.2 1.57,-4.77 0,-1.74 -0.45,-3.07 -1.36,-4 -0.9,-0.94 -2.16,-1.4 -3.75,-1.4 -1.59,0 -2.84,0.49 -3.78,1.47 -0.93,0.97 -1.46,2.6 -1.61,4.88l-7.58 -0.77c0.45,-4.29 1.86,-7.37 4.24,-9.24 2.38,-1.86 5.34,-2.8 8.91,-2.8 3.91,0 6.98,1.09 9.22,3.25 2.23,2.16 3.35,4.86 3.35,8.08 0,1.83 -0.32,3.57 -0.96,5.23 -0.64,1.65 -1.65,3.38 -3.04,5.2 -0.91,1.21 -2.58,2.94 -4.98,5.2 -2.4,2.26 -3.93,3.75 -4.56,4.5 -0.64,0.74 -1.16,1.47 -1.56,2.16l15.1 0z"/>
   <path id="2" class="fil2" d="M493.53 311.34c3.83,0 6.83,1.41 8.99,4.22 2.57,3.32 3.86,8.85 3.86,16.56 0,7.7 -1.3,13.24 -3.89,16.6 -2.15,2.78 -5.14,4.17 -8.97,4.17 -3.85,0 -6.96,-1.52 -9.32,-4.56 -2.36,-3.04 -3.54,-8.47 -3.54,-16.28 0,-7.66 1.3,-13.18 3.89,-16.55 2.15,-2.78 5.13,-4.17 8.97,-4.17zm0 6.46c-0.9,0 -1.72,0.3 -2.42,0.91 -0.71,0.59 -1.26,1.67 -1.65,3.23 -0.52,2.01 -0.77,5.41 -0.77,10.18 0,4.78 0.23,8.06 0.69,9.85 0.46,1.78 1.04,2.98 1.74,3.57 0.7,0.59 1.5,0.89 2.41,0.89 0.9,0 1.72,-0.3 2.42,-0.91 0.7,-0.59 1.25,-1.67 1.64,-3.23 0.52,-1.99 0.77,-5.38 0.77,-10.17 0,-4.77 -0.23,-8.05 -0.69,-9.84 -0.46,-1.79 -1.04,-2.99 -1.74,-3.58 -0.7,-0.61 -1.5,-0.91 -2.4,-0.91z"/>
   <path id="3" class="fil2" d="M524.29 311.34c3.83,0 6.83,1.41 8.99,4.22 2.57,3.32 3.86,8.85 3.86,16.56 0,7.7 -1.3,13.24 -3.89,16.6 -2.15,2.78 -5.13,4.17 -8.97,4.17 -3.85,0 -6.96,-1.52 -9.32,-4.56 -2.36,-3.04 -3.54,-8.47 -3.54,-16.28 0,-7.66 1.3,-13.18 3.89,-16.55 2.15,-2.78 5.14,-4.17 8.97,-4.17zm0 6.46c-0.91,0 -1.72,0.3 -2.42,0.91 -0.71,0.59 -1.26,1.67 -1.65,3.23 -0.52,2.01 -0.77,5.41 -0.77,10.18 0,4.78 0.23,8.06 0.69,9.85 0.46,1.78 1.04,2.98 1.74,3.57 0.7,0.59 1.5,0.89 2.41,0.89 0.9,0 1.71,-0.3 2.42,-0.91 0.7,-0.59 1.25,-1.67 1.64,-3.23 0.52,-1.99 0.77,-5.38 0.77,-10.17 0,-4.77 -0.23,-8.05 -0.69,-9.84 -0.46,-1.79 -1.04,-2.99 -1.74,-3.58 -0.7,-0.61 -1.5,-0.91 -2.4,-0.91z"/>
   <path id="4" class="fil2" d="M548.74 330.21c-1.96,-0.85 -3.38,-2.01 -4.27,-3.51 -0.89,-1.48 -1.34,-3.12 -1.34,-4.88 0,-3.03 1.03,-5.54 3.09,-7.51 2.06,-1.98 4.99,-2.97 8.78,-2.97 3.76,0 6.67,0.99 8.75,2.97 2.07,1.97 3.12,4.48 3.12,7.51 0,1.88 -0.48,3.55 -1.44,5.03 -0.95,1.47 -2.3,2.59 -4.03,3.36 2.2,0.91 3.87,2.23 5.03,3.97 1.14,1.75 1.71,3.75 1.71,6.03 0,3.76 -1.16,6.81 -3.49,9.16 -2.32,2.35 -5.42,3.52 -9.29,3.52 -3.59,0 -6.58,-0.97 -8.98,-2.92 -2.82,-2.29 -4.23,-5.44 -4.23,-9.44 0,-2.2 0.53,-4.22 1.59,-6.06 1.06,-1.84 2.73,-3.26 5,-4.26zm1.59 -7.82c0,1.55 0.42,2.77 1.27,3.64 0.86,0.87 1.99,1.3 3.4,1.3 1.44,0 2.58,-0.44 3.44,-1.32 0.86,-0.88 1.29,-2.1 1.29,-3.65 0,-1.47 -0.42,-2.64 -1.27,-3.51 -0.86,-0.88 -1.98,-1.32 -3.37,-1.32 -1.46,0 -2.61,0.44 -3.47,1.33 -0.86,0.89 -1.29,2.07 -1.29,3.53zm-0.72 17.4c0,2.16 0.53,3.84 1.6,5.05 1.07,1.21 2.4,1.81 3.99,1.81 1.57,0 2.86,-0.59 3.88,-1.75 1.02,-1.16 1.53,-2.84 1.53,-5.04 0,-1.92 -0.52,-3.46 -1.56,-4.62 -1.04,-1.16 -2.36,-1.75 -3.95,-1.75 -1.85,0 -3.23,0.66 -4.14,1.98 -0.9,1.32 -1.35,2.75 -1.35,4.3z"/>
   <polygon id="5" class="fil2" points="590.42,311.57 617.25,311.57 617.25,318.42 598.44,318.42 598.44,352.15 590.42,352.15 "/>
   <path id="6" class="fil2" d="M618.99 332.1c0,-4.14 0.61,-7.62 1.82,-10.43 0.9,-2.07 2.13,-3.93 3.69,-5.57 1.56,-1.64 3.26,-2.86 5.12,-3.67 2.47,-1.07 5.32,-1.61 8.54,-1.61 5.85,0 10.51,1.86 14.02,5.58 3.5,3.72 5.25,8.89 5.25,15.51 0,6.57 -1.74,11.71 -5.22,15.41 -3.47,3.71 -8.13,5.56 -13.95,5.56 -5.89,0 -10.58,-1.84 -14.06,-5.54 -3.48,-3.69 -5.22,-8.77 -5.22,-15.25zm8.24 -0.27c0,4.6 1.04,8.09 3.12,10.47 2.07,2.37 4.71,3.56 7.9,3.56 3.2,0 5.81,-1.18 7.87,-3.53 2.05,-2.36 3.07,-5.9 3.07,-10.61 0,-4.66 -1,-8.13 -3,-10.42 -1.99,-2.3 -4.64,-3.44 -7.94,-3.44 -3.3,0 -5.97,1.16 -7.98,3.48 -2.02,2.32 -3.03,5.82 -3.03,10.5z"/>
   <path id="7" class="fil2" d="M666.15 311.57l27.32 0 0 33.73 3.49 0 0 15.7 -6.69 0 0 -8.84 -24.83 0 0 8.84 -6.69 0 0 -15.7 3.37 0c1.64,-3.47 2.73,-7.49 3.25,-12.06 0.52,-4.58 0.78,-10.37 0.78,-17.38l0 -4.29zm7.63 6.86c0,12.28 -1.11,21.24 -3.32,26.87l14.99 0 0 -26.87 -11.67 0z"/>
   <path id="8" class="fil2" d="M738.01 352.15l-8.64 0 -3.42 -9.24 -15.88 0 -3.29 9.24 -8.48 0 15.38 -40.59 8.47 0 15.86 40.59zm-14.66 -16.1l-5.5 -15.02 -5.34 15.02 10.85 0z"/>
   <path class="fil2" d="M394.88 232.31l8.02 0 0 17.29c1.78,-0.19 2.99,-0.65 3.61,-1.42 0.63,-0.76 1.6,-2.86 2.91,-6.32 1.65,-4.39 3.32,-7.13 4.99,-8.2 1.66,-1.07 4.32,-1.61 8.01,-1.61 0.19,0 0.57,-0.01 1.16,-0.03l0 6.06 -1.13 -0.03c-1.64,0 -2.84,0.21 -3.6,0.62 -0.76,0.42 -1.36,1.05 -1.83,1.9 -0.47,0.85 -1.16,2.6 -2.07,5.24 -0.49,1.41 -1.01,2.58 -1.58,3.52 -0.56,0.95 -1.57,1.83 -3.01,2.67 1.78,0.51 3.24,1.56 4.41,3.13 1.16,1.57 2.43,3.78 3.81,6.64l5.39 11.11 -9.4 0 -4.75 -10.45c-0.07,-0.15 -0.23,-0.43 -0.46,-0.86 -0.09,-0.14 -0.43,-0.78 -1,-1.91 -1.01,-2 -1.84,-3.25 -2.49,-3.75 -0.66,-0.5 -1.64,-0.76 -2.98,-0.77l0 17.74 -8.02 0 0 -40.59z"/>
   <path id="1" class="fil2" d="M464.2 272.9l-8.64 0 -3.42 -9.24 -15.88 0 -3.29 9.24 -8.48 0 15.37 -40.59 8.47 0 15.86 40.59zm-14.66 -16.1l-5.51 -15.02 -5.34 15.02 10.85 0z"/>
   <path id="2" class="fil2" d="M463.59 232.31l8.02 0 0 9.68c0,3.14 0.11,5.22 0.34,6.24 0.22,1.03 0.89,1.92 2.01,2.67 1.11,0.76 2.75,1.14 4.9,1.14 1.71,0 3.23,-0.19 4.56,-0.57 1.33,-0.38 2.48,-0.93 3.45,-1.67l0 -17.49 8.02 0 0 40.59 -8.02 0 0 -16.36c-1.62,0.74 -3.22,1.29 -4.78,1.67 -1.57,0.38 -3.11,0.57 -4.62,0.57 -3.95,0 -7.24,-0.95 -9.9,-2.86 -2.66,-1.91 -3.98,-5.22 -3.98,-9.92l0 -13.69z"/>
   <polygon id="3" class="fil2" points="503.12,272.9 503.12,232.31 532.43,232.31 532.43,239.17 511.14,239.17 511.14,248.18 530.94,248.18 530.94,255.04 511.14,255.04 511.14,266.04 533.2,266.04 533.2,272.9 "/>
   <path id="4" class="fil2" d="M565.34 257.94l7.74 2.44c-1.19,4.47 -3.17,7.78 -5.94,9.96 -2.77,2.16 -6.27,3.25 -10.52,3.25 -5.26,0 -9.59,-1.84 -12.98,-5.53 -3.38,-3.68 -5.08,-8.72 -5.08,-15.12 0,-6.76 1.71,-12.01 5.11,-15.75 3.4,-3.74 7.88,-5.61 13.43,-5.61 4.85,0 8.79,1.48 11.81,4.41 1.81,1.74 3.15,4.23 4.05,7.49l-7.91 1.93c-0.47,-2.1 -1.45,-3.76 -2.93,-4.98 -1.49,-1.22 -3.3,-1.82 -5.42,-1.82 -2.94,0 -5.33,1.08 -7.15,3.24 -1.83,2.15 -2.75,5.65 -2.75,10.49 0,5.12 0.91,8.78 2.7,10.95 1.81,2.18 4.15,3.27 7.03,3.27 2.13,0 3.96,-0.69 5.49,-2.08 1.53,-1.39 2.64,-3.56 3.3,-6.54z"/>
   <polygon id="5" class="fil2" points="587.48,272.9 587.48,239.17 575.75,239.17 575.75,232.31 607.17,232.31 607.17,239.17 595.5,239.17 595.5,272.9 "/>
   <path id="6" class="fil2" d="M612.36 232.31l15.84 0c3.14,0 5.48,0.13 7.01,0.4 1.55,0.27 2.92,0.83 4.14,1.67 1.22,0.85 2.23,1.97 3.04,3.38 0.81,1.41 1.22,2.99 1.22,4.74 0,1.89 -0.5,3.64 -1.49,5.22 -1,1.59 -2.35,2.77 -4.06,3.56 2.41,0.73 4.25,1.96 5.55,3.7 1.29,1.74 1.93,3.78 1.93,6.13 0,1.85 -0.41,3.65 -1.25,5.39 -0.84,1.75 -1.98,3.15 -3.44,4.19 -1.45,1.04 -3.23,1.68 -5.37,1.93 -1.33,0.14 -4.54,0.24 -9.64,0.27l-13.49 0 0 -40.59zm8.02 6.74l0 9.35 5.23 0c3.11,0 5.04,-0.05 5.8,-0.14 1.36,-0.16 2.44,-0.64 3.23,-1.44 0.78,-0.8 1.17,-1.85 1.17,-3.16 0,-1.26 -0.34,-2.27 -1.01,-3.05 -0.67,-0.78 -1.68,-1.26 -3.01,-1.42 -0.79,-0.09 -3.07,-0.14 -6.82,-0.14l-4.59 0zm0 16.1l0 10.88 7.41 0c2.88,0 4.71,-0.09 5.48,-0.25 1.19,-0.23 2.16,-0.76 2.9,-1.62 0.75,-0.87 1.12,-2.01 1.12,-3.46 0,-1.23 -0.28,-2.26 -0.87,-3.11 -0.57,-0.85 -1.41,-1.47 -2.5,-1.86 -1.09,-0.39 -3.46,-0.58 -7.1,-0.58l-6.46 0z"/>
   <polygon id="7" class="fil2" points="652.3,272.9 652.3,232.31 681.61,232.31 681.61,239.17 660.32,239.17 660.32,248.18 680.12,248.18 680.12,255.04 660.32,255.04 660.32,266.04 682.38,266.04 682.38,272.9 "/>
   <polygon id="8" class="fil2" points="689.19,272.9 689.19,232.31 697.21,232.31 697.21,248.3 712.8,248.3 712.8,232.31 720.82,232.31 720.82,272.9 712.8,272.9 712.8,255.16 697.21,255.16 697.21,272.9 "/>
   <polygon id="9" class="fil2" points="729.13,272.9 729.13,232.31 737.15,232.31 737.15,248.3 752.74,248.3 752.74,232.31 760.76,232.31 760.76,272.9 752.74,272.9 752.74,255.16 737.15,255.16 737.15,272.9 "/>
   <path id="10" class="fil2" d="M769.29 232.31l8.02 0 0 16.21 10.69 0c2.8,0 5.22,0.4 7.24,1.18 2.02,0.78 3.7,2.18 5.06,4.21 1.35,2.02 2.02,4.35 2.02,6.97 0,2.75 -0.7,5.11 -2.1,7.11 -1.41,1.98 -2.97,3.3 -4.69,3.94 -1.71,0.65 -4.23,0.97 -7.54,0.97l-18.68 0 0 -40.59zm8.02 33.73l7.8 0c2.48,0 4.21,-0.12 5.2,-0.37 0.98,-0.25 1.85,-0.81 2.62,-1.69 0.76,-0.88 1.14,-1.95 1.14,-3.21 0,-1.79 -0.63,-3.15 -1.87,-4.04 -1.25,-0.9 -3.51,-1.34 -6.77,-1.34l-8.12 0 0 10.66zm29.59 -33.73l8.02 0 0 40.59 -8.02 0 0 -40.59z"/>
   <polygon id="11" class="fil2" points="823.21,272.9 823.21,232.31 852.53,232.31 852.53,239.17 831.23,239.17 831.23,248.18 851.03,248.18 851.03,255.04 831.23,255.04 831.23,266.04 853.3,266.04 853.3,272.9 "/>
   <path id="12" class="fil2" d="M873.81 252.85c0,-4.14 0.61,-7.62 1.82,-10.43 0.9,-2.07 2.13,-3.93 3.69,-5.57 1.56,-1.64 3.26,-2.86 5.12,-3.67 2.47,-1.07 5.32,-1.61 8.54,-1.61 5.85,0 10.51,1.86 14.02,5.58 3.5,3.72 5.25,8.89 5.25,15.51 0,6.57 -1.74,11.71 -5.22,15.41 -3.47,3.71 -8.13,5.56 -13.95,5.56 -5.89,0 -10.58,-1.84 -14.06,-5.54 -3.48,-3.69 -5.22,-8.77 -5.22,-15.25zm8.24 -0.27c0,4.6 1.04,8.09 3.12,10.47 2.07,2.37 4.71,3.56 7.9,3.56 3.2,0 5.81,-1.18 7.87,-3.53 2.05,-2.36 3.07,-5.9 3.07,-10.61 0,-4.66 -1,-8.13 -3,-10.42 -1.99,-2.3 -4.64,-3.44 -7.94,-3.44 -3.3,0 -5.97,1.16 -7.98,3.48 -2.02,2.32 -3.03,5.82 -3.03,10.5z"/>
   <path id="13" class="fil2" d="M918.6 232.31l8.02 0 0 17.29c1.78,-0.19 2.99,-0.65 3.61,-1.42 0.63,-0.76 1.6,-2.86 2.91,-6.32 1.65,-4.39 3.32,-7.13 4.99,-8.2 1.66,-1.07 4.32,-1.61 8.01,-1.61 0.19,0 0.57,-0.01 1.16,-0.03l0 6.06 -1.13 -0.03c-1.64,0 -2.84,0.21 -3.6,0.62 -0.75,0.42 -1.36,1.05 -1.83,1.9 -0.47,0.85 -1.16,2.6 -2.07,5.24 -0.49,1.41 -1.01,2.58 -1.58,3.52 -0.56,0.95 -1.57,1.83 -3.01,2.67 1.78,0.51 3.24,1.56 4.41,3.13 1.16,1.57 2.43,3.78 3.81,6.64l5.39 11.11 -9.4 0 -4.75 -10.45c-0.07,-0.15 -0.23,-0.43 -0.46,-0.86 -0.09,-0.14 -0.43,-0.78 -1,-1.91 -1.01,-2 -1.84,-3.25 -2.49,-3.75 -0.65,-0.5 -1.64,-0.76 -2.98,-0.77l0 17.74 -8.02 0 0 -40.59z"/>
   <polygon id="14" class="fil2" points="952.24,272.9 952.24,232.31 960.26,232.31 960.26,248.3 975.86,248.3 975.86,232.31 983.88,232.31 983.88,272.9 975.86,272.9 975.86,255.16 960.26,255.16 960.26,272.9 "/>
   <path id="15" class="fil2" d="M1027.86 272.9l-8.64 0 -3.42 -9.24 -15.88 0 -3.29 9.24 -8.48 0 15.37 -40.59 8.47 0 15.86 40.59zm-14.66 -16.1l-5.5 -15.02 -5.34 15.02 10.85 0z"/>
  </g>
 </g>
</svg>
