<?xml version="1.0" encoding="UTF-8"?>
<!DOCTYPE svg PUBLIC "-//W3C//DTD SVG 1.1//EN" "http://www.w3.org/Graphics/SVG/1.1/DTD/svg11.dtd">
<!-- Creator: CorelDRAW 2018 (64-Bit) -->
<svg xmlns="http://www.w3.org/2000/svg" xml:space="preserve" width="159.137mm" height="34.7685mm" version="1.1" style="shape-rendering:geometricPrecision; text-rendering:geometricPrecision; image-rendering:optimizeQuality; fill-rule:evenodd; clip-rule:evenodd"
viewBox="0 0 9918.82 2167.09"
 xmlns:xlink="http://www.w3.org/1999/xlink">
 <defs>
  <style type="text/css">
   <![CDATA[
    .fil1 {fill:#FEFEFE;fill-rule:nonzero}
    .fil0 {fill:url(#id0)}
   ]]>
  </style>
  <linearGradient id="id0" gradientUnits="userSpaceOnUse" x1="5218.41" y1="0.48" x2="5218.41" y2="4528.97">
   <stop offset="0" style="stop-opacity:1; stop-color:#393185"/>
   <stop offset="1" style="stop-opacity:1; stop-color:#008DD2"/>
  </linearGradient>
 </defs>
 <g id="Слой_x0020_1">
  <metadata id="CorelCorpID_0Corel-Layer"/>
  <g id="_1899838124752">
   <path class="fil0" d="M0.01 0l9918.82 0.01 0 477.05c-1848.03,2343.58 -6508.85,-351.06 -9918.82,1690.03l0.01 -2167.09z"/>
   <path class="fil1" d="M3739.2 172.39l85.86 1001.98 -266.81 0 -1.51 -180.2 -93.59 0 -26.8 180.2 -269.77 0 195.74 -1001.98 376.88 0zm-178.64 644.33c-6.15,-113.44 -10.38,-253.72 -13.16,-420.4 -38.51,191.61 -63.83,331.67 -75.99,420.4l89.16 0zm372.4 -644.96l261.11 0 -25.47 423.35c49.3,-1.27 76.37,-28.52 81.43,-81.76l17.22 -195.63c6.24,-72.03 23.26,-120.83 51.26,-145.97l240.83 0c-24.98,24.29 -39.78,74.57 -44.19,151.04l-9.59 171.96c-5.72,103.94 -68.2,163.3 -186.99,177.67 116.98,14.37 171.9,74.58 164.39,180.2l-11.34 159.5c-5.23,76.05 2.98,130.14 24.4,162.24l-240.83 0c-26.5,-25.14 -37.37,-73.93 -32.82,-145.98l12.36 -195.62c1.56,-24.72 -4.78,-44.78 -18.83,-59.79 -14.05,-15 -32.99,-22.81 -57.05,-23.24l-28.09 424.62 -261.11 0 63.32 -1002.61zm1258.38 1175.21l-180.21 0 10.9 -172.6 -472.78 0 63.32 -1002.61 261.11 0 -50.67 802.13 77.53 0 50.67 -802.13 261.11 0 -50.67 802.13 53.24 0 -23.56 373.08zm661.99 -172.6l-217.8 0 28.8 -456.1 -164.43 456.1 -228.37 0 63.33 -1002.61 217.8 0 -28.57 452.29 174.76 -452.29 217.8 0 -63.33 1002.61zm684.47 0l-261.11 0 28.51 -451.24c-32.96,0 -54.86,5.5 -65.05,16.48 -10.42,10.99 -16.79,34.85 -19.13,72.04l-22.91 362.72 -242.1 0 18.88 -298.93c3.2,-50.7 8.4,-89.35 15.76,-115.76 7.16,-26.41 21.42,-48.16 42.8,-65.49 21.37,-17.32 54.2,-31.89 98.66,-43.52 -59.46,-5.28 -97.25,-22.18 -113.18,-50.91 -15.93,-28.73 -21.55,-80.28 -16.87,-154.43 4.24,-66.97 15.77,-119.15 34.64,-156.96 19.07,-37.82 44.66,-64.85 76.96,-81.34 32.52,-16.48 69.28,-26.61 110.27,-29.99 40.99,-3.6 105.11,-5.28 192.15,-5.28l185.06 0 -63.33 1002.61zm-222.68 -608.41l13.99 -221.61 -12.46 0c-21.77,0 -38.54,4.86 -50.36,14.58 -11.81,9.72 -18.61,30.42 -20.63,62.32l-3.47 54.92c-2.35,37.18 0.77,61.48 9.34,72.88 8.59,11.2 29.77,16.9 63.58,16.9zm655.03 -393.57l-88.63 754.39 -193.08 0 6.87 -754.39 274.84 0zm-71.11 801.5l-12.67 200.48 -233.86 0 12.66 -200.48 233.86 0z"/>
  </g>
 </g>
</svg>
