<?xml version="1.0" encoding="UTF-8"?>
<!DOCTYPE svg PUBLIC "-//W3C//DTD SVG 1.1//EN" "http://www.w3.org/Graphics/SVG/1.1/DTD/svg11.dtd">
<!-- Creator: CorelDRAW 2017 -->
<svg xmlns="http://www.w3.org/2000/svg" xml:space="preserve" width="35.6905mm" height="39.6882mm" version="1.1" style="shape-rendering:geometricPrecision; text-rendering:geometricPrecision; image-rendering:optimizeQuality; fill-rule:evenodd; clip-rule:evenodd"
viewBox="0 0 659.11 732.94"
 xmlns:xlink="http://www.w3.org/1999/xlink">
 <defs>
  <style type="text/css">
   <![CDATA[
    .fil41 {fill:#020201}
    .fil64 {fill:#040906}
    .fil26 {fill:#050201}
    .fil51 {fill:#050505}
    .fil34 {fill:#080B08}
    .fil30 {fill:#0A2715}
    .fil18 {fill:#0B0502}
    .fil24 {fill:#130A04}
    .fil22 {fill:#1A110B}
    .fil65 {fill:#21422B}
    .fil66 {fill:#22452D}
    .fil63 {fill:#326C4B}
    .fil58 {fill:#336F4B}
    .fil60 {fill:#357150}
    .fil32 {fill:#377C53}
    .fil33 {fill:#398457}
    .fil57 {fill:#3B895A}
    .fil42 {fill:#9B3919}
    .fil21 {fill:#9E410D}
    .fil62 {fill:#A2B8C5}
    .fil61 {fill:#A5BDCB}
    .fil54 {fill:#A7A7A7}
    .fil15 {fill:#AA450D}
    .fil56 {fill:#ADC6D5}
    .fil53 {fill:#B0CAD9}
    .fil5 {fill:#B4BDB8}
    .fil28 {fill:#B7B8B7}
    .fil4 {fill:#BD5B25}
    .fil38 {fill:#BFC8C3}
    .fil11 {fill:#C05D26}
    .fil17 {fill:#C5612A}
    .fil23 {fill:#CA6630}
    .fil37 {fill:#CBCDCB}
    .fil52 {fill:#CBD1CD}
    .fil12 {fill:#CED4D0}
    .fil3 {fill:#CFD5D1}
    .fil45 {fill:#CFE3D7}
    .fil31 {fill:#D2CFCC}
    .fil27 {fill:#D4DAD6}
    .fil55 {fill:#DD753D}
    .fil6 {fill:#E1E5E2}
    .fil29 {fill:#E2E7E3}
    .fil9 {fill:#E3E4E4}
    .fil50 {fill:#EAD1C4}
    .fil19 {fill:#EB7C3E}
    .fil44 {fill:#EBECEB}
    .fil20 {fill:#EED2C4}
    .fil13 {fill:#EED3C5}
    .fil48 {fill:#EED4C7}
    .fil0 {fill:#F07F40}
    .fil49 {fill:#F0D6C9}
    .fil36 {fill:#F2F2F2}
    .fil25 {fill:#F3B08D}
    .fil43 {fill:#F3BCA1}
    .fil2 {fill:#F6F6F6}
    .fil7 {fill:#F7915A}
    .fil47 {fill:#F7E9E3}
    .fil46 {fill:#F9F7F5}
    .fil8 {fill:#FA9660}
    .fil39 {fill:#FAFAFA}
    .fil35 {fill:#FCB28A}
    .fil16 {fill:#FCFCFB}
    .fil1 {fill:#FD955D}
    .fil59 {fill:#FDB186}
    .fil14 {fill:#FDFDFD}
    .fil40 {fill:#FE9760}
    .fil10 {fill:#FEFEFE}
   ]]>
  </style>
 </defs>
 <g id="Слой_x0020_1">
  <metadata id="CorelCorpID_0Corel-Layer"/>
  <g id="_2416068777712">
   <path class="fil0" d="M468.56 72.93c4.29,1.14 3,3.68 8.29,3.68l1.84 0c5.45,0 11.36,-9.4 16.57,-12.88 4.13,-8.61 6.9,-17.38 11.35,-26.38 4.3,-8.67 9.4,-15.82 14.42,-23.31 -2.18,-1.15 -9.09,-4.6 -11.97,-4.6l-5.52 0c-11.47,0 -29.45,51.97 -34.98,63.49z"/>
   <path class="fil1" d="M405.04 50.84l0 3.68c3.79,-2 6.98,-1.77 7.36,-6.44 5.18,1.21 10.58,4.6 15.65,4.6l10.13 0c17.78,0 23.37,-20.71 28.54,-22.08l0 3.68c0,2.11 -1.98,6.66 -2.76,8.28l6.06 -0.2 7.75 -15.44c-8.48,-2.26 -2.89,-8.64 -18.61,-4.8 -8.15,1.99 -14.99,2.84 -22.02,5.6 -6.64,2.6 -12.56,6.03 -19.08,8.53 -10.98,4.2 -7.4,12.57 -13.01,14.6z"/>
   <path class="fil0" d="M405.04 50.84c5.61,-2.03 2.03,-10.4 13.01,-14.6 6.52,-2.5 12.45,-5.93 19.08,-8.53 7.03,-2.76 13.86,-3.61 22.02,-5.6 15.72,-3.84 10.14,2.54 18.61,4.8l8.28 -14.72c-4.81,-1.12 -4.51,-3.68 -9.2,-3.68l-16.57 0c-10.68,0 -23.54,9.2 -31.3,9.2 -2.49,3.72 -9.79,10.56 -13.58,14.95 -5.61,6.49 -6.65,10.47 -10.35,18.18z"/>
   <path class="fil2" d="M326.79 69.25l5.52 -2.76 69.04 -1.84c-3.99,-2.67 -5.52,-7.25 -5.52,-13.8l-81.93 0 0.27 12.32 12.62 6.08z"/>
   <path class="fil2" d="M403.2 64.65l56.15 0.92 5.52 -13.8 -6.44 0c-2.19,0 -9.7,9.2 -22.09,9.2l-6.45 0c-7.9,0 -10.61,-2.86 -15.41,-5.24l-11.29 8.92z"/>
   <path class="fil3" d="M332.32 66.49l19.42 0.08 -11.13 12.8 1.84 2.76 101.26 -0.92c2.49,-3.72 3.88,-3.93 7.13,-6.67 2.94,-2.47 5.53,-7.83 6.68,-4.37l1.84 -4.6 -56.15 -0.92 -1.84 0 -69.04 1.84z"/>
   <path class="fil4" d="M259.59 32.44c-1.41,6.07 -4.6,9.99 -4.6,18.4 0,5.28 5.34,17.17 8.28,19.32 0,-11.99 0.76,-13.46 2.54,-22.3 0.98,-4.84 6.53,-15.59 5.74,-17.27l-11.97 1.84z"/>
   <path class="fil0" d="M550.49 75.69c4.75,-6.48 22.37,-10.17 29.25,-16.77 4.21,-4.04 7.48,-7.33 11.09,-11.92 3.48,-4.42 6.39,-10.21 9.37,-13.64 -3.26,-2.83 -17.53,-11.04 -23.01,-11.04 -4.25,0 -33.14,32.52 -33.14,40.49 0,4.23 4.28,10.4 6.44,12.88z"/>
   <polygon class="fil5" points="326.79,69.25 340.6,79.37 351.73,66.56 332.32,66.49 "/>
   <path class="fil0" d="M510.9 82.13l7.36 -5.52c11.18,0 11.37,-6.56 17.49,-11.04 0,-13.23 3.48,-17.71 10.36,-24.61 2.69,-2.69 16.72,-16.63 17.25,-18.64 -7.76,-1.81 -20.09,-12.88 -30.38,-12.88 -4.3,0 -28.54,53.28 -28.54,62.57 0,2.79 4.3,8.69 6.44,10.12z"/>
   <path class="fil6" d="M443.7 81.21l11.97 0 1.84 -11.04c-1.15,-3.46 -3.74,1.9 -6.68,4.37 -3.25,2.74 -4.64,2.95 -7.13,6.67z"/>
   <path class="fil7" d="M550.49 75.69c2.85,4.26 13.79,14.35 19.43,15.62l-1.98 -9.38 -4.56 1.13c0.41,-4.92 17.87,-12.45 23.39,-19.87 3.32,-4.47 5.92,-7.3 9.03,-12.13 2.41,-3.74 4.3,-12.83 7.16,-14.92 1.55,1.08 1.84,0.13 1.84,2.76l0 4.6 8.77 -0.6 -13.37 -9.52c-2.98,3.43 -5.89,9.22 -9.37,13.64 -3.62,4.59 -6.88,7.88 -11.09,11.92 -6.88,6.6 -24.5,10.29 -29.25,16.77z"/>
   <path class="fil4" d="M296.42 106.05l-4.6 -46.93 -8.29 -10.12c0,10.18 2.41,22.02 5.24,29.73 1.24,3.39 7.41,26.93 7.65,27.32z"/>
   <path class="fil8" d="M468.56 72.93l-0.92 8.28c-1.32,8.81 30.41,15.64 43.27,15.64 -3,-4.47 -16.57,-14 -16.57,-22.08l0 -4.6c0,-3.17 0.68,-3.56 0.92,-6.44 -5.2,3.48 -11.12,12.88 -16.57,12.88l-1.84 0c-5.29,0 -4,-2.54 -8.29,-3.68z"/>
   <polygon class="fil9" points="551.08,96.68 569.82,96.85 569.82,95.93 569.45,96.87 554.39,90.53 "/>
   <path class="fil10" d="M484.21 103.29l-1.84 0 0 80.05 0 31.29 27.62 0 33.14 0 79.17 0 0 -92.01 0 -41.41 -41.42 0 -6.17 1.81 1.65 13.72 -1 0.12 32.22 0c1.34,1.99 2.76,3.06 2.76,6.44l0 100.29c0,2.49 -0.44,2.54 -0.92,4.6 -2.06,0.48 -2.12,0.92 -4.6,0.92l-104.02 0c-2.15,0 -4.6,-2.45 -4.6,-4.6l0.02 -99.51 -11.99 -1.7z"/>
   <path class="fil8" d="M510.9 82.13c3.2,4.78 24.16,20.24 30.38,20.24 2.73,0 1.84,-6.36 2.03,-8.95l6.26 -5.77c-2.04,-3.05 -5.33,-5.83 -8.05,-9.44 -3.46,-4.58 -3.81,-9.58 -5.76,-12.65 -6.12,4.48 -6.31,11.04 -17.49,11.04l-7.36 5.52z"/>
   <path class="fil11" d="M296.42 151.14l15.89 -11.91 -2.08 10.99c3.14,0.98 9.34,-25.48 10.06,-32.27 1.45,-13.63 0.99,-29.17 0.99,-44.1l-22.09 -9.2 5.52 35.89 0 22.08c0,9.34 -4.97,22.27 -8.28,28.52z"/>
   <polygon class="fil4" points="328.64,121.69 338.55,85.17 325.87,76.61 "/>
   <path class="fil0" d="M310.22 150.22l-4.58 12.09 2.74 -1.05c-0.34,-0.76 10.36,-12.48 12.53,-16 2.47,-4 7.72,-17.66 7.72,-23.56l-2.76 -45.09 -4.6 -2.76c0,14.92 0.46,30.47 -0.99,44.1 -0.72,6.8 -6.92,33.25 -10.06,32.27z"/>
   <path class="fil12" d="M580.87 81.21l41.42 0 0 41.41 1.84 -1.84 -1.02 -35.05 14.83 -16.48 -0.92 -3.6 -40.51 -0.08c-6.72,7.73 -7.92,8.93 -15.65,15.64z"/>
   <polygon class="fil5" points="624.13,120.77 637.94,105.13 637.94,69.25 623.11,85.73 "/>
   <path class="fil13" d="M503.54 127.21c4.1,0.96 10.13,9.06 10.13,13.8l0 2.76c0,9.64 -5.86,27.3 -10.13,32.2l0 25.76 11.97 0c0,-28.55 17.27,-44.17 45.11,-44.17l4.6 0c7.68,0 18.53,5.07 23.03,8.26 8.68,6.14 8.96,10.89 14.71,17.5l0 -80.05 -52.47 0c-0.25,2.96 -1.65,5.52 -4.6,5.52l-8.28 0c-7.55,0 -12.71,-5.52 -17.49,-5.52l-2.78 -0.21 -13.79 1.13 0 23z"/>
   <path class="fil14" d="M389.39 214.63l60.76 0 16.57 0 0 -16.56 0 -103.98 -11.05 -12.88 -11.97 0 -101.26 0.92 0.92 1.84c11.46,0 14.77,6.99 19.33,13.7l88.37 1.02 0 96.62c0,4.08 0.14,12.88 -3.68,12.88l-61.17 0.17 3.18 6.27z"/>
   <path class="fil15" d="M271.56 30.6c0.79,1.68 -4.76,12.42 -5.74,17.27 -1.78,8.84 -2.54,10.31 -2.54,22.3 -2.94,-2.15 -8.28,-14.04 -8.28,-19.32 0,-8.41 3.19,-12.33 4.6,-18.4l-11.97 1.84c-2.33,4.39 -6.44,9.92 -6.44,16.56l0 3.68c0,13.13 23.01,45.26 23.01,69.93l0 10.12c0,4.62 -3.61,11.87 -5.52,14.72l13.85 10.26 1.8 -1.06c-0.36,-0.8 17.49,-19.8 17.49,-37.73l0 -0.92c0,-28.33 -16.57,-38.63 -16.57,-69.93l0 -1.84c0,-8.4 2.1,-14.39 3.54,-21.46l-7.22 3.97z"/>
   <path class="fil0" d="M296.42 106.05l0.92 13.8c0.76,8.42 -2.9,18.76 -5.51,23.94 -4.36,8.65 -9.7,9.52 -15.67,14.71l-4.6 3.68c12.64,0 19.86,-3.58 24.86,-11.04 3.31,-6.26 8.28,-19.19 8.28,-28.52l0 -22.08 -5.52 -35.89 -7.36 -5.52 4.6 46.93z"/>
   <path class="fil11" d="M195.15 196.23l-2.76 0c0.48,-2.06 0.92,-2.12 0.92,-4.6l0 -4.6c0,-18.58 -63.97,-65.33 -82.85,-65.33 1.97,-1.37 3.04,-1.84 6.44,-1.84l2.76 0c25.77,0 80.09,42.18 80.09,67.17 0,4.33 -2.85,6.59 -4.6,9.2zm-155.57 33.13c2.69,-0.98 13.4,-15.7 16.8,-19.1 6.88,-6.88 11.5,-11.46 19.84,-16.98 12.51,-8.28 33.37,-19.14 53.58,-19.14l0.92 0c10.25,0 38.14,7.82 35.9,12.88l18.41 14.72 3.68 0 -0.92 -1.84c-2.94,1.39 -39.97,-36.81 -64.44,-36.81l-10.16 -0.2 -8.25 1.12c2.67,-3.64 9.14,-6.44 15.65,-6.44l3.73 -0.33 12.84 2.17c-1.39,-5.19 -16.72,-12.7 -21.17,-16.56 20.9,0 75.49,37.11 75.49,53.37 0,2.06 -0.73,2.02 -1.84,3.68l5.52 -3.68c10.82,-2.52 23.93,-21.71 24.33,-35.21l1.45 3.01c5.24,-2.77 11.08,-6.16 16.2,-9.57 3.57,-2.37 12.63,-10.94 14.51,-11.01l7.03 5.86c1.91,-2.85 5.52,-10.1 5.52,-14.72l0 -10.12c0,-24.67 -23.01,-56.8 -23.01,-69.93l0 -3.68c0,-6.64 4.12,-12.17 6.44,-16.56 -23.59,0 -53.33,8.38 -71.01,14.59 -17.65,6.19 -38.92,24.38 -43.13,42.46 3.52,-0.29 18.35,-5.97 22.9,-7.48 9.1,-3.01 14.72,-3.94 24.97,-6.33l0 8.28c0,17.58 49.71,22.59 49.71,54.29l0 3.68c0,5.24 -3.51,11.65 -6.45,13.8 0,-25.07 -0.91,-30.52 -16.4,-41.58 -8.16,-5.83 -30.55,-15.51 -30.55,-27.43l0 -3.68c0,-2.49 0.44,-2.54 0.92,-4.6 -11.11,7.44 -19.74,8.97 -33.03,13.92 -12.01,4.48 -21.4,8.68 -32.64,14.3 -14.8,7.4 -48.05,27.26 -52.16,42.64 9.14,-2.13 20.99,-11.96 33.14,-11.96l5.52 0c1.78,0 3.68,1.64 3.68,2.76 0,2.47 -16.66,15.26 -19.56,18.17 -5.66,5.69 -13.15,13.39 -17.64,20.09 -12.52,18.64 -16.42,28.55 -26.31,49.15z"/>
   <polygon class="fil6" points="466.72,198.07 482.37,183.34 482.37,103.29 484.21,103.29 466.72,94.09 "/>
   <path class="fil14" d="M503.54 175.98c4.26,-4.9 10.13,-22.56 10.13,-32.2l0 -2.76c0,-4.74 -6.02,-12.85 -10.13,-13.8l0 48.77z"/>
   <path class="fil16" d="M382.95 135.5l-2.76 22.08 0 23.92c0,5.21 1.21,19.32 5.52,19.32l58.91 0 0 -95.69 -77.33 0c2.56,3.82 16.36,25.74 15.65,30.36z"/>
   <path class="fil0" d="M39.58 229.35c-1.2,5.13 -5.3,10.77 -6.25,15.83 -1.3,6.9 -1.11,12.98 -1.11,20.97 2.83,-3.26 14.61,-24.53 17.79,-30.07 3.92,-6.83 16.8,-21.76 22.72,-26.06 20.74,-15.08 33.65,-27.61 69.96,-27.61 2.06,-0.48 2.12,-0.92 4.6,-0.92l0.92 0c6.24,0 14.25,3.32 18.41,5.52 2.24,-5.07 -25.65,-12.88 -35.9,-12.88l-0.92 0c-20.21,0 -41.07,10.86 -53.58,19.14 -8.34,5.52 -12.95,10.1 -19.84,16.98 -3.4,3.4 -14.11,18.12 -16.8,19.1z"/>
   <path class="fil4" d="M322.19 155.74c7.31,-0.16 14.55,-6.92 19.19,-10.08l1.06 1.8 0.92 -4.6c2.47,-0.59 1.74,-0.92 3.68,-0.92 5.77,0 11.97,12.16 11.97,18.4 0,9.91 -0.95,16.37 -0.94,25.79 0.01,18.68 8.31,8.62 8.31,18.38l0 5.52c0,2.2 -6.13,12.18 -9.07,13.8l-1.05 15.64c3.03,5.73 17.49,39.01 17.49,45.09 0,12.98 -5.25,26.73 -11.28,33.81 -3.08,3.62 -7.91,8.43 -12.09,10.91 -7.55,4.49 -6.05,5.41 -10.69,12.32 4.83,1.12 11.49,7.36 16.57,7.36l2.76 0c2.49,0 2.54,-0.44 4.6,-0.92 -1.97,-3.73 -4.6,-6.24 -4.6,-11.96l0 -3.68c0,-5.63 8.21,-13.93 11.8,-16.74 7.47,-5.85 8.44,-7.43 10.85,-18.6 2.93,-13.54 7.73,-35.34 7.73,-50.24l0 -12.88c0,-5.24 -16.57,-27.89 -16.57,-51.53l0 -11.96c0,-29.68 13.94,-20.05 -3.87,-46.74 -4.75,-7.12 -20.69,-33.71 -25.59,-36.99 -0.52,6.2 -4.96,31.92 -6.81,38.28 -4.96,17.07 -5.87,18.05 -14.36,30.73z"/>
   <path class="fil17" d="M177.66 219.23c4.54,-0.1 4.5,-0.06 4.62,-4.47l3.67 -1.05 -3.68 0c-8.11,-5.43 -16.39,-22.08 -33.14,-22.08 2.5,2.17 28.41,27.26 28.54,27.6z"/>
   <path class="fil0" d="M195.15 196.23c1.75,-2.61 4.6,-4.87 4.6,-9.2 0,-24.99 -54.32,-67.17 -80.09,-67.17l-2.76 0c-3.4,0 -4.47,0.47 -6.44,1.84 18.88,0 82.85,46.74 82.85,65.33l0 4.6c0,2.48 -0.44,2.54 -0.92,4.6l2.76 0z"/>
   <path class="fil18" d="M187.79 199.91c-4.85,-7.24 -14.62,-18.05 -21.72,-23.37 -12.86,-9.63 -13.91,-9.92 -28.91,-17.11l-12.84 -2.17 -3.73 0.33c-6.51,0 -12.98,2.8 -15.65,6.44l8.25 -1.12 10.16 0.2c24.47,0 61.5,38.19 64.44,36.81z"/>
   <path class="fil19" d="M137.16 159.42c15,7.19 16.05,7.48 28.91,17.11 7.1,5.32 16.88,16.14 21.72,23.37l0.92 1.84 0.92 -1.84c1.11,-1.66 1.84,-1.62 1.84,-3.68 0,-16.26 -54.59,-53.37 -75.49,-53.37 4.45,3.87 19.79,11.37 21.17,16.56z"/>
   <path class="fil20" d="M515.51 201.75l87.45 0 0 -18.4c-5.75,-6.61 -6.02,-11.36 -14.71,-17.5 -4.51,-3.19 -15.36,-8.26 -23.03,-8.26l-4.6 0c-27.84,0 -45.11,15.61 -45.11,44.17z"/>
   <path class="fil4" d="M336 211.87c3.71,-2.48 6.44,-5.52 12.89,-5.52l6.44 0c3.99,0 2.84,1.46 7.36,1.84l0 -7.36 -26.66 0.96 -0.04 -0.96 0 11.04z"/>
   <polygon class="fil21" points="256.83,199.91 278.92,210.03 280.78,199.47 "/>
   <path class="fil22" d="M327.71 210.03l0 5.52c1.25,-0.3 2.96,-0.26 2.97,-1.87l-1.13 -10.09c-1.37,1.97 -1.84,3.04 -1.84,6.44z"/>
   <path class="fil23" d="M222.77 203.59l-9.2 8.28c7.82,-1.82 10.91,-6.44 23.01,-6.44l10.13 0c15.74,0 22.33,7.82 32.22,10.12l0 -5.52 -22.09 -10.12c-2.88,-0.24 -3.27,-0.92 -6.45,-0.92l-5.52 0c-10.89,0 -14.44,2.82 -22.09,4.6z"/>
   <polygon class="fil3" points="466.72,198.07 466.72,214.63 450.15,214.63 436.34,229.31 466.72,230.27 466.72,257.88 482.37,244.07 482.37,230.27 530.24,230.27 530.24,229.35 495.97,229.14 509.98,214.63 482.37,214.63 482.37,183.34 "/>
   <path class="fil24" d="M222.77 203.59c7.66,-1.78 11.2,-4.6 22.09,-4.6l5.52 0c3.17,0 3.57,0.68 6.45,0.92l23.95 -0.43 -1.85 10.55 0 5.52c-9.89,-2.3 -16.48,-10.12 -32.22,-10.12l-10.13 0c-12.11,0 -15.19,4.62 -23.01,6.44l-3.68 4.63 8.28 -1.87c3.98,-2.76 16.15,-4.6 23.01,-4.6l2.76 0c7.63,0 17.32,1.57 22.09,4.6 5.06,0.42 9.48,3.68 13.81,3.68 1.26,0 2.2,-1.92 2.83,-2.93l2.9 1.14 3.19 -13.7 -1.41 -0.51 -3.84 7.73c0,-15.52 3.07,-13.82 -11.97,-13.8 -9.98,0.01 -14.83,-1.84 -23.93,-1.84l-6.44 0c-7.15,0 -15.5,4.86 -18.41,9.2z"/>
   <path class="fil25" d="M335.08 216.47l-0.92 7.36c2.65,-1.77 7.87,-8.28 11.05,-8.28l4.6 0c5.29,0 4,2.54 8.15,3.62l3.82 -8.22c-2.88,-0.24 -3.27,-0.92 -6.45,-0.92l-4.6 0c-5.21,0 -12.8,3.96 -15.65,6.44z"/>
   <path class="fil26" d="M142.68 182.42c-6.81,5.92 -12.89,18.2 -12.89,30.36 0,19.59 7.91,20.19 14.73,30.37l3.68 2.76 11.97 7.36 3.68 0.92 10.13 -1.84c-16.15,-0.36 -35.9,-20.71 -35.9,-37.73 0,-6.74 3.15,-13.93 5.52,-18.4 10.92,7.31 19.7,23 32.22,23l1.84 0c-0.13,-0.35 -26.04,-25.43 -28.54,-27.6 16.75,0 25.03,16.65 33.14,22.08l3.68 0c1.43,-0.96 2.76,-1.22 2.76,-3.68l0 -1.84c0,-1.48 -2.64,-4.46 -3.68,-6.44l-18.41 -14.72c-4.16,-2.2 -12.17,-5.52 -18.41,-5.52l-0.92 0c-2.49,0 -2.54,0.44 -4.6,0.92z"/>
   <polygon class="fil27" points="619.53,229.35 637.94,212.79 637.84,200.72 608.72,228.64 609.4,229.35 "/>
   <path class="fil28" d="M251.31 227.51c2.08,0 -0.43,0.35 1.84,-0.92 -1.62,-2.21 -1.84,-2.45 -5.52,-2.76 0.69,1.04 2.16,3.68 3.68,3.68z"/>
   <polygon class="fil5" points="530.24,229.35 543.12,214.63 509.98,214.63 495.97,229.14 "/>
   <polygon class="fil29" points="395.83,230.27 466.72,230.27 436.34,229.31 450.15,214.63 389.39,214.63 "/>
   <path class="fil30" d="M236.58 231.19l5.52 0c-0.96,-1.81 -1.84,-2.71 -1.84,-5.52l0 -3.68 -4.6 0 0 6.44c0,3.52 -0.28,0.33 0.92,2.76z"/>
   <path class="fil30" d="M339.68 233.95l3.68 -0.92 -2.76 -8.28c-1.57,0.42 -3.68,1.07 -3.68,2.76 0,3.17 1.3,4.76 2.76,6.44z"/>
   <polygon class="fil31" points="262.36,237.63 263.28,235.79 260.76,234.06 258.71,238.66 "/>
   <path class="fil32" d="M339.68 233.95l0 1.84c1.99,1.33 3.07,2.76 6.44,2.76 2.94,0 4.87,-3.07 5.52,-5.52 -1.02,0.69 -3.1,2.76 -3.68,2.76 -2.47,0 -3.54,-1.31 -4.6,-2.76l-3.68 0.92z"/>
   <path class="fil33" d="M242.1 231.19l-5.52 0c1.91,3.61 4.67,9.2 10.13,9.2 4.49,0 6.47,-0.97 8.31,-3.9l-8.52 -0.49 -4.39 -4.81z"/>
   <path class="fil6" d="M220.93 231.19c1.6,5.98 12.18,11.04 20.25,11.04 -5.64,-7.69 -7.36,-3.73 -7.47,-18.59l-12.78 7.55z"/>
   <path class="fil25" d="M218.17 214.63c-1.78,3.37 -4.6,7.97 -4.6,12.88 0,3.73 1.95,5.37 3.68,7.36 0.1,-4.29 0.34,-5.23 3.68,-3.68 2.53,-9.46 10.54,-14.72 23.18,-15.03l-3.85 -2.45c10.47,0 14.17,2.15 20.27,6.43 2.22,1.56 13.59,10.43 14.39,12.78l-11.32 -3.7 19.02 13.01c3.27,-1.08 0.05,-2.7 -1.85,-6.43 -1.38,-2.7 -2.42,-5.05 -3.96,-8 -3.56,-6.81 -7.32,-8.05 -10.75,-13.18 -4.78,-3.03 -14.46,-4.6 -22.09,-4.6l-2.76 0c-6.86,0 -19.04,1.84 -23.01,4.6z"/>
   <path class="fil34" d="M220.93 231.19l12.78 -7.55c0.11,14.86 1.83,10.9 7.47,18.59 -8.07,0 -18.66,-5.06 -20.25,-11.04zm21.17 0l4.39 4.81 8.52 0.49c-1.84,2.94 -3.81,3.9 -8.31,3.9 -5.46,0 -8.22,-5.6 -10.13,-9.2 -1.2,-2.42 -0.92,0.76 -0.92,-2.76l0 -6.44 4.6 0 0 3.68c0,2.81 0.88,3.71 1.84,5.52zm9.21 -3.68c-1.52,0 -2.99,-2.64 -3.68,-3.68 3.68,0.31 3.9,0.55 5.52,2.76 -2.27,1.27 0.23,0.92 -1.84,0.92zm-30.38 3.68c-3.34,-1.55 -3.59,-0.61 -3.68,3.68 1.84,7.91 14.92,13.8 24.86,13.8 8.21,0 21.49,-3.84 22.09,-11.04l-1.84 0 -3.65 1.03 2.05 -4.6 2.52 1.73c6.61,4.42 13.05,11.04 23.93,11.04 2.06,0 2.78,-1.06 3.54,-1.39l-8.14 -3.22 -19.02 -13.01 11.32 3.7c-0.8,-2.35 -12.16,-11.22 -14.39,-12.78 -6.09,-4.28 -9.79,-6.43 -20.27,-6.43l3.85 2.45c-12.64,0.31 -20.65,5.57 -23.18,15.03z"/>
   <path class="fil7" d="M333.24 244.99l0.92 1.84 1.84 -0.92c6.77,4.53 11.55,9.97 16.82,16.31 3.78,4.54 10.04,17.41 15.4,18.66 -3.1,-11.61 -12.89,-21.18 -12.89,-38.65 -2.61,1.75 -4.87,4.6 -9.21,4.6l-0.92 0c-7.7,0 -6.27,-3.33 -10.88,-4.54l-1.09 2.69z"/>
   <path class="fil35" d="M173.98 252.35l2.76 0 4.6 -1.84c2.12,-4.42 -2.76,-14.1 -2.76,-22.08l-0.2 -7.04 -2.56 -2.16c-12.52,0 -21.3,-15.7 -32.22,-23 -2.37,4.47 -5.52,11.66 -5.52,18.4 0,17.02 19.75,37.37 35.9,37.73z"/>
   <polygon class="fil36" points="624.13,120.77 622.29,122.61 622.29,214.63 543.12,214.63 530.24,229.35 530.24,230.27 622.29,230.27 622.29,229.35 619.53,229.35 609.4,229.35 608.72,228.64 637.84,200.72 637.94,212.79 637.94,271.68 637.94,306.64 637.94,369.21 637.94,105.13 "/>
   <polygon class="fil37" points="619.53,229.35 622.29,229.35 623.21,284.56 637.94,271.68 637.94,212.79 "/>
   <polygon class="fil5" points="466.72,257.88 466.72,298.36 482.37,282.72 482.37,244.07 "/>
   <polygon class="fil38" points="623.21,284.56 623.56,322.58 637.94,306.64 637.94,271.68 "/>
   <path class="fil39" d="M347.97 360.01l59.84 0 58.91 0 0 -61.65 0 -40.49 0 -27.61 -70.88 0 -0.92 12.88 55.23 0 0 105.81c0,2.06 -0.73,2.02 -1.84,3.68 -14.42,0 -28.84,0 -43.27,0 -7.06,0 -14.12,0 -21.17,0 -2.97,0 -8.33,-0.32 -11.02,0.03 -3.78,0.49 -4.14,2.74 -8.31,2.74l-4.6 0c-7.63,0 -10.33,-3.24 -15.62,-3.69l3.65 8.29z"/>
   <path class="fil40" d="M327.71 210.03c0,-3.4 0.47,-4.47 1.84,-6.44l1.13 10.09c-0.01,1.6 -1.72,1.57 -2.97,1.87l0 -5.52zm-61.68 4.6c3.43,5.12 7.19,6.36 10.75,13.18 1.54,2.95 2.59,5.3 3.96,8 1.9,3.73 5.12,5.35 1.85,6.43l8.14 3.22c-0.76,0.33 -1.48,1.39 -3.54,1.39 -10.89,0 -17.33,-6.62 -23.93,-11.04l-0.92 1.84 1.84 0c-0.6,7.2 -13.88,11.04 -22.09,11.04 -9.94,0 -23.01,-5.9 -24.86,-13.8 -1.73,-1.99 -3.68,-3.63 -3.68,-7.36 0,-4.91 2.82,-9.51 4.6,-12.88l-8.28 1.87 3.68 -4.63 9.2 -8.28c2.91,-4.35 11.27,-9.2 18.41,-9.2l6.44 0c9.11,0 13.96,1.85 23.93,1.84 15.04,-0.02 11.97,-1.71 11.97,13.8l3.84 -7.73 1.41 0.51 -3.19 13.7 -2.9 -1.14c-0.63,1.01 -1.56,2.93 -2.83,2.93 -4.33,0 -8.75,-3.26 -13.81,-3.68zm30.38 -63.49c-5,7.46 -12.22,11.04 -24.86,11.04l4.6 -3.68 -1.84 0 -1.8 1.06 -13.85 -10.26 -7.03 -5.86c-1.88,0.08 -10.95,8.64 -14.51,11.01 -5.12,3.41 -10.97,6.8 -16.2,9.57l-1.45 -3.01c-0.39,13.5 -13.5,32.69 -24.33,35.21l-5.52 3.68 -0.92 1.84 -3.68 0c1.05,1.98 3.68,4.96 3.68,6.44l0 1.84c0,2.46 -1.33,2.72 -2.76,3.68l-3.67 1.05c-0.12,4.42 -0.07,4.37 -4.62,4.47l-1.84 0 2.56 2.16 0.2 7.04c0,7.98 4.88,17.67 2.76,22.08l2.76 0.92c0,10.19 -0.53,14.43 -1.92,22.93 -1.06,6.46 -5.45,12.82 -4.96,20.02l11.48 -8.9 0 4.6 0.16 2.91 3.41 -2.91 1.03 7.36 1.84 -1.84c2.3,3.31 2.25,9.61 3.76,13.72 1.77,4.79 4.56,6.37 7.46,10.03 6.86,8.67 9.01,11.11 17.99,17.91 7.08,5.36 13.78,9.56 21.06,14.84 3.94,2.86 17.41,15.58 19.7,16.19l-6.44 -22.08c-4.48,-6.69 -9.21,-8.02 -9.21,-20.24 -2.59,-3.86 -7.62,-8.23 -11.05,-12.88 -2.83,-3.84 -7.13,-11.96 -12.89,-11.96l-6.9 -0.46 3.22 -3.22 -1.84 -2.76 -9.21 3.68c2.81,-5.31 8.63,-9.2 16.57,-9.2 1.35,0 1.35,1.13 1.74,1.61l-3.58 2.07c7.97,0 17.72,0.41 24.16,-0.69 9.12,-1.55 12.25,-6.1 19.1,-6.67 -0.3,-3.65 -0.92,-2.22 -0.92,-4.6 0,-6.22 3.54,-11.24 7.83,-13.69l-3.24 14.5 36.84 -4.49 31.35 -0.35 16.5 2.33 0.69 -0.64 -23.68 -31.72 -0.92 -1.84c-1.43,0.95 -3.35,2.76 -5.52,2.76 -3.52,0 -0.33,0.28 -2.76,-0.92 3.6,-5.38 9.3,-7.58 10.13,-17.48 -2.43,2.79 -2.29,5.1 -7.56,5.4l6.63 -10.93 0.92 -7.36 -3.68 0.92 0 -2.76c0,-2.08 2.18,-12.22 2.76,-14.72l-0.75 0.58 -2.97 -4.63 24.89 1.29c-4.49,-6.71 -4.64,-15.58 -4.6,-26.69 0.07,-18.04 -6.35,-15.77 -8.28,-23l-1.06 -1.8c-4.64,3.15 -11.88,9.91 -19.19,10.08l-13.81 5.52 -2.74 1.05 4.58 -12.09 2.08 -10.99 -15.89 11.91z"/>
   <path class="fil0" d="M148.21 245.91l-3.68 -2.76c-8.47,4.06 -11.52,3.68 -20.07,9.39 -6.85,4.57 -10.97,8.69 -17.12,13.25 -8.52,6.31 -22.24,22.8 -28.17,31.65 3.74,-1 28.68,-22.46 33.38,-26.44 5.76,-4.89 10.71,-8.92 16.87,-13.5 6.7,-4.98 12.83,-7.44 18.79,-11.58z"/>
   <path class="fil22" d="M220.01 294.68l5.52 -1.84 3.58 -2.07c-0.39,-0.47 -0.39,-1.61 -1.74,-1.61 -7.94,0 -13.76,3.9 -16.57,9.2l9.21 -3.68z"/>
   <path class="fil41" d="M502.62 247.75l100.34 0 0 99.38 -100.34 0 0 -99.38zm-6.45 102.13c0,2.16 1.53,3.68 3.68,3.68l105.86 0c2.15,0 3.68,-1.53 3.68,-3.68l0 -102.13c0,-3.1 -1.63,-6.44 -4.6,-6.44l-108.63 0 0 108.58z"/>
   <path class="fil42" d="M284.45 286.4c11.65,2.71 30.16,26.68 32.22,26.68 4.69,0 38.36,-27.43 40.5,-30.36 -12.78,0 -69.05,-1.33 -72.72,3.68z"/>
   <path class="fil10" d="M385.71 313.08l1.84 0.92 9.2 0 8.29 -1.84 11.05 -1.84c12.48,-6.6 14.8,-15.34 27.62,-23.92l0 -36.81 -48.33 0.07 -9.66 63.42z"/>
   <path class="fil26" d="M176.74 252.35c-4.46,3.87 -12.5,9.6 -17.66,13.63 -4.3,3.36 -11.36,12.35 -15.23,16.99 -4.25,5.09 -24.4,33.95 -18.66,42.99 0.98,-3.66 22.73,-34.94 26.44,-39.82 9.2,-12.07 20.1,-26.43 32.47,-34.71l-2.76 -0.92 -4.6 1.84z"/>
   <path class="fil3" d="M482.37 360.01l-15.65 15.64 58.92 0 -40.71 -1.11 12.17 -13.61 50.63 0 43.44 0.15 -12.14 14.58c10.74,0 21.48,0 32.22,0 11.78,0 24.49,3.02 26.69,-6.44l0 -62.57 -14.38 15.94 -0.35 -38.02 -0.92 -55.21 0 0.92 0 129.74 -139.92 0z"/>
   <path class="fil43" d="M321.27 318.6c2.8,4.18 7.79,8.28 14.73,8.28l1.84 0c18.21,0 27.56,-28.12 31.25,-43.95l-5.48 -1.14c-10.71,7.84 -30.13,33.96 -42.35,36.81z"/>
   <path class="fil43" d="M225.53 292.84l-5.52 1.84 1.84 2.76c3.78,-0.31 2.06,-0.92 5.52,-0.92 12.82,0 21.29,32.21 51.55,32.21 16.2,0 21.93,-7.53 31.3,-13.8 -5.34,-7.97 -26.49,-26.68 -39.45,-26.79l-1.97 -2.65c-6.86,0.57 -9.98,5.12 -19.1,6.67 -6.44,1.1 -16.19,0.69 -24.16,0.69z"/>
   <path class="fil15" d="M163.86 254.2l-11.97 10.12c-7.24,10.81 -26.87,25.13 -35.15,35.71 -10,12.79 -23.2,23.77 -33.72,37.14 -10,12.7 -22,26.33 -29.94,40.93 -4.24,7.79 -8.76,15.27 -12.21,23.68 -1.69,4.13 -8.14,26.43 -8.65,27.24l5.52 23c4.48,-7.05 5.08,-14.21 11.41,-22.64 4.85,-6.45 14.89,-12.62 18.05,-16.93 -4.6,-7.91 48.8,-80.8 56.15,-89.25l0.3 5.69 1.55 -2.93c-5.74,-9.04 14.41,-37.9 18.66,-42.99 3.87,-4.63 10.92,-13.63 15.23,-16.99 5.17,-4.04 13.2,-9.76 17.66,-13.63l-2.76 0 -10.13 1.84z"/>
   <path class="fil43" d="M258.67 346.21l6.44 22.08 15.65 19.32c6.19,3.27 7.61,5.52 17.49,5.52l5.52 0c8.12,0 12.94,-2.45 16.83,-7.1 5.88,-7.04 2.19,-9.38 4.71,-19.22 1.92,-7.48 2.88,-11.72 5.54,-18.39 1.74,-4.35 7.72,-13.83 7.91,-16.02 -8.81,0 -18.67,-4.95 -19.39,-12.68l-3.63 -1.12c-11.72,7.84 -14.71,17.48 -35.9,17.48l-6.45 0c-0.39,4.74 -3.89,11.04 -9.21,11.04l-0.92 0c-2.49,0 -2.54,-0.44 -4.6,-0.92z"/>
   <path class="fil44" d="M264.2 341.61l2.58 -6.95 -12.7 -5.93c0.43,5.21 5.14,11.72 10.13,12.88z"/>
   <path class="fil29" d="M393.07 345.29l2.76 0 0.92 -31.28 -9.2 0 3.89 6.65 -4.81 4.39c4.59,8.66 5.39,7.52 6.45,20.24z"/>
   <path class="fil10" d="M596.51 65.56l40.51 0.08 0.92 3.6 0 35.89 0 264.08c-2.2,9.46 -14.92,6.44 -26.69,6.44 -10.74,0 -21.48,0 -32.22,0l-43.27 0 -10.13 0 -58.92 0 -71.8 0 -43.27 0 0 12.88 298.26 0 0 -336.77 -45.11 0c-2.75,0 -6.96,11.31 -8.28,13.8z"/>
   <path class="fil45" d="M393.07 345.29c-1.06,-12.72 -1.86,-11.58 -6.45,-20.24l4.81 -4.39 -3.89 -6.65 -1.84 -0.92 -0.92 4.6c-9.31,0 -20.25,9.61 -20.25,18.4 0,3.94 2.24,6.47 3.68,9.2l24.86 0z"/>
   <polygon class="fil46" points="396.75,314 395.83,345.29 404.12,345.29 405.04,312.16 "/>
   <polygon class="fil47" points="405.04,312.16 404.12,345.29 412.41,345.29 416.09,310.32 "/>
   <path class="fil48" d="M416.09 310.32l-3.68 34.96 31.3 0 0 -58.89c-12.82,8.58 -15.13,17.32 -27.62,23.92z"/>
   <path class="fil4" d="M125.19 325.97l-1.55 2.93 -0.3 -5.69c-7.35,8.45 -60.76,81.35 -56.15,89.25 16.75,-8.86 41.95,-24.74 65.36,-26.68 0,-12.01 19.55,-40.26 29.46,-40.49 1.83,7.83 11.66,19.1 17.49,23 -1.96,-7.35 -9.21,-7.35 -9.21,-23l0 -0.92c0,-14.6 12.64,-45.2 18.41,-54.29l0 -4.6 -11.48 8.9c-0.49,-7.2 3.9,-13.56 4.96,-20.02 1.39,-8.5 1.92,-12.74 1.92,-22.93 -12.37,8.28 -23.27,22.64 -32.47,34.71 -3.71,4.87 -25.46,36.16 -26.44,39.82z"/>
   <path class="fil49" d="M572.58 346.21c1.12,-4.79 7.08,-13.07 9.54,-18.06 2.2,-4.45 5.6,-16.18 7.17,-21.36 2.3,-7.61 10.05,-40.07 12.74,-44.31l0 -13.8c-6.78,0.57 -6.59,16.99 -10.12,23.93 -2.73,5.37 -2.53,6.65 -4.22,13.27 -1.43,5.62 -3.47,7.65 -5.78,11.71 -1.37,2.41 -2.46,9.25 -3.94,12.63 -2.3,5.27 -3.52,3.8 -5.8,11.69 -2.77,9.59 -9.8,14.08 -10.65,24.32l11.05 0z"/>
   <path class="fil10" d="M572.58 346.21l29.46 0 0 -83.73c-2.69,4.24 -10.44,36.7 -12.74,44.31 -1.57,5.17 -4.98,16.91 -7.17,21.36 -2.46,4.99 -8.42,13.27 -9.54,18.06z"/>
   <path class="fil50" d="M602.04 262.48l0 83.73 -29.46 0 -11.05 0c0.85,-10.24 7.88,-14.73 10.65,-24.32 2.28,-7.89 3.5,-6.42 5.8,-11.69 1.47,-3.38 2.57,-10.21 3.94,-12.63 2.31,-4.06 4.34,-6.09 5.78,-11.71 1.69,-6.62 1.49,-7.89 4.22,-13.27 3.53,-6.94 3.34,-23.37 10.12,-23.93l0 13.8zm-99.42 84.65l100.34 0 0 -99.38 -100.34 0 0 99.38z"/>
   <path class="fil16" d="M496.17 241.31l108.63 0c2.98,0 4.6,3.34 4.6,6.44l0 102.13c0,2.16 -1.53,3.68 -3.68,3.68l-105.86 0c-2.15,0 -3.68,-1.53 -3.68,-3.68l0 -108.58zm-13.81 2.76l0 38.64 0 77.29 139.92 0 0 -129.74 -92.05 0 -47.87 0 0 13.8z"/>
   <path class="fil51" d="M386.53 732.94l-8.19 0c-0.16,-11.01 -4.39,-17.16 -5.13,-27.69l-14.42 10.55c6.69,1.7 10.28,8.67 12.16,17.14l-6.78 0c-1.07,-6.83 -4.44,-15 -9.76,-15 -0.39,0 -15.51,7.34 -17.49,8.28 1.02,2.27 2.04,4.49 3.03,6.71l-5.41 0c-0.24,-1.54 -0.38,-3.15 -0.38,-4.87l-10.13 3.68c0.15,0.33 0.3,0.74 0.46,1.19l-4.97 0 -0.03 -0.28 -1.23 0.28 -32.69 0c6.54,-2.32 15.27,-5.12 21.87,-5.82 17.46,-1.88 9.17,-5.05 18.17,-14.04 8.61,-8.58 26.08,-21.09 36.42,-28.93 6.61,-5.02 12.01,-9.47 18.7,-14.43 5.9,-4.38 12.75,-10.92 17.87,-14.35 -2.56,9.59 -37.31,39.35 -46.03,46.93l-0.92 0.92 -23.4 17.91c14.99,-0.72 29.85,-11.97 36.29,-21.59 8.36,-5.6 20.66,-17.79 30.23,-24.99 5.29,-3.99 10.44,-7.94 15.98,-11.63 6.02,-4.02 10.54,-8.85 15.47,-12.14l2.76 -11.96c2.85,-4.09 9.69,-30.54 11.6,-38.1 1.79,-7.09 2.74,-13.21 4.44,-20.42 1.26,-5.37 4.87,-16.43 5.14,-19.7l-23.86 3.35c-3.94,1.99 -7.28,4.69 -11.71,7.1 -4.24,2.31 -9.33,2.72 -13.21,5.19 -8.34,5.58 -30.36,46.43 -38.3,58.33 -12.71,19.05 -28.72,36.66 -49.16,47.47 -12.31,6.52 -34.72,15.6 -49.53,19.5 -8.15,2.15 -17.38,6.18 -27.81,6.25 -9.01,0.06 -15,9.22 -24.84,9.22l-0.92 0c-3.96,0 -4.99,-1.08 -8.29,-1.84 -1.53,6.56 -8.43,13.8 -16.57,13.8l-2.76 0c-6.71,0 -17.04,-6.09 -20.93,-9.45 -4.81,-4.12 -12.31,-13.46 -14.97,-15.4 1,11.95 12.06,20.38 20.43,25.58 1.79,1.12 3.92,2.19 6.21,3.22l-17.56 0c-1.59,-2.19 -3.15,-4.38 -4.48,-6.7 -7.3,-12.74 -11.02,-22.43 -17.51,-36.05l-7.34 1.08c-2.06,0.35 -2.76,-0.94 -2.76,-2.76l0 -1.84c0,-6.84 3.12,-12.54 3.69,-19.33 -1.9,1.27 -2.39,2.77 -4.61,2.77l-2.76 0c-3.54,0 -11.94,-7.85 -13.8,-11.05 -2.95,-5.13 -5.53,-12.12 -5.53,-20.23 -4.91,-0.4 -62.87,-37.49 -67.9,-42.55 -5.61,-5.65 -7.87,-8.51 -12.37,-15.23 -2.3,-3.42 -9.57,-14.14 -10.9,-16.72 -0.26,-0.5 -10.09,-45.08 -10.09,-46.03l0 -4.61c0,-4.19 10.69,-24.68 12.9,-28.5 5.05,-8.73 13.73,-17.78 17.48,-24.86 -3.56,-15.29 -7.46,-26.51 -12.09,-40.37 -3.57,-10.72 -10.93,-28.96 -10.93,-42.44 0,-22.05 21.18,-54.48 18.24,-77.27l-2.59 -25.78 0 -13.8c0,-19.79 14,-55.43 22.26,-67.92 6.68,-10.09 11.79,-16.62 19.41,-25.7 5.5,-6.55 21.88,-16.75 24.62,-20.48 -10.52,0.88 -23.99,13.8 -34.98,13.8l-6.45 0c1.43,-5.37 15.3,-23.08 19.56,-27.38 7.21,-7.28 18.13,-14.93 27.01,-20.84 4.7,-3.13 28.71,-15.07 30.19,-17.67 7.1,-12.5 10.76,-18.31 18.23,-29.63 12.66,-19.14 38.45,-24.84 62.54,-32.27 9.5,-2.94 29.91,-5.93 41.31,-6.55 6.62,-0.36 15.55,-1.67 21.39,-2.54 6.18,-0.92 16.58,-4.61 19.11,-4.82l0 6.44c0,15.78 6.09,31.17 18.41,34.04l0.21 -8.31 -1.24 -8.24 94 -0.01c4.03,-17.3 39.7,-42.32 63.52,-42.32l1.86 -0.24 14.93 0.9 10.82 8.54c1.28,-4.79 7.72,-8.29 13.81,-8.29l2.77 0c8.05,0 12.6,5.02 17.49,8.29 3.26,-2.18 3.16,-5.52 6.44,-5.52l8.29 0c8.57,0 23.07,12.27 29.46,15.64 2.41,-1.62 5.61,-4.61 9.2,-4.61 3.48,0 23.63,8.61 27.31,10.44 6.29,3.13 19.46,10.07 19.64,18.09l30.38 0c2.15,0 4.6,2.46 4.6,4.6l0 344.14c0,2.48 -0.44,2.53 -0.92,4.6 -12.08,2.81 -60.57,0.96 -77.32,0.91 -12.46,-0.03 -8.88,-1.34 -10.81,8.52 -0.86,4.4 -2.95,10.83 -4.56,14.77 -3.01,7.45 -13.42,22.98 -14.08,25.36l8.28 1.03 1.84 0c7.1,0 13.28,-11.05 15.64,-11.05 3.6,0 7.36,10.8 7.36,14.72 0,16.57 -15.66,18.08 -23.62,32.52 -4.9,8.9 -16.5,27.44 -23.09,33.96 -4.85,4.79 -8.73,9.34 -14.2,13.42 -2.21,1.64 -15.17,12.01 -16.08,12.45 -5.29,2.53 -15.46,4.06 -21.89,6.64 -7.94,3.19 -13.49,4.6 -21.92,6.61 -8.37,1.99 -7.79,9.18 -9.38,18.23 -1.45,8.3 -3.38,16.56 -4.24,24.28 -1.66,14.95 -7.99,31.63 -12.09,44.96 -3.4,11.04 -1.24,10.33 -10.72,17.81 -5.36,4.24 -11.14,7.75 -16.92,11.6 -11.86,7.91 -22.07,16.82 -32.95,24.11 2.76,4.12 9.19,12.65 9.19,19.33l0 11.96c0,1.36 -0.04,2.68 -0.09,3.95zm-242.01 -43.52l23.93 0 -0.39 -2.32 27.18 24.41 0.82 -0.92c-0.74,3.16 -5.9,10.12 -9.2,10.12l-4.61 0c-11.28,0 -33.38,-22.98 -37.74,-31.29zm-48.79 -237.4c30.61,0 48.24,10.04 63.75,25.54 13.51,13.51 16.95,48.08 42.11,48.08 2.82,0 6.44,-0.72 6.44,-3.69l0 -6.44c11.83,0.98 23.95,12.5 28.86,21.41l-37.17 48.51 3.71 -24.84c-4.49,5.17 -17.75,49.05 -21.3,59.69 -3.85,11.55 -21.05,51.88 -21.05,60.84l-10.16 -0.36 -18.66 2.16 2.13 -15.6 0 -1.84c0,-3.27 -2.19,-3.6 -5.66,-3.7l1.05 -2.73c1.51,-6.44 21.99,-34.51 27.08,-42.88 5.99,-9.87 21.71,-34.84 21.71,-48.22 -0.99,0.73 -25.57,40.16 -29.08,45.45 -10.59,15.93 -21.48,27.22 -30.75,44.72 -5.61,-3.75 -10.13,-13.62 -10.13,-23 0,-2.28 30.41,-32.86 34.43,-38.28 5.04,-6.8 11.38,-12.97 16.75,-20.06 5.27,-6.94 9.89,-15.72 15.1,-21.72 1.77,-7.63 7.36,-11.09 7.36,-21.16l-4.6 7.36c-10.95,16.35 -21.01,32.39 -34.74,46.25 -4.16,4.21 -40.12,40.24 -41.66,40.24 -0.22,0 -44.4,-25.27 -47.87,-27.6 -15.14,-10.15 -27.65,-22.67 -37.75,-37.73 0,-15.44 -4.13,-37.98 -10.12,-46.92 10.18,-15.2 16.61,-34.16 29.21,-48.09 4.7,-5.19 14.05,-15.8 22.32,-16.33 7.27,-0.47 34.44,-1.76 38.69,0.93zm70.88 23.01c9.93,6.64 32.98,32.55 35.9,45.09 -9.56,-6.4 -14.5,-9.24 -20.81,-19.68 -3.14,-5.21 -14.96,-20.48 -15.09,-25.4zm-107.71 -39.56c5.49,-8.19 20.7,-18.91 29.82,-24.49 4.85,-2.96 32.33,-16.92 37.38,-16.92l6.45 0c27.65,0 64.79,25.64 82.84,37.72 0,15.87 9.25,38.03 18.42,44.03l16.56 1.06 2.81 0.53 36.77 -3.29 23.02 -7.36c2.37,4.48 3.88,16.56 7.36,16.56l3.68 0c1.05,-3.9 1.84,-1.61 1.84,-4.6l0 -14.72c7.97,-0.18 24.01,-10.16 29.46,-13.8 1.11,4.76 5.53,22.15 5.53,26.69 0,1.84 -3.76,18.76 -4.4,21.36 -2.79,11.15 0.94,12.6 -11.25,15.44 -12.02,5.77 -30.79,12.03 -45.83,14.92 -7.51,1.44 -16.18,4.42 -25.95,4.43 -13.33,0.01 -17.54,1.31 -27.64,3.66l-1.84 0.93c-1.16,-13.91 -19.16,-26.69 -34.07,-26.69 -2.1,0 -1.07,0.31 -3.68,0.93 -10.11,-19.11 -24.21,-33.58 -42.72,-44.72 -10.28,-6.18 -13.04,-12.09 -26.67,-17.51 -8.83,-3.51 -25.5,-6.79 -37.4,-6.79l-0.96 -0.57 -44.14 3.33c-2.64,0.24 -0.8,0.25 -3.97,0.71l8.57 -10.83zm220.94 -0.93c3.17,2.32 9.62,10.03 14.48,14.06 4.34,3.61 13.63,9.4 15.01,14.64l-27.65 4.43c1.72,-2.56 3.68,-3.18 3.68,-7.36l0 -4.61c0,-8.09 -2.98,-15.46 -5.52,-21.16zm82.85 -10.11c1.08,-1.55 0.13,-1.84 2.76,-1.84l6.45 0c8.79,0 23.82,11.38 28.77,16.33 8.33,8.33 12.66,17.17 12.66,33.36 -4.96,1.15 -11.69,1.03 -12.89,5.52l5.52 0c9.81,0 24.77,-3.75 36.82,-3.69 8.76,0.05 35.93,3.15 37.74,-3.64l-4.59 -0.96c3.93,-5.35 49.3,-17.9 62.62,-16.81l14.7 2.09 11.04 4.6c0.85,-0.56 2.76,-1.5 2.76,-2.76 0,-1.78 -1.25,-2.99 -1.84,-5.52 9.44,-0.78 8.22,-6.85 12.89,-7.36l0 6.44c0,14.18 -39.49,35.82 -51,42.88 -14.26,8.74 -56.16,19.6 -57.63,37.17 4,-0.09 33.14,-18.24 41.79,-21.72 11.35,-4.56 36.3,-20.94 41.98,-22.45 -11.92,22.53 -30.56,36.83 -51.36,50.8 -11.13,7.46 -62.46,20.05 -82.12,20.05 -5.13,3.43 -4.87,4.71 -11.96,7.38 -7.01,2.63 -6.81,2.34 -11.77,7.56 -5.66,5.93 -11.28,16.3 -16.03,23.54 -10.65,16.22 -19.54,32.62 -31.8,47.35 -11.49,13.82 -24.95,28.1 -42.88,35.35 -10.82,4.38 -48.7,18.7 -59.59,19.59l0.96 -4.59c-9.45,2.2 -21.53,16.57 -34.06,16.57l-0.92 0c-11.26,0 -33.55,-23.42 -43.07,-26.03l17.29 -47.58c1.02,-12.18 8.1,-30.45 13.63,-38.83 2.38,-3.6 21.98,-27.83 24.12,-29.26 2.68,-5.07 19.65,-19.84 25.21,-23.56 7.77,-5.2 30.72,-4.58 41.92,-6.88 25.46,-5.21 54.49,-13.45 72.01,-25.77l3.55 -34.89 0.53 -1.91 -3.29 -20.17c-2.08,-4.34 -3.25,-8.18 -5.88,-12.52 -1.46,-2.4 -7.93,-9.69 -7.93,-11.4l0 -2.76c0,-6.3 3.44,-12.19 6.45,-15.64l-0.92 0.23 3.67 13.81 1.04 -0.11 2.65 -1.97zm-19.33 1.84l0 6.44c0,5.06 3.25,8.79 8.04,9.32l2.21 4.81 -28.86 10.74 -1.64 -18.43c1.17,0.79 3.98,3.68 4.6,3.68 3.04,0 19.81,-38.81 21.65,-40.29l3.2 7.17c-3.41,2.29 -9.2,11.38 -9.2,16.56zm219.09 -27.6l1.84 -0.93c0,18.88 -14.48,35.22 -21.21,47.43l-33.1 3.19c-17.98,0.4 -42.47,15.64 -50.64,15.64l-11.05 0.92c-14.54,-9.74 -37.74,-43.91 -37.74,-67.18l7.37 0 23.01 0c7.23,13.65 32.98,33.13 53.4,33.13l8.28 0c17.62,0 44.31,-19.79 47.87,-33.13l5.52 0c-2.54,9.5 -15.4,21.38 -23.19,26.52 -8.14,5.38 -27.23,8.59 -38.49,11.22 2.81,2.45 7.72,3.67 12.88,3.67l3.68 0c12.85,0 26.37,-6.5 32.92,-13.1 4.05,-4.08 7.42,-7.48 10.55,-12.46 2.08,-3.3 6.64,-13.26 8.08,-14.92zm-115.07 -0.93l94.82 0c-4.79,9.06 -22.97,22.08 -36.83,22.08l-11.04 0c-13.94,0 -39.17,-15.32 -46.95,-22.08zm-94.03 0.1l48.01 -0.1c0,10.52 9.97,30.91 13.8,38.65 2.74,5.54 6.18,11.06 9.96,15.82 3.47,4.35 11.15,10.76 13.06,13.62l-12.89 0c-0.41,-17.95 -32.02,-50.6 -51.55,-50.6l-2.76 0c-4.06,0 -6.56,1.36 -9.33,2.78l-2.51 -11.46 -5.79 -8.71zm-188.58 -32.3c5.81,3.89 14.16,12.66 21.55,18.04 4.66,3.38 20.17,12.74 26.33,13.25l0 6.44c0,14.21 22.73,26.49 32.41,32.93 15.27,10.18 23.71,17.22 33.88,32.45l-34.99 1.78 -3.68 0c-4.76,0 -13.71,-20.43 -15.77,-25.63 -5.52,-13.84 -2.39,-17.89 -15.7,-26.64 -20.19,-13.25 -32.87,-18.06 -55.06,-28.7 -2.7,-0.63 -8.19,-2.76 -10.13,-2.76l-2.76 0c0.59,-7.17 12.45,-29.19 16.24,-31.98l7.69 10.82zm220.95 -52.45l9.65 -63.42 48.33 -0.07 0 36.8 0 58.89 -31.3 0 -8.28 0 -8.29 0 -2.76 0 -24.85 0c-1.45,-2.73 -3.69,-5.26 -3.69,-9.2 0,-8.79 10.95,-18.4 20.25,-18.4l0.93 -4.6zm-118.94 21.57l-2.58 6.96c-4.98,-1.16 -9.69,-7.68 -10.13,-12.88l12.71 5.92zm54.5 -16.05c12.22,-2.85 31.64,-28.96 42.34,-36.81l5.48 1.14c-3.7,15.82 -13.05,43.95 -31.26,43.95l-1.84 0c-6.94,0 -11.93,-4.11 -14.73,-8.28zm-36.82 -32.21c3.67,-5.02 59.94,-3.68 72.72,-3.68 -2.15,2.93 -35.82,30.36 -40.5,30.36 -2.07,0 -20.56,-23.97 -32.22,-26.68zm58.92 -53.37c1.06,1.45 2.13,2.76 4.6,2.76 0.59,0 2.66,-2.07 3.68,-2.76 -0.66,2.45 -2.59,5.52 -5.52,5.52 -3.38,0 -4.45,-1.42 -6.45,-2.76l0 -1.84c-1.46,-1.67 -2.76,-3.27 -2.76,-6.43 0,-1.7 2.11,-2.35 3.68,-2.77l2.76 8.28zm-7.37 -32.21l0.04 0.96 26.66 -0.97 0 7.37c-4.53,-0.37 -3.37,-1.84 -7.37,-1.84l-6.44 0c-6.45,0 -9.18,3.04 -12.89,5.52l0 -11.04zm167.54 -24.84l0 -48.77 0 -23 13.8 -1.13 2.78 0.21c4.78,0 9.94,5.52 17.49,5.52l8.29 0c2.95,0 4.35,-2.55 4.6,-5.52l52.47 0 0 80.05 0 18.4 -87.45 0 -11.97 0 0 -25.76zm-120.59 -40.49c0.71,-4.62 -13.08,-26.54 -15.65,-30.36l77.33 0 0 95.7 -58.91 0c-4.32,0 -5.53,-14.11 -5.53,-19.33l0 -23.92 2.76 -22.08zm171.45 -44.96l15.05 6.34 0.37 -0.94 0 0.92 -18.73 -0.17 3.31 -6.15zm-95.04 -24.97l-1.84 4.6 -1.84 11.04 11.05 12.89 17.49 9.2 11.98 1.7 -0.01 99.52c0,2.14 2.46,4.6 4.6,4.6l104.02 0c2.49,0 2.54,-0.44 4.6,-0.93 0.49,-2.06 0.93,-2.12 0.93,-4.6l0 -100.3c0,-3.38 -1.43,-4.45 -2.76,-6.44l-32.22 0 1 -0.12 -1.65 -13.72 6.17 -1.81c7.72,-6.71 8.93,-7.9 15.65,-15.64 1.32,-2.49 5.53,-13.8 8.28,-13.8l45.11 0 0 336.77 -299.18 0.92 0 -11.96c0,-8.17 -2.64,-12.16 -2.76,-17.48l-3.65 -8.29c5.29,0.45 7.99,3.69 15.62,3.69l4.61 0c4.17,0 4.52,-2.25 8.31,-2.73 2.69,-0.35 8.05,-0.03 11.02,-0.03 7.06,0 14.11,0 21.18,0 14.42,0 28.84,0 43.26,0 1.12,-1.67 1.84,-1.62 1.84,-3.68l0 -105.82 -55.23 0 0.92 -12.88 -6.44 -15.64 -3.18 -6.27 61.18 -0.18c3.82,0 3.68,-8.8 3.68,-12.88l0 -96.62 -88.37 -1.02c-4.57,-6.72 -7.87,-13.7 -19.33,-13.7l-0.92 -1.84 -1.84 -2.76 -13.81 -10.12 -12.62 -6.09 -0.27 -12.32 81.93 0c0,6.55 1.53,11.12 5.53,13.8l1.84 0 11.28 -8.92c4.8,2.38 7.51,5.23 15.41,5.23l6.45 0c12.39,0 19.91,-9.19 22.09,-9.19l6.45 0 -5.52 13.8zm91.14 10.12c-2.16,-2.48 -6.45,-8.65 -6.45,-12.88 0,-7.96 28.88,-40.49 33.14,-40.49 5.48,0 19.76,8.21 23.01,11.05l13.37 9.52 -8.77 0.59 0 -4.6c0,-2.63 -0.29,-1.68 -1.84,-2.76 -2.86,2.1 -4.76,11.19 -7.16,14.93 -3.11,4.83 -5.72,7.66 -9.04,12.13 -5.51,7.42 -22.97,14.96 -23.39,19.88l4.57 -1.13 1.98 9.38c-5.64,-1.27 -16.58,-11.36 -19.43,-15.62zm-276.17 82.81l1.84 0c5.97,-5.19 11.3,-6.06 15.66,-14.7 2.61,-5.18 6.27,-15.52 5.51,-23.94l-0.92 -13.8c-0.24,-0.38 -6.42,-23.93 -7.65,-27.32 -2.83,-7.71 -5.23,-19.56 -5.23,-29.74l8.28 10.12 7.37 5.52 22.09 9.2 4.6 2.76 12.68 8.57 -9.91 36.52c0,5.9 -5.26,19.56 -7.72,23.56 -2.18,3.52 -12.87,15.24 -12.54,16l13.82 -5.52c8.5,-12.69 9.4,-13.67 14.36,-30.74 1.85,-6.36 6.3,-32.08 6.81,-38.28 4.9,3.28 20.84,29.87 25.59,36.99 17.81,26.69 3.87,17.07 3.87,46.74l0 11.97c0,23.63 16.57,46.28 16.57,51.52l0 12.88c0,14.91 -4.81,36.71 -7.72,50.24 -2.42,11.16 -3.39,12.75 -10.86,18.6 -3.59,2.81 -11.8,11.1 -11.8,16.73l0 3.68c0,5.71 2.64,8.24 4.61,11.95 -2.06,0.48 -2.11,0.93 -4.61,0.93l-2.76 0c-5.09,0 -11.74,-6.23 -16.57,-7.36 4.63,-6.92 3.14,-7.84 10.68,-12.32 4.19,-2.49 9.01,-7.29 12.1,-10.92 6.03,-7.09 11.28,-20.83 11.28,-33.81 0,-6.08 -14.45,-39.36 -17.49,-45.09l1.06 -15.64c2.93,-1.63 9.07,-11.61 9.07,-13.8l0 -5.51c0,-9.77 -8.3,0.29 -8.31,-18.38 -0.01,-9.42 0.94,-15.87 0.94,-25.79 0,-6.25 -6.19,-18.4 -11.96,-18.4 -1.95,0 -1.22,0.33 -3.68,0.92l-0.92 4.6c1.93,7.23 8.35,4.97 8.28,23 -0.04,11.1 0.11,19.98 4.6,26.69l-24.89 -1.29 2.98 4.63 0.75 -0.58c-0.58,2.49 -2.76,12.64 -2.76,14.72l0 2.76 3.68 -0.93c2.85,-2.47 10.43,-6.43 15.65,-6.43l4.6 0c3.17,0 3.57,0.68 6.44,0.92l-3.82 8.21c-4.15,-1.08 -2.86,-3.62 -8.15,-3.62l-4.6 0c-3.18,0 -8.4,6.51 -11.04,8.28l-6.63 10.92c5.27,-0.31 5.12,-2.61 7.55,-5.4 -0.83,9.9 -6.52,12.1 -10.13,17.48 2.42,1.21 -0.76,0.92 2.76,0.92 2.18,0 4.1,-1.81 5.52,-2.77l1.09 -2.69c4.61,1.21 3.18,4.53 10.88,4.53l0.92 0c4.33,0 6.59,-2.86 9.2,-4.6 0,17.47 9.79,27.04 12.9,38.65 -5.36,-1.25 -11.63,-14.12 -15.41,-18.66 -5.28,-6.34 -10.05,-11.78 -16.82,-16.31l-1.84 0.92 23.67 31.72 -0.69 0.63 -16.5 -2.33 -31.35 0.34 -36.84 4.49 3.24 -14.49c-4.29,2.45 -7.83,7.47 -7.83,13.69 0,2.38 0.61,0.95 0.92,4.6l1.97 2.64c12.96,0.11 34.11,18.83 39.45,26.79 -9.36,6.28 -15.1,13.81 -31.29,13.81 -30.26,0 -38.73,-32.21 -51.55,-32.21 -3.47,0 -1.74,0.61 -5.53,0.92l-3.22 3.22 6.91 0.47c5.75,0 10.06,8.12 12.88,11.96 3.43,4.65 8.47,9.02 11.05,12.89 0,12.21 4.73,13.55 9.21,20.23 2.06,0.48 2.11,0.92 4.6,0.92l0.92 0c5.31,0 8.81,-6.31 9.2,-11.04l6.45 0c21.19,0 24.18,-9.63 35.9,-17.48l3.63 1.12c0.71,7.73 10.58,12.68 19.39,12.68 -0.19,2.19 -6.17,11.67 -7.9,16.03 -2.66,6.67 -3.63,10.91 -5.54,18.39 -2.52,9.83 1.17,12.18 -4.71,19.22 -3.88,4.65 -8.72,7.1 -16.83,7.1l-5.52 0c-9.88,0 -11.3,-2.25 -17.49,-5.53 -8.25,-0.68 -16.55,-14.18 -22.33,-20.01 -8.09,-8.16 -14.67,-11.71 -24.43,-17.9 -15.28,-9.71 -41.62,-20.19 -41.62,-43.97 0,-5.08 1.84,-6.16 2.76,-10.12l-1.84 1.84c-1.18,2.24 -4.6,11.78 -4.6,14.72l0 2.75c0,10.1 12.16,24.35 18.95,28.92 6.18,4.15 8.78,5.2 16.01,7.92 8.76,3.29 8.88,3.52 15.93,8.93 11.31,8.67 15.6,13.1 24.05,24.73 6.49,8.93 18.25,16 32.77,16l11.96 0c6.35,0 20.12,-11.31 23.02,-15.64 0,-21.42 0.81,-23.27 4.6,-39.57 4.96,5.71 9.21,23.5 9.21,34.97l0 1.84c0,12.52 -3.25,20.24 -7.37,28.53 -1.55,3.14 -12.05,20.98 -13.81,23l-1.15 -0.46 8.51 -19.78c-14.56,0.33 -13.81,28.69 -13.81,45.09 -3.38,-2.26 -22.54,-17.03 -24.49,-19.69 -1.54,-2.1 -20.11,-24.11 -20.92,-24.41l2.14 9.14c-4.41,-2.95 -4.82,-7.69 -11.97,-8.28 4.82,7.2 13.82,20.68 13.82,32.21 -4.28,-2.86 -8.81,-8.48 -13.79,-11.97 -4.93,-3.47 -10.65,-7.38 -16.04,-10.66 -8.51,-5.18 -27.25,-14.13 -27.25,-26.13l0 -3.68c0,-4.33 2.61,-9.21 3.35,-14.05l-7.03 10.38c-6.15,-0.52 -32.98,-19.57 -35.9,-23.93 -5.83,-3.9 -15.66,-15.17 -17.48,-23 -9.91,0.22 -29.46,28.47 -29.46,40.48 -23.41,1.95 -48.61,17.83 -65.36,26.69 -3.16,4.3 -13.2,10.47 -18.04,16.91 -6.34,8.43 -6.93,15.59 -11.41,22.64l-5.53 -23 -10.13 -27.61 0 -1.84c-2.23,-3.51 -5.52,-16.52 -5.52,-22.08l0 -4.6c0,-15.72 11.96,-30.66 11.96,-58.89 5.41,6.22 3.75,32.02 7.37,39.56 4.39,-3.21 22.91,-44.86 27.31,-53.67 5.89,-11.84 31.33,-44.25 32.53,-49.38 -7.11,4.76 -25.04,25 -30.77,32.74 -4.34,5.87 -8.73,12.47 -12.21,19.08 -1.95,3.71 -8.61,20.46 -10.42,21.8 -1.64,-19.73 -10.12,-32.6 -10.12,-57.98 0,-7.99 -0.19,-14.06 1.11,-20.96 0.95,-5.07 5.06,-10.7 6.25,-15.83 9.89,-20.6 13.8,-30.51 26.32,-49.15 4.49,-6.7 11.97,-14.4 17.64,-20.09 2.91,-2.92 19.57,-15.7 19.57,-18.17 0,-1.12 -1.91,-2.76 -3.69,-2.76l-5.52 0c-12.15,0 -24.01,9.83 -33.14,11.95 4.1,-15.36 37.36,-35.23 52.16,-42.63 11.24,-5.62 20.63,-9.82 32.64,-14.3 13.28,-4.95 21.92,-6.48 33.02,-13.92 -0.47,2.06 -0.92,2.11 -0.92,4.6l0 3.68c0,11.92 22.39,21.6 30.55,27.43 15.48,11.06 16.4,16.51 16.4,41.58 2.93,-2.14 6.45,-8.56 6.45,-13.8l0 -3.68c0,-31.7 -49.71,-36.71 -49.71,-54.29l0 -8.28c-10.25,2.39 -15.87,3.32 -24.97,6.32 -4.55,1.51 -19.38,7.19 -22.9,7.48 4.22,-18.08 25.49,-36.27 43.14,-42.46 17.68,-6.21 47.42,-14.59 71.01,-14.59l11.97 -1.84 11.97 -1.84 7.22 -3.97c-1.44,7.06 -3.54,13.05 -3.54,21.45l0 1.85c0,31.3 16.57,41.6 16.57,69.93l0 0.92c0,17.93 -17.84,36.92 -17.49,37.73zm261.44 -92.94c1.94,3.07 2.3,8.07 5.76,12.65 2.72,3.6 6,6.39 8.04,9.44l-6.25 5.77c-0.19,2.6 0.7,8.96 -2.03,8.96 -6.22,0 -27.18,-15.47 -30.38,-20.24 -2.14,-1.44 -6.44,-7.33 -6.44,-10.12 0,-9.29 24.24,-62.56 28.54,-62.56 10.29,0 22.62,11.07 30.38,12.88 -0.53,2.02 -14.56,15.94 -17.25,18.64 -6.88,6.9 -10.36,11.37 -10.36,24.61zm-40.51 -1.84c-0.23,2.88 -0.91,3.27 -0.91,6.44l0 4.61c0,8.08 13.57,17.61 16.57,22.08 -12.85,0 -44.59,-6.82 -43.26,-15.65l0.92 -8.27c5.53,-11.51 23.51,-63.49 34.98,-63.49l5.53 0c2.88,0 9.78,3.44 11.97,4.6 -5.02,7.49 -10.12,14.64 -14.43,23.31 -4.46,8.99 -7.22,17.77 -11.35,26.38zm-17.48 -36.81l-7.75 15.44 -6.06 0.2c0.78,-1.61 2.76,-6.16 2.76,-8.28l0 -3.68c-5.17,1.38 -10.75,22.08 -28.53,22.08l-10.13 0c-5.07,0 -10.47,-3.4 -15.65,-4.61 -0.39,4.67 -3.58,4.44 -7.36,6.44l0 -3.67c3.7,-7.72 4.74,-11.7 10.35,-18.18 3.8,-4.39 11.09,-11.22 13.58,-14.94 7.76,0 20.62,-9.2 31.3,-9.2l16.57 0c4.69,0 4.4,2.56 9.21,3.68l-8.28 14.72z"/>
   <polygon class="fil36" points="466.72,298.36 466.72,360.01 407.8,360.01 394.92,375.65 466.72,375.65 482.37,360.01 482.37,282.72 "/>
   <polygon class="fil52" points="525.63,375.65 535.76,375.65 535.04,374.03 547.73,360.93 497.1,360.93 484.93,374.54 "/>
   <polygon class="fil38" points="535.76,375.65 579.02,375.65 591.16,361.08 547.73,360.93 535.04,374.03 "/>
   <path class="fil23" d="M280.77 387.61l-15.65 -19.32c-2.29,-0.61 -15.76,-13.34 -19.7,-16.19 -7.28,-5.28 -13.98,-9.48 -21.06,-14.84 -8.98,-6.79 -11.12,-9.23 -17.99,-17.91 -2.9,-3.66 -5.68,-5.24 -7.46,-10.03 -1.52,-4.11 -1.47,-10.41 -3.76,-13.72 -0.93,3.97 -2.76,5.04 -2.76,10.12 0,23.78 26.34,34.27 41.62,43.97 9.76,6.19 16.34,9.75 24.43,17.91 5.78,5.83 14.08,19.33 22.32,20.02z"/>
   <path class="fil53" d="M153.73 389.45l11.05 -23.92 -7.69 -10.81c-3.79,2.79 -15.65,24.81 -16.24,31.97l2.76 0c1.94,0 7.42,2.13 10.13,2.76z"/>
   <path class="fil54" d="M649.91 388.53l-298.26 0 0 -12.88 43.27 0 12.89 -15.64 -59.84 0c0.12,5.31 2.76,9.31 2.76,17.48l0 11.96 299.18 -0.92z"/>
   <path class="fil11" d="M32.22 266.16c0,25.38 8.48,38.25 10.13,57.97 1.82,-1.33 8.47,-18.08 10.42,-21.79 3.47,-6.6 7.86,-13.2 12.21,-19.08 5.72,-7.74 23.66,-27.99 30.76,-32.74 -1.19,5.13 -26.64,37.53 -32.53,49.38 -4.39,8.82 -22.91,50.46 -27.31,53.68 -3.62,-7.55 -1.96,-33.35 -7.36,-39.56 0,28.23 -11.97,43.16 -11.97,58.89l0 4.6c0,5.57 3.29,18.57 5.52,22.08 0.45,-19.95 47.44,-68.12 60.53,-81.2 20.73,-20.72 51.46,-51.3 77.55,-65.1l-11.97 -7.36c-5.96,4.14 -12.09,6.6 -18.79,11.58 -6.16,4.58 -11.11,8.61 -16.87,13.5 -4.7,3.99 -29.64,25.45 -33.38,26.44 5.93,-8.86 19.65,-25.34 28.17,-31.65 6.16,-4.56 10.27,-8.68 17.12,-13.25 8.55,-5.71 11.6,-5.32 20.07,-9.39 -6.82,-10.18 -14.73,-10.78 -14.73,-30.37 0,-12.16 6.08,-24.45 12.89,-30.36 -36.32,0 -49.23,12.52 -69.96,27.61 -5.92,4.3 -18.8,19.23 -22.72,26.06 -3.18,5.53 -14.95,26.81 -17.79,30.07z"/>
   <path class="fil1" d="M447.38 397.74c7.79,6.76 33.01,22.08 46.95,22.08l11.05 0c13.86,0 32.03,-13.03 36.82,-22.08l-94.82 0z"/>
   <path class="fil0" d="M22.09 399.58l0 1.84c2.95,-1.07 10.94,-15.87 13.65,-19.48 5.02,-6.66 9.24,-12.13 14.64,-18.49 10.82,-12.74 20.47,-23.2 32.23,-34.96 9.06,-9.05 61.99,-62.24 69.27,-64.18l11.97 -10.12 -3.68 -0.92c-26.1,13.8 -56.83,44.38 -77.55,65.1 -13.09,13.08 -60.08,61.25 -60.53,81.2z"/>
   <path class="fil55" d="M179.51 368.29c2.92,4.36 29.75,23.41 35.9,23.92l7.03 -10.37c-0.74,4.84 -3.35,9.72 -3.35,14.05l0 3.68c0,12.01 18.74,20.95 27.25,26.13 5.39,3.28 11.11,7.19 16.04,10.66 4.98,3.5 9.52,9.12 13.79,11.98 0,-11.53 -8.99,-25.01 -13.81,-32.21 7.15,0.6 7.56,5.33 11.97,8.28l-2.14 -9.13c0.81,0.31 19.38,22.3 20.92,24.41 1.95,2.66 21.1,17.42 24.49,19.69 0,-16.4 -0.75,-44.76 13.81,-45.09l-8.51 19.78 1.15 0.46c1.76,-2.02 12.25,-19.86 13.81,-23 4.11,-8.29 7.36,-16.01 7.36,-28.53l0 -1.84c0,-11.46 -4.25,-29.26 -9.21,-34.97 -3.8,16.3 -4.6,18.14 -4.6,39.57 -2.9,4.33 -16.67,15.64 -23.01,15.64l-11.97 0c-14.52,0 -26.28,-7.07 -32.77,-16.01 -8.44,-11.63 -12.73,-16.05 -24.05,-24.73 -7.05,-5.4 -7.16,-5.63 -15.93,-8.92 -7.23,-2.72 -9.83,-3.77 -16.01,-7.92 -6.78,-4.56 -18.95,-18.81 -18.95,-28.91l0 -2.76c0,-2.95 3.42,-12.49 4.6,-14.72l-1.03 -7.36 -3.41 2.91 -0.16 -2.91c-5.77,9.09 -18.41,39.69 -18.41,54.29l0 0.92c0,15.65 7.24,15.65 9.21,23z"/>
   <path class="fil11" d="M22.09 401.42l10.13 27.61c0.51,-0.81 6.96,-23.1 8.65,-27.24 3.44,-8.41 7.97,-15.89 12.21,-23.68 7.94,-14.6 19.94,-28.23 29.94,-40.93 10.53,-13.37 23.73,-24.36 33.72,-37.14 8.28,-10.59 27.91,-24.9 35.15,-35.71 -7.28,1.94 -60.21,55.13 -69.27,64.18 -11.76,11.76 -21.41,22.22 -32.23,34.96 -5.4,6.36 -9.62,11.83 -14.64,18.49 -2.72,3.61 -10.71,18.41 -13.65,19.48z"/>
   <path class="fil2" d="M343.36 426.26c0,-5.19 5.79,-14.28 9.21,-16.56l-3.2 -7.17c-1.84,1.48 -18.62,40.3 -21.65,40.3 -0.61,0 -3.43,-2.9 -4.6,-3.68l1.64 18.42 28.86 -10.74 -2.21 -4.81c-4.8,-0.53 -8.04,-4.26 -8.04,-9.31l0 -6.44z"/>
   <path class="fil56" d="M509.98 448.34l33.1 -3.19c6.72,-12.21 21.21,-28.54 21.21,-47.42l-1.84 0.92c4.04,6.5 -14.24,27.73 -17.49,32.2 -11.59,15.96 -27.84,11.28 -34.98,17.48z"/>
   <path class="fil56" d="M459.35 463.99c-6.95,-13.13 -41.1,-51.61 -41.43,-66.25l-7.36 0c0,23.26 23.2,57.44 37.74,67.17l11.05 -0.92z"/>
   <path class="fil39" d="M459.35 463.99c8.17,0 32.65,-15.24 50.63,-15.64 7.14,-6.21 23.39,-1.52 34.98,-17.48 3.25,-4.48 21.53,-25.7 17.49,-32.2 -1.44,1.66 -6.01,11.62 -8.09,14.92 -3.13,4.98 -6.5,8.38 -10.55,12.46 -6.55,6.6 -20.06,13.1 -32.92,13.1l-3.68 0c-5.16,0 -10.07,-1.24 -12.89,-3.68 11.26,-2.62 30.35,-5.83 38.49,-11.21 7.79,-5.15 20.65,-17.02 23.18,-26.51l-5.52 0c-3.56,13.34 -30.25,33.13 -47.87,33.13l-8.28 0c-20.42,0 -46.17,-19.48 -53.39,-33.13l-23.01 0c0.33,14.64 34.47,53.12 41.43,66.25z"/>
   <path class="fil57" d="M58.91 435.46c6.47,4.1 22.04,0.92 31.3,0.92 41.17,0 72.25,13.96 96.11,31.83 4.35,3.26 12.64,11.19 15.83,15.46 2.27,3.02 11.87,18.08 13.35,18.86 9.86,5.22 11.21,5.42 19.01,13.2 2.93,2.92 4.88,4.81 6.99,8.66 2.13,3.9 3.49,11.03 4.28,12.28 10.1,-2.35 14.31,-3.65 27.64,-3.66 9.77,-0 18.45,-2.99 25.95,-4.43 15.04,-2.89 33.81,-9.15 45.83,-14.92 -17.1,-14.86 -33.31,-26.74 -52.47,-39.57l-2.76 0 -36.78 3.29 -2.81 -0.53 -16.56 -1.06c-9.17,-5.99 -18.42,-28.16 -18.42,-44.03 -18.05,-12.08 -55.19,-37.73 -82.85,-37.73l-6.44 0c-5.05,0 -32.52,13.96 -37.38,16.92 -9.13,5.57 -24.33,16.3 -29.82,24.48z"/>
   <path class="fil58" d="M359.14 406.55l2.51 11.45c2.77,-1.42 5.27,-2.78 9.33,-2.78l2.76 0c19.54,0 51.15,32.65 51.55,50.61l12.89 0c-1.92,-2.86 -9.59,-9.28 -13.06,-13.63 -3.79,-4.75 -7.21,-10.28 -9.96,-15.81 -3.84,-7.75 -13.81,-28.13 -13.81,-38.65l-48.01 0.1 5.79 8.71z"/>
   <path class="fil2" d="M279.85 434.54c2.54,5.7 5.52,13.07 5.52,21.16l0 4.6c0,4.18 -1.96,4.8 -3.68,7.36l27.65 -4.43c-1.39,-5.24 -10.67,-11.04 -15.01,-14.64 -4.85,-4.03 -11.31,-11.73 -14.47,-14.06z"/>
   <path class="fil39" d="M153.73 389.45c22.19,10.64 34.86,15.45 55.05,28.7 13.32,8.74 10.18,12.79 15.7,26.64 2.07,5.2 11.03,25.63 15.78,25.63l3.68 0 34.98 -1.78c-10.16,-15.22 -18.6,-22.27 -33.88,-32.45 -9.67,-6.44 -32.4,-18.72 -32.4,-32.94l0 -6.44c-6.16,-0.51 -21.67,-9.86 -26.33,-13.25 -7.39,-5.37 -15.73,-14.15 -21.54,-18.04l-11.05 23.92z"/>
   <path class="fil59" d="M362.69 424.42c12.05,8.06 19.73,17.82 27.01,30.97 8.62,15.58 0.51,32.52 26.38,32.52l9.21 0c8.34,0 11,-1.4 16.73,-2.6 5.44,-1.14 12.12,-0.15 18.64,-1.61 12.09,-2.71 21.27,-4.33 31.23,-9.27 8.95,-4.45 19.03,-8.88 28.34,-12.16 4.99,-1.75 27.63,-7.37 33.01,-7.49l-14.7 -2.09c-13.32,-1.1 -58.7,11.46 -62.62,16.81l4.59 0.95c-1.82,6.79 -28.97,3.69 -37.74,3.64 -12.05,-0.06 -27.01,3.68 -36.82,3.68l-5.52 0c1.2,-4.49 7.93,-4.37 12.89,-5.52 0,-16.19 -4.33,-25.03 -12.66,-33.35 -4.95,-4.95 -19.98,-16.33 -28.77,-16.33l-6.45 0c-2.63,0 -1.68,0.29 -2.76,1.84z"/>
   <path class="fil60" d="M289.97 474.11l2.76 0c19.16,12.82 35.37,24.71 52.47,39.57 12.19,-2.84 8.46,-4.29 11.25,-15.44 0.65,-2.6 4.4,-19.51 4.4,-21.36 0,-4.53 -4.41,-21.93 -5.52,-26.68 -5.44,3.64 -21.5,13.62 -29.46,13.8l0 14.72c0,2.99 -0.8,0.69 -1.84,4.6l-3.68 0c-3.49,0 -4.99,-12.08 -7.36,-16.56l-23.01 7.36z"/>
   <path class="fil61" d="M202.52 520.12c-2.92,-12.54 -25.97,-38.44 -35.9,-45.09 0.14,4.92 11.95,20.2 15.1,25.4 6.31,10.45 11.25,13.29 20.81,19.69z"/>
   <path class="fil40" d="M363.62 454.78c3.39,1.37 4.41,8.81 6.12,12.28 1.59,3.22 5.89,10.61 6.57,12.76 1.33,4.2 2.96,29.1 2.96,34.76 2.23,1.49 5.46,6.44 8.28,6.44l3.68 0c14.33,0 33.52,-10.6 46.09,-11.9 23.57,-2.44 30.33,-0.14 49.93,-8.06 7,-2.82 13.07,-5.59 19.65,-8.88 8.26,-4.13 12.14,-5.05 20.85,-8.6 17.62,-7.19 22.7,-12.2 36.53,-21.45l0 -2.76 -11.05 -4.6c-5.39,0.12 -28.02,5.73 -33.01,7.49 -9.32,3.27 -19.39,7.71 -28.34,12.16 -9.95,4.95 -19.14,6.57 -31.23,9.27 -6.52,1.46 -13.21,0.47 -18.64,1.61 -5.73,1.2 -8.39,2.6 -16.73,2.6l-9.21 0c-25.87,0 -17.75,-16.94 -26.38,-32.52 -7.28,-13.15 -14.97,-22.91 -27.01,-30.97l-2.65 1.97 -1.04 0.11 -3.67 -13.8 0.92 -0.25c-3,3.46 -6.45,9.34 -6.45,15.64l0 2.76c0,1.72 6.47,9 7.93,11.4 2.63,4.34 3.8,8.18 5.88,12.52z"/>
   <path class="fil60" d="M245.78 536.68c-0.79,-1.25 -2.15,-8.38 -4.28,-12.28 -2.11,-3.85 -4.07,-5.74 -6.99,-8.66 -7.8,-7.78 -9.15,-7.99 -19.01,-13.2 -1.48,-0.78 -11.08,-15.84 -13.35,-18.86 -3.2,-4.26 -11.48,-12.2 -15.83,-15.46 -23.86,-17.88 -54.94,-31.83 -96.11,-31.83 -9.26,0 -24.83,3.18 -31.3,-0.92l-8.57 10.83c3.17,-0.47 1.33,-0.48 3.97,-0.71l44.14 -3.33 0.97 0.57c11.9,0 28.58,3.28 37.39,6.79 13.63,5.42 16.39,11.33 26.67,17.51 18.51,11.13 32.61,25.61 42.72,44.71 2.61,-0.61 1.57,-0.92 3.68,-0.92 14.91,0 32.9,12.77 34.06,26.68l1.84 -0.92z"/>
   <path class="fil56" d="M182.27 533.92c0,10.06 -5.58,13.53 -7.36,21.16 4.03,-2.69 13.66,-17.28 13.43,-24.56l-6.06 3.4z"/>
   <path class="fil56" d="M177.66 541.28l-69.96 73.61c-5.19,-2.49 -6.57,-2.29 -11.99,-5.49 -3.63,-2.14 -7.21,-4.27 -10.85,-6.64 -7.01,-4.58 -13.94,-9.41 -20.58,-14.4 -14.91,-11.22 -26.91,-18.19 -33.8,-37.06 -2.17,-5.93 -5.22,-21.89 -5.63,-29.34 -0.83,-15.26 0.63,-15.04 6.44,-26.68 4.31,-8.63 27,-40.94 27.62,-43.25l36.82 0c-4.25,-2.69 -31.41,-1.41 -38.68,-0.94 -8.27,0.54 -17.62,11.14 -22.32,16.34 -12.61,13.94 -19.03,32.9 -29.21,48.09 5.99,8.95 10.13,31.47 10.13,46.93 10.09,15.05 22.6,27.57 37.74,37.73 3.47,2.33 47.65,27.6 47.87,27.6 1.55,0 37.51,-36.04 41.67,-40.24 13.72,-13.86 23.79,-29.9 34.74,-46.25z"/>
   <path class="fil60" d="M401.36 576.24l27.62 31.28 0 31.29c2.84,-4.09 9.69,-30.53 11.6,-38.09 1.79,-7.09 2.74,-13.22 4.43,-20.42 1.27,-5.38 4.87,-16.44 5.14,-19.7l-23.86 3.36c-3.94,1.99 -7.28,4.69 -11.71,7.1 -4.25,2.31 -9.33,2.73 -13.22,5.19z"/>
   <path class="fil56" d="M178.59 567.96c0,13.38 -15.72,38.36 -21.72,48.22 -5.09,8.37 -25.57,36.43 -27.07,42.87 12.28,-3.28 25.58,-32.38 32.59,-43.8 4.54,-7.39 23.57,-44.27 23.57,-52.82l0 -2.76 -0.81 -0.61 -6.55 8.89z"/>
   <path class="fil40" d="M223.69 567.96c-2.14,1.43 -21.74,25.66 -24.11,29.26 -5.54,8.38 -12.61,26.64 -13.63,38.83 0,7.84 -3.68,15.39 -3.68,23l0 3.68c0,3.65 25.31,16.56 30.38,16.56 0.03,0 15.64,-11.96 17.86,-13.44 6.63,-4.42 12.15,-8.11 19.28,-12.01 13.71,-7.51 26.15,-15.39 40.19,-22.4 11.99,-5.99 29.37,-15.65 36.82,-25.76 3.28,-4.45 24.9,-34.57 26.81,-35.92l-1.03 -3.65c2.71,-1.98 6.44,-12.69 6.44,-17.48l0 -1.84c0,-6.29 -4.05,-12.88 -10.13,-12.88l-5.52 0c-15.27,0 -93.33,26.06 -104.94,32.21 -1.3,-0.64 -1.53,-0.92 -3.68,-0.92 -4.39,0 -7.16,1.85 -11.05,2.76z"/>
   <path class="fil14" d="M177.66 541.28l4.6 -7.36 6.06 -3.4c0.23,7.28 -9.4,21.87 -13.43,24.56 -5.22,6 -9.83,14.78 -15.1,21.72 -5.38,7.08 -11.71,13.26 -16.76,20.06 -4.01,5.41 -34.43,36 -34.43,38.28 0,9.39 4.52,19.25 10.13,23 9.27,-17.5 20.15,-28.79 30.75,-44.72 3.52,-5.29 28.09,-44.73 29.09,-45.45l6.55 -8.89 0.81 0.61 0 2.76c0,8.55 -19.03,45.42 -23.57,52.82 -7,11.42 -20.3,40.52 -32.59,43.8l-1.05 2.74c3.47,0.1 5.65,0.43 5.65,3.71l0 1.84 -2.13 15.6 18.66 -2.16 10.17 0.36c0,-8.96 17.2,-49.29 21.05,-60.85 3.55,-10.64 16.8,-54.52 21.29,-59.69l-3.7 24.84 37.17 -48.52c-4.91,-8.91 -17.04,-20.43 -28.86,-21.41l0 6.44c0,2.96 -3.63,3.68 -6.45,3.68 -25.17,0 -28.6,-34.56 -42.11,-48.08 -15.51,-15.5 -33.13,-25.53 -63.75,-25.53l-36.82 0c-0.62,2.31 -23.3,34.62 -27.62,43.25 -5.82,11.64 -7.27,11.43 -6.44,26.68 0.4,7.45 3.46,23.41 5.63,29.34 6.89,18.87 18.9,25.84 33.8,37.06 6.63,4.99 13.56,9.82 20.58,14.4 3.64,2.37 7.22,4.5 10.85,6.64 5.42,3.2 6.81,3.01 11.99,5.49l69.96 -73.61z"/>
   <path class="fil57" d="M313.91 682.06c2.96,1.84 23.56,-7.34 28.91,-8.83 9.2,-2.56 7.13,-0.18 14.51,-5.73 4.02,-3.03 7.63,-5.57 11.65,-8.6 7.74,-5.84 15.83,-10.29 23.56,-16.02 5.14,-3.81 17.68,-16.03 24.47,-16.03l0.92 0c2.15,0 4.6,2.46 4.6,4.6l0 0.92c0,9.23 -23.05,32.69 -29.23,38.87 -7.18,7.18 -35.75,27.75 -37.97,31.06l-2.76 0 -0.92 0.92 0.35 2.5 12.53 -6.18c8.37,-5.6 20.65,-17.79 30.23,-25 5.3,-3.99 10.45,-7.94 15.98,-11.63 6.02,-4.02 10.55,-8.85 15.47,-12.14l2.76 -11.96 0 -31.29 -27.62 -31.28c-8.33,5.58 -30.36,46.44 -38.3,58.34 -12.71,19.05 -28.72,36.67 -49.16,47.48z"/>
   <path class="fil0" d="M564.29 459.38l0 2.76c-13.83,9.26 -18.91,14.27 -36.53,21.45 -8.71,3.55 -12.6,4.47 -20.85,8.6 -6.58,3.29 -12.66,6.06 -19.65,8.88 -19.6,7.92 -26.36,5.62 -49.93,8.06 -12.57,1.3 -31.77,11.9 -46.09,11.9l-3.68 0c-2.83,0 -6.05,-4.95 -8.28,-6.44 0,-5.67 -1.64,-30.56 -2.96,-34.76 -0.68,-2.15 -4.98,-9.54 -6.57,-12.76 -1.71,-3.47 -2.73,-10.92 -6.12,-12.28l3.29 20.17 -0.53 1.91 -3.54 34.89c-17.52,12.32 -46.55,20.56 -72.01,25.77 -11.19,2.29 -34.15,1.67 -41.91,6.87 -5.56,3.72 -22.53,18.5 -25.22,23.56 3.89,-0.91 6.66,-2.76 11.05,-2.76 2.16,0 2.38,0.28 3.68,0.92 11.61,-6.14 89.67,-32.21 104.94,-32.21l5.52 0c6.07,0 10.13,6.59 10.13,12.88l0 1.84c0,4.79 -3.74,15.5 -6.44,17.48l1.03 3.65c-1.9,1.35 -23.53,31.47 -26.81,35.92 -7.46,10.12 -24.83,19.77 -36.82,25.76 -14.04,7.01 -26.48,14.89 -40.19,22.4 -7.12,3.9 -12.65,7.6 -19.28,12.01 -2.22,1.48 -17.83,13.44 -17.86,13.44 -5.07,0 -30.38,-12.91 -30.38,-16.56l0 -3.68c0,-7.61 3.68,-15.17 3.68,-23l-17.29 47.59c9.52,2.61 31.82,26.02 43.07,26.02l0.92 0c12.54,0 24.62,-14.36 34.06,-16.56l-0.95 4.59c10.89,-0.89 48.77,-15.22 59.59,-19.59 17.93,-7.25 31.39,-21.53 42.88,-35.35 12.25,-14.73 21.15,-31.14 31.8,-47.35 4.75,-7.23 10.37,-17.61 16.03,-23.54 4.96,-5.21 4.76,-4.93 11.77,-7.56 7.09,-2.66 6.82,-3.94 11.95,-7.37 19.66,0 70.99,-12.58 82.12,-20.05 20.81,-13.97 39.44,-28.27 51.36,-50.8 -5.68,1.52 -30.63,17.89 -41.98,22.45 -8.66,3.48 -37.79,21.63 -41.79,21.72 1.46,-17.57 43.37,-28.43 57.63,-37.17 11.51,-7.05 51,-28.7 51,-42.88l0 -6.44c-4.67,0.51 -3.45,6.58 -12.89,7.36 0.59,2.53 1.84,3.74 1.84,5.52 0,1.26 -1.92,2.2 -2.76,2.76z"/>
   <path class="fil62" d="M144.52 689.42c4.37,8.3 26.47,31.29 37.74,31.29l4.6 0c3.3,0 8.47,-6.96 9.21,-10.12l-0.83 0.92 -27.18 -24.41 0.39 2.32 -23.93 0z"/>
   <path class="fil63" d="M351.65 703.22l-23.4 17.91c14.98,-0.72 29.85,-11.98 36.28,-21.59l-12.53 6.18 -0.35 -2.5z"/>
   <path class="fil64" d="M253.96 732.94c-3.68,-6.93 -16.32,-16.29 -22.9,-16.84 2.93,4 11.58,10.71 14.61,16.84l8.29 0z"/>
   <path class="fil65" d="M358.79 715.8c6.69,1.7 10.29,8.67 12.16,17.14l7.39 0c-0.16,-11.02 -4.39,-17.15 -5.13,-27.69l-14.42 10.55z"/>
   <path class="fil60" d="M245.67 732.94c-3.03,-6.13 -11.68,-12.83 -14.61,-16.84 6.58,0.55 19.22,9.91 22.9,16.84l31.61 0c6.54,-2.32 15.27,-5.12 21.87,-5.82 17.46,-1.88 9.17,-5.05 18.17,-14.04 8.61,-8.58 26.08,-21.09 36.42,-28.93 6.61,-5.02 12.01,-9.47 18.7,-14.43 5.9,-4.38 12.75,-10.92 17.87,-14.35 -2.56,9.59 -37.31,39.35 -46.03,46.93l2.76 0c2.22,-3.31 30.79,-23.87 37.98,-31.06 6.18,-6.18 29.23,-29.64 29.23,-38.88l0 -0.92c0,-2.15 -2.47,-4.6 -4.61,-4.6l-0.92 0c-6.79,0 -19.34,12.22 -24.47,16.02 -7.72,5.73 -15.81,10.17 -23.56,16.02 -4.01,3.03 -7.62,5.57 -11.65,8.6 -7.38,5.55 -5.32,3.18 -14.52,5.73 -5.35,1.49 -25.95,10.66 -28.91,8.82 -12.31,6.52 -34.72,15.6 -49.53,19.5 -8.15,2.15 -17.38,6.18 -27.81,6.25 -9.01,0.06 -15,9.22 -24.84,9.22l-0.92 0c-3.96,0 -4.99,-1.08 -8.29,-1.84 -1.53,6.56 -8.43,13.8 -16.57,13.8l-2.76 0c-6.71,0 -17.04,-6.09 -20.93,-9.45 -4.81,-4.12 -12.31,-13.46 -14.97,-15.4 1,11.95 12.06,20.38 20.43,25.58 1.79,1.12 3.92,2.19 6.21,3.22l71.74 0z"/>
   <path class="fil66" d="M336.92 726.22c1.02,2.27 2.05,4.48 3.04,6.71l24.21 0c-1.06,-6.83 -4.44,-15 -9.76,-15 -0.39,0 -15.51,7.34 -17.49,8.28z"/>
   <path class="fil65" d="M334.54 732.94c-0.24,-1.54 -0.38,-3.15 -0.38,-4.87l-10.13 3.68c0.15,0.33 0.31,0.74 0.47,1.19l10.04 0z"/>
   <polygon class="fil66" points="319.52,732.94 319.49,732.66 318.26,732.94 "/>
  </g>
 </g>
</svg>
