<?xml version="1.0" encoding="UTF-8"?>
<!DOCTYPE svg PUBLIC "-//W3C//DTD SVG 1.1//EN" "http://www.w3.org/Graphics/SVG/1.1/DTD/svg11.dtd">
<!-- Creator: CorelDRAW 2017 -->
<svg xmlns="http://www.w3.org/2000/svg" xml:space="preserve" width="232.624mm" height="18.0876mm" version="1.1" style="shape-rendering:geometricPrecision; text-rendering:geometricPrecision; image-rendering:optimizeQuality; fill-rule:evenodd; clip-rule:evenodd"
viewBox="0 0 2316 180"
 xmlns:xlink="http://www.w3.org/1999/xlink">
 <defs>
  <style type="text/css">
   <![CDATA[
    .fil0 {fill:#FEFEFE}
    .fil1 {fill:#009846}
    .fil3 {fill:#FEFEFE;fill-rule:nonzero}
    .fil2 {fill:#009846;fill-rule:nonzero}
   ]]>
  </style>
   <mask id="id0">
  <linearGradient id="id1" gradientUnits="userSpaceOnUse" x1="-451" y1="-169" x2="5576" y2="1829">
   <stop offset="0" style="stop-opacity:1; stop-color:white"/>
   <stop offset="1" style="stop-opacity:0; stop-color:white"/>
  </linearGradient>
    <rect style="fill:url(#id1)" width="2316" height="180"/>
   </mask>
   <mask id="id2">
  <linearGradient id="id3" gradientUnits="userSpaceOnUse" x1="1132" y1="-207" x2="1916" y2="387">
   <stop offset="0" style="stop-opacity:1; stop-color:white"/>
   <stop offset="1" style="stop-opacity:0; stop-color:white"/>
  </linearGradient>
    <rect style="fill:url(#id3)" x="732" width="1585" height="180"/>
   </mask>
   <mask id="id4">
  <linearGradient id="id5" gradientUnits="userSpaceOnUse" x1="1267" y1="-207" x2="1962" y2="387">
   <stop offset="0" style="stop-opacity:1; stop-color:white"/>
   <stop offset="1" style="stop-opacity:0; stop-color:white"/>
  </linearGradient>
    <rect style="fill:url(#id5)" x="894" width="1422" height="180"/>
   </mask>
   <mask id="id6">
  <linearGradient id="id7" gradientUnits="userSpaceOnUse" x1="1486" y1="-207" x2="2036" y2="387">
   <stop offset="0" style="stop-opacity:1; stop-color:white"/>
   <stop offset="1" style="stop-opacity:0; stop-color:white"/>
  </linearGradient>
    <rect style="fill:url(#id7)" x="1158" width="1158" height="180"/>
   </mask>
 </defs>
 <g id="Слой_x0020_1">
  <metadata id="CorelCorpID_0Corel-Layer"/>
  <polygon class="fil0" style="mask:url(#id0)" points="0,180 2316,180 2316,0 0,0 "/>
  <path class="fil1" d="M207 38l-61 0 -11 79 -11 0 0 21 15 0c12,0 18,-7 20,-19l8 -62 17 0 0 81 24 0 0 -101z"/>
  <path class="fil1" d="M381 59l30 0 0 61 -30 0 0 -61zm-20 -20l69 0 0 101 -69 0 0 -101z"/>
  <path class="fil1" d="M309 38l40 0 0 20 -30 0 0 81 -23 0c-1,0 -1,-1 -1,-1l0 -85c0,-8 6,-14 14,-14z"/>
  <path class="fil1" d="M460 38l41 0c0,0 1,0 1,0l0 20 -32 0 0 61 32 0 0 20c0,0 -1,0 -1,0l-41 0c-8,0 -14,-6 -14,-14l0 -73c0,-8 6,-14 14,-14z"/>
  <path class="fil1" d="M236 38l41 0c1,0 2,0 3,0l0 20 -34 0 0 21 26 0 0 20 -26 0 0 19 34 0 0 20c-1,0 -2,0 -3,0l-41 0c-8,0 -14,-6 -14,-14l0 -73c0,-8 6,-14 14,-14z"/>
  <path class="fil2" d="M526 42l6 0 0 -4 -16 0 0 4 6 0 0 17 4 0 0 -17zm28 -4l-5 0 -4 16 -5 -16 -5 0 0 20 4 0 0 -11 0 0 3 11 5 0 3 -11 0 0 0 11 4 0 0 -20z"/>
  <polygon class="fil1" style="mask:url(#id2)" points="732,180 905,0 2316,0 2316,180 "/>
  <polygon class="fil0" style="mask:url(#id4)" points="894,180 1066,0 2316,0 2316,180 "/>
  <polygon class="fil1" style="mask:url(#id6)" points="1158,180 1327,0 2316,0 2316,180 "/>
  <path class="fil3" d="M1794 109l0 -10c0,0 1,0 1,0 0,0 1,0 1,0l5 10 7 0 0 -1 -7 -11c1,-1 2,-1 2,-2 1,-1 1,-2 1,-2 0,-1 1,-2 1,-3 0,-1 0,-2 0,-3 0,-1 0,-2 0,-3 -1,0 -2,0 -3,0 -1,0 -2,0 -3,0 0,1 0,2 0,3 0,1 0,2 0,3 0,1 0,2 -1,2 0,1 -1,1 -2,1 -1,0 -2,1 -3,1l0 0 0 -9c-1,0 -2,0 -3,0 -1,0 -2,0 -3,0l0 25c1,0 2,0 3,0 1,0 2,0 3,0zm36 0l6 0 0 -1 -11 -24 -3 0 -11 24 0 1 6 0 1 -3 10 0 1 3zm-4 -9l-6 0 3 -7 3 7zm33 9l0 -25 -6 0 0 10 -1 0c-1,0 -2,0 -2,0 -1,0 -1,-1 -2,-1 0,0 -1,-1 -1,-1 0,-1 0,-1 0,-2 0,-1 0,-2 0,-2l0 -3 -7 0 0 3c0,2 0,4 1,6 0,2 1,3 2,4 1,1 2,2 4,2 2,1 3,1 5,1l1 0 0 9 6 0zm24 -25c-1,0 -3,0 -4,0 -1,0 -3,0 -4,0 -1,0 -2,0 -4,0 -1,0 -3,0 -4,0 0,4 0,8 0,12 0,4 0,8 0,13 1,0 3,0 4,0 1,0 3,0 4,0 1,0 3,0 4,0 1,0 3,0 4,0 0,-1 0,-2 0,-3 0,-1 0,-2 0,-3 -1,0 -2,0 -3,0 -1,0 -2,0 -2,0 -1,0 -1,0 -2,0 -1,0 -2,0 -3,0 0,-1 0,-1 0,-2 0,-1 0,-1 0,-2l8 0c0,-2 0,-4 0,-6l-8 0 0 -4c1,0 2,0 2,0 1,0 1,0 2,0 1,0 1,0 2,0 1,0 2,0 2,0 0,-1 0,-2 0,-3 0,-1 0,-2 0,-3zm6 12c0,2 0,3 1,5 0,1 1,3 2,4 1,1 2,2 3,3 1,1 2,1 3,2 1,0 2,0 4,0 1,0 2,0 3,0 1,0 2,-1 3,-1 1,0 2,-1 3,-2 1,-1 1,-2 2,-3 1,-1 1,-2 1,-4 -1,0 -2,0 -3,0 -1,0 -2,0 -3,0 0,1 -1,2 -1,2 -1,1 -1,1 -2,1 -1,0 -2,0 -2,0 -1,0 -2,0 -3,-1 -1,0 -1,-1 -2,-2 -1,-1 -1,-1 -1,-2 0,-1 0,-2 0,-3 0,-1 0,-3 1,-4 1,-1 1,-2 2,-2 1,-1 2,-1 3,-1 1,0 2,0 3,1 1,1 2,2 2,3 1,0 1,0 2,0 1,0 1,0 2,0 1,0 1,0 2,0 0,-1 -1,-3 -1,-4 -1,-1 -1,-2 -2,-3 -1,-1 -2,-1 -3,-2 -1,0 -2,-1 -3,-1 -1,0 -2,0 -3,0 -1,0 -3,0 -4,1 -1,0 -2,1 -3,2 -1,1 -2,2 -3,3 -1,1 -1,2 -2,4 0,1 -1,3 -1,5zm35 -7l0 19c2,0 4,0 6,0l0 -19 6 0c0,-1 0,-2 0,-3 0,-1 0,-2 0,-3l-19 0c0,1 0,2 0,3 0,1 0,2 0,3l6 0zm36 2c0,-1 0,-2 -1,-3 0,-1 -1,-2 -2,-2 -1,-1 -2,-1 -2,-2 -1,0 -2,-1 -3,-1l-11 0 0 25 12 0c1,0 2,0 3,-1 1,0 2,-1 2,-2 1,-1 1,-2 1,-3 0,-1 0,-2 1,-3 0,-1 0,-2 -1,-3 0,-1 -1,-2 -2,-2 0,0 1,-1 1,-1 0,0 1,-1 1,-2 0,-1 0,-1 0,-2zm-7 7c0,0 1,0 1,0 0,0 1,0 1,1 0,0 0,1 0,1 0,0 0,1 0,1 0,0 0,1 -1,1 0,0 -1,0 -1,0l-5 0 0 -4 5 0zm-1 -9c0,0 1,0 1,0 0,0 0,0 1,1 0,0 0,1 0,1 0,0 0,1 0,1 0,0 0,1 -1,1 0,0 -1,0 -1,0l-4 0 0 -4 4 0zm32 -6c-1,0 -3,0 -4,0 -1,0 -3,0 -4,0 -1,0 -2,0 -4,0 -1,0 -3,0 -4,0 0,4 0,8 0,12 0,4 0,8 0,13 1,0 3,0 4,0 1,0 3,0 4,0 1,0 3,0 4,0 1,0 3,0 4,0 0,-1 0,-2 0,-3 0,-1 0,-2 0,-3 -1,0 -2,0 -3,0 -1,0 -2,0 -2,0 -1,0 -1,0 -2,0 -1,0 -2,0 -3,0 0,-1 0,-1 0,-2 0,-1 0,-1 0,-2l8 0c0,-2 0,-4 0,-6l-8 0 0 -4c1,0 2,0 2,0 1,0 1,0 2,0 1,0 1,0 2,0 1,0 2,0 2,0 0,-1 0,-2 0,-3 0,-1 0,-2 0,-3zm28 0c-2,0 -4,0 -7,0l0 9 -8 0 0 -9c-1,0 -2,0 -3,0 -1,0 -2,0 -3,0l0 25c1,0 2,0 3,0 1,0 2,0 3,0l0 -10 8 0 0 10c2,0 4,0 7,0l0 -25zm29 0c-2,0 -4,0 -7,0l0 9 -8 0 0 -9c-1,0 -2,0 -3,0 -1,0 -2,0 -3,0l0 25c1,0 2,0 3,0 1,0 2,0 3,0l0 -10 8 0 0 10c2,0 4,0 7,0l0 -25zm8 0l0 25 11 0c1,0 3,0 4,-1 1,0 2,-1 3,-2 1,-1 1,-1 2,-2 0,-1 1,-2 1,-3 0,-1 0,-2 0,-3 0,-1 0,-2 -1,-3 0,-1 -1,-2 -2,-2 -1,-1 -2,-1 -3,-2 -1,0 -2,-1 -4,-1l-5 0 0 -7 -6 0zm11 13c1,0 1,0 1,0 0,0 1,1 1,1 0,0 0,1 0,1 0,1 0,1 0,1 0,0 0,1 -1,1 0,0 -1,0 -2,0 -1,0 -2,0 -2,0 -1,0 -2,0 -2,0l0 -6 5 0zm14 12l6 0 0 -25 -6 0 0 25zm30 -25c-1,0 -3,0 -4,0 -1,0 -3,0 -4,0 -1,0 -2,0 -4,0 -1,0 -3,0 -4,0 0,4 0,8 0,12 0,4 0,8 0,13 1,0 3,0 4,0 1,0 3,0 4,0 1,0 3,0 4,0 1,0 3,0 4,0 0,-1 0,-2 0,-3 0,-1 0,-2 0,-3 -1,0 -2,0 -3,0 -1,0 -2,0 -2,0 -1,0 -1,0 -2,0 -1,0 -2,0 -3,0 0,-1 0,-1 0,-2 0,-1 0,-1 0,-2l8 0c0,-2 0,-4 0,-6l-8 0 0 -4c1,0 2,0 2,0 1,0 1,0 2,0 1,0 1,0 2,0 1,0 2,0 2,0 0,-1 0,-2 0,-3 0,-1 0,-2 0,-3zm41 13c0,-2 0,-3 -1,-5 0,-1 -1,-3 -2,-4 -1,-1 -2,-2 -3,-3 -1,-1 -2,-1 -3,-2 -1,0 -3,-1 -4,-1 -1,0 -3,0 -4,1 -1,0 -2,1 -3,2 -1,1 -2,2 -3,3 -1,1 -1,2 -2,4 0,1 -1,3 -1,5 0,2 0,3 1,5 0,1 1,3 2,4 1,1 2,2 3,3 1,1 2,1 3,2 1,0 3,1 4,1 1,0 3,0 4,-1 1,0 2,-1 3,-2 1,-1 2,-2 3,-3 1,-1 1,-2 2,-4 0,-1 1,-3 1,-5zm-19 0c0,-1 0,-2 1,-3 0,-1 1,-2 1,-2 1,-1 1,-1 2,-1 1,0 2,0 2,0 1,0 2,0 2,0 1,0 1,1 2,1 1,1 1,1 1,2 0,1 1,2 1,3 0,1 0,2 -1,3 0,1 -1,2 -1,2 -1,1 -1,1 -2,1 -1,0 -2,0 -2,0 -1,0 -2,0 -2,0 -1,0 -1,-1 -2,-1 -1,-1 -1,-1 -1,-2 0,-1 -1,-2 -1,-3zm32 12l0 -10c0,0 1,0 1,0 0,0 1,0 1,0l5 10 7 0 0 -1 -7 -11c1,-1 2,-1 2,-2 1,-1 1,-2 1,-2 0,-1 1,-2 1,-3 0,-1 0,-2 0,-3 0,-1 0,-2 0,-3 -1,0 -2,0 -3,0 -1,0 -2,0 -3,0 0,1 0,2 0,3 0,1 0,2 0,3 0,1 0,2 -1,2 0,1 -1,1 -2,1 -1,0 -2,1 -3,1l0 0 0 -9c-1,0 -2,0 -3,0 -1,0 -2,0 -3,0l0 25c1,0 2,0 3,0 1,0 2,0 3,0zm41 -25c-2,0 -4,0 -7,0l0 9 -8 0 0 -9c-1,0 -2,0 -3,0 -1,0 -2,0 -3,0l0 25c1,0 2,0 3,0 1,0 2,0 3,0l0 -10 8 0 0 10c2,0 4,0 7,0l0 -25zm24 25l6 0 0 -1 -11 -24 -3 0 -11 24 0 1 6 0 1 -3 10 0 1 3zm-4 -9l-6 0 3 -7 3 7z"/>
 </g>
</svg>
