<?xml version="1.0" encoding="UTF-8"?>
<!DOCTYPE svg PUBLIC "-//W3C//DTD SVG 1.1//EN" "http://www.w3.org/Graphics/SVG/1.1/DTD/svg11.dtd">
<!-- Creator: CorelDRAW 2017 -->
<svg xmlns="http://www.w3.org/2000/svg" xml:space="preserve" width="79.3914mm" height="43.0715mm" version="1.1" style="shape-rendering:geometricPrecision; text-rendering:geometricPrecision; image-rendering:optimizeQuality; fill-rule:evenodd; clip-rule:evenodd"
viewBox="0 0 7353.38 3989.36"
 xmlns:xlink="http://www.w3.org/1999/xlink">
 <defs>
  <style type="text/css">
   <![CDATA[
    .str0 {stroke:#EBECEC;stroke-width:7.06;stroke-miterlimit:22.9256}
    .fil15 {fill:#EF7F1A}
    .fil0 {fill:#B7CBD8}
    .fil63 {fill:#040906}
    .fil47 {fill:#050505}
    .fil27 {fill:#0A0807}
    .fil26 {fill:#0B0502}
    .fil39 {fill:#16100C}
    .fil20 {fill:#190D07}
    .fil68 {fill:#1C3D29}
    .fil75 {fill:#1D343B}
    .fil74 {fill:#1F383E}
    .fil64 {fill:#21422B}
    .fil66 {fill:#22452D}
    .fil73 {fill:#2B6444}
    .fil31 {fill:#2F704B}
    .fil54 {fill:#326C4B}
    .fil57 {fill:#357150}
    .fil69 {fill:#398256}
    .fil67 {fill:#3A8658}
    .fil61 {fill:#3B895A}
    .fil46 {fill:#545454}
    .fil14 {fill:#8B8B8B}
    .fil40 {fill:#943817}
    .fil32 {fill:#949494}
    .fil62 {fill:#9EB4C2}
    .fil60 {fill:#A4BAC8}
    .fil22 {fill:#A5440E}
    .fil51 {fill:#A7A7A7}
    .fil18 {fill:#A85528}
    .fil4 {fill:#AA450D}
    .fil50 {fill:#B1C9D7}
    .fil9 {fill:#B4BDB8}
    .fil11 {fill:#B55825}
    .fil6 {fill:#BD5B25}
    .fil38 {fill:#BFC8C3}
    .fil53 {fill:#C05D26}
    .fil16 {fill:#C25E27}
    .fil12 {fill:#C3C4C4}
    .fil23 {fill:#C6612A}
    .fil49 {fill:#CB652C}
    .fil28 {fill:#CBCCCB}
    .fil35 {fill:#CBD1CD}
    .fil10 {fill:#CFD5D1}
    .fil44 {fill:#CFE3D7}
    .fil25 {fill:#D1A28A}
    .fil13 {fill:#D3D5D3}
    .fil30 {fill:#D5D9D6}
    .fil52 {fill:#DA743B}
    .fil71 {fill:#DA864F}
    .fil29 {fill:#E1E5E2}
    .fil19 {fill:#E2E7E3}
    .fil36 {fill:#E88A58}
    .fil65 {fill:#EA8D49}
    .fil2 {fill:#EB7C3E}
    .fil43 {fill:#EBECEB}
    .fil56 {fill:#ECF0F0}
    .fil8 {fill:#F07F40}
    .fil33 {fill:#F0AF8D}
    .fil45 {fill:#F0D6C9}
    .fil70 {fill:#F29D4A}
    .fil42 {fill:#F2BBA1}
    .fil24 {fill:#F3F3F3}
    .fil58 {fill:#F5B08C}
    .fil5 {fill:whitesmoke}
    .fil41 {fill:#F6EAE3}
    .fil3 {fill:#F7915A}
    .fil55 {fill:#F9F7F6}
    .fil21 {fill:#F9F9F9}
    .fil34 {fill:#FBB28B}
    .fil37 {fill:#FC9660}
    .fil17 {fill:#FCA377}
    .fil48 {fill:#FCFCFB}
    .fil72 {fill:#FD955D}
    .fil7 {fill:#FDFDFD}
    .fil59 {fill:#FE9760}
    .fil1 {fill:#FEFEFE;fill-rule:nonzero}
   ]]>
  </style>
 </defs>
 <g id="Слой_x0020_1">
  <metadata id="CorelCorpID_0Corel-Layer"/>
  <rect class="fil0 str0" x="3.53" y="3.52" width="7346.32" height="3982.31"/>
  <polygon class="fil1" points="2946,1003.58 3127.29,729.73 2962.86,478.38 3086.71,478.38 3190.13,634.75 3293.55,478.38 3417.64,478.38 3252.84,729.85 3433.78,1003.58 3306.39,1003.58 3190.01,825.7 3073.5,1003.58 "/>
  <path id="1" class="fil1" d="M3447.46 744.16c0,-53.54 8.07,-98.54 24.09,-134.97 11.86,-26.78 28.24,-50.86 48.9,-72.12 20.66,-21.28 43.28,-37.05 67.85,-47.44 32.76,-13.81 70.53,-20.78 113.32,-20.78 77.51,0 139.37,24.08 185.95,72.12 46.45,48.16 69.68,115.04 69.68,200.74 0,84.96 -23.1,151.46 -69.19,199.39 -46.09,48.05 -107.83,72.01 -184.98,72.01 -78.12,0 -140.34,-23.84 -186.43,-71.64 -46.09,-47.68 -69.2,-113.45 -69.2,-197.31zm109.29 -3.55c0,59.54 13.82,104.64 41.33,135.45 27.5,30.69 62.46,46.09 104.76,46.09 42.42,0 77.14,-15.27 104.4,-45.72 27.14,-30.57 40.71,-76.28 40.71,-137.28 0,-60.28 -13.2,-105.26 -39.73,-134.85 -26.41,-29.7 -61.5,-44.5 -105.39,-44.5 -43.76,0 -79.1,15.03 -105.87,44.99 -26.78,30.07 -40.23,75.3 -40.23,135.82z"/>
  <polygon id="2" class="fil1" points="4158.11,1003.58 4158.11,567.14 4002.61,567.14 4002.61,478.38 4419.24,478.38 4419.24,567.14 4264.48,567.14 4264.48,1003.58 "/>
  <polygon id="3" class="fil1" points="4489.54,478.38 4588.56,478.38 4588.56,828.02 4801.28,478.38 4906.9,478.38 4906.9,1003.58 4807.88,1003.58 4807.88,659.56 4595.16,1003.58 4489.54,1003.58 "/>
  <polygon id="4" class="fil1" points="5133.43,1003.58 5133.43,567.14 4977.93,567.14 4977.93,478.38 5394.56,478.38 5394.56,567.14 5239.8,567.14 5239.8,1003.58 "/>
  <polygon id="5" class="fil1" points="5463.38,1003.58 5463.38,478.38 5852.15,478.38 5852.15,567.14 5569.74,567.14 5569.74,683.76 5832.34,683.76 5832.34,772.52 5569.74,772.52 5569.74,914.83 5862.42,914.83 5862.42,1003.58 "/>
  <path id="6" class="fil1" d="M2945.26 1297.84l119.45 0 122.25 271.89 104.64 -271.89 110.64 0 -177.63 399.15c-19.31,43.27 -38.99,76.16 -59.05,98.78 -20.05,22.61 -45.85,33.86 -77.63,33.86 -31.3,0 -55.75,-2.08 -73.36,-6.11l0 -78.98c15.04,0.98 28.61,1.47 40.72,1.47 24.44,0 42.05,-4.53 52.68,-13.45 10.51,-9.05 20.78,-28.49 30.44,-58.19l-193.16 -376.54z"/>
  <path id="7" class="fil1" d="M3530.24 1440.87l-103.42 -24.2c22.25,-85.58 85.45,-128.36 189.61,-128.36 61.62,0 108.19,13.57 139.62,40.71 31.42,27.14 47.06,59.05 47.06,95.72 0,25.05 -7.22,47.67 -21.52,67.97 -14.3,20.17 -35.82,37.9 -64.43,53.3 34.72,11.99 60.88,28.85 78.25,50.74 17.36,22 26.04,48.9 26.04,81.05 0,46.21 -16.87,83.5 -50.74,111.98 -33.74,28.48 -84.35,42.79 -151.71,42.79 -54.89,0 -98.29,-9.17 -130.07,-27.51 -31.79,-18.34 -55.63,-52.69 -71.64,-103.06l96.83 -31.54c10.02,31.66 23.47,52.2 40.1,61.49 16.63,9.41 37.16,14.06 61.61,14.06 33.5,0 57.95,-7.22 73.36,-21.77 15.28,-14.54 22.98,-31.18 22.98,-50 0,-21.52 -8.68,-39 -26.04,-52.2 -17.24,-13.21 -43.4,-19.8 -78.25,-19.8l-24.08 0 0 -79.22 12.11 0c32.4,0 57.21,-7.34 74.33,-21.89 17.24,-14.55 25.8,-33.98 25.8,-58.06 0,-19.2 -6.97,-35.34 -20.9,-48.53 -13.94,-13.09 -33.86,-19.69 -59.79,-19.69 -44.38,0 -72.74,22.01 -85.08,66.02z"/>
  <polygon id="8" class="fil1" points="3914.96,1823.03 3914.96,1297.84 4021.32,1297.84 4021.32,1504.69 4228.17,1504.69 4228.17,1297.84 4334.53,1297.84 4334.53,1823.03 4228.17,1823.03 4228.17,1593.44 4021.32,1593.44 4021.32,1823.03 "/>
  <path id="9" class="fil1" d="M4917.79 1823.03l-114.55 0 -45.36 -119.57 -210.64 0 -43.64 119.57 -112.47 0 203.92 -525.19 112.35 0 210.39 525.19zm-194.38 -208.32l-72.99 -194.39 -70.9 194.39 143.89 0z"/>
  <polygon id="10" class="fil1" points="5055.92,1823.03 5055.92,1386.6 4900.42,1386.6 4900.42,1297.84 5317.05,1297.84 5317.05,1386.6 5162.29,1386.6 5162.29,1823.03 "/>
  <path id="11" class="fil1" d="M5388.08 1297.84l106.36 0 0 209.79 141.69 0c66.74,0 115.04,15.64 144.99,46.94 29.94,31.3 44.87,68.83 44.87,112.59 0,35.83 -9.05,66.26 -27.27,91.33 -18.09,25.18 -38.75,42.18 -62.1,51.1 -23.23,8.93 -56.84,13.45 -100.74,13.45l-247.8 0 0 -525.19zm106.36 436.44l103.06 0c33.37,0 56.6,-1.59 69.44,-4.77 12.84,-3.18 24.44,-10.51 34.59,-21.89 10.14,-11.36 15.16,-25.3 15.16,-41.93 0,-23.96 -8.68,-41.45 -25.92,-52.57 -17.36,-11.12 -46.82,-16.75 -88.63,-16.75l-107.7 0 0 137.9z"/>
  <polygon class="fil1" points="3095.11,2456.03 3095.11,2184.73 2993.8,2184.73 2993.8,2148.67 3237.2,2148.67 3237.2,2184.73 3135.89,2184.73 3135.89,2456.03 "/>
  <path id="1" class="fil1" d="M3247.42 2306.42c0,-50.94 13.74,-90.86 41.13,-119.7 27.41,-28.83 62.75,-43.22 106.11,-43.22 28.4,0 53.94,6.8 76.77,20.32 22.75,13.52 40.14,32.41 52.09,56.67 11.94,24.18 17.95,51.66 17.95,82.35 0,31.12 -6.29,59.03 -18.89,83.56 -12.59,24.61 -30.41,43.22 -53.44,55.8 -23.11,12.66 -48.01,18.96 -74.69,18.96 -28.98,0 -54.8,-7.01 -77.64,-20.96 -22.75,-13.95 -40.06,-32.98 -51.79,-57.17 -11.74,-24.11 -17.6,-49.65 -17.6,-76.63zm42.07 0.71c0,36.99 9.94,66.11 29.83,87.36 19.89,21.25 44.86,31.91 74.9,31.91 30.62,0 55.74,-10.73 75.55,-32.2 19.75,-21.46 29.62,-51.94 29.62,-91.44 0,-24.97 -4.21,-46.79 -12.66,-65.39 -8.44,-18.6 -20.82,-33.06 -37.06,-43.28 -16.31,-10.23 -34.56,-15.38 -54.8,-15.38 -28.76,0 -53.52,9.87 -74.26,29.62 -20.75,19.75 -31.12,52.66 -31.12,98.8z"/>
  <path id="2" class="fil1" d="M3803.68 2456.03l-40.78 0 0 -123.77c-36.48,13.52 -68.47,20.31 -95.87,20.31 -21.39,0 -40.28,-5 -56.59,-15.02 -16.38,-9.94 -27.33,-22.67 -32.83,-38.06 -5.51,-15.38 -8.3,-35.49 -8.3,-60.39l0 -90.43 40.78 0 0 86.64c0,33.56 6.08,55.67 18.31,66.25 12.24,10.51 26.97,15.81 44.14,15.81 28.69,0 58.81,-6.37 90.36,-19.11l0 -149.59 40.78 0 0 307.36z"/>
  <polygon id="3" class="fil1" points="3872.15,2456.03 3872.15,2148.67 3912.93,2148.67 3912.93,2275.3 4071.76,2275.3 4071.76,2148.67 4112.54,2148.67 4112.54,2456.03 4071.76,2456.03 4071.76,2311.36 3912.93,2311.36 3912.93,2456.03 "/>
  <path id="4" class="fil1" d="M4149.32 2148.67l40.92 0 100.66 188.95 87.5 -188.95 40.07 0 -115.12 239.1c-14.37,29.91 -26.18,49.51 -35.41,58.74 -9.23,9.23 -22.4,13.8 -39.57,13.8 -10.45,0 -23.25,-2.43 -38.49,-7.29l0 -34.78c10.87,6.3 22.4,9.45 34.56,9.45 9.87,0 18.39,-3.22 25.62,-9.59 7.15,-6.36 15.1,-20.9 23.75,-43.57l-124.48 -225.87z"/>
  <path id="5" class="fil1" d="M4454.89 2148.67l40.78 0 0 137.79 59.24 0c2.94,-43.5 17.17,-78.27 42.86,-104.1 25.61,-25.9 57.38,-38.85 95.3,-38.85 39.92,0 73.05,14.1 99.31,42.36 26.25,28.19 39.42,66.47 39.42,114.83 0,50.23 -13.1,89.57 -39.36,117.91 -26.18,28.41 -59.74,42.57 -100.66,42.57 -37.13,0 -68.04,-12.3 -92.8,-36.84 -24.75,-24.54 -39.35,-58.45 -43.64,-101.81l-59.67 0 0 133.51 -40.78 0 0 -307.36zm140.38 155.1c0,38.85 8.94,69.04 26.76,90.44 17.81,21.46 41.21,32.2 70.18,32.2 29.62,0 53.3,-10.73 70.98,-32.27 17.67,-21.53 26.55,-52.44 26.55,-92.86 0,-38.28 -8.73,-68.4 -26.12,-90.44 -17.39,-21.96 -40.92,-32.98 -70.61,-32.98 -30.19,0 -54.02,11.16 -71.54,33.41 -17.46,22.33 -26.18,53.16 -26.18,92.51z"/>
  <path id="6" class="fil1" d="M3235.91 2827.77l40.78 10.31c-8.52,33.41 -23.83,58.81 -45.93,76.34 -22.11,17.52 -49.15,26.32 -81.14,26.32 -33.06,0 -59.95,-6.72 -80.7,-20.25 -20.75,-13.45 -36.49,-32.98 -47.29,-58.53 -10.81,-25.61 -16.25,-53.01 -16.25,-82.34 0,-31.98 6.09,-59.89 18.32,-83.71 12.24,-23.82 29.62,-41.93 52.16,-54.3 22.53,-12.37 47.37,-18.53 74.4,-18.53 30.77,0 56.6,7.8 77.49,23.47 20.96,15.67 35.56,37.63 43.78,65.97l-39.92 9.45c-7.09,-22.32 -17.46,-38.64 -30.97,-48.79 -13.52,-10.23 -30.56,-15.32 -51.09,-15.32 -23.54,0 -43.28,5.66 -59.09,16.96 -15.81,11.31 -26.97,26.55 -33.34,45.58 -6.44,19.1 -9.66,38.77 -9.66,59.02 0,26.12 3.8,48.94 11.38,68.4 7.58,19.53 19.39,34.06 35.41,43.72 16.02,9.66 33.34,14.45 52.02,14.45 22.75,0 41.92,-6.59 57.67,-19.67 15.74,-13.16 26.4,-32.63 31.98,-58.53z"/>
  <polygon id="7" class="fil1" points="3390.88,2935.59 3390.88,2664.3 3289.57,2664.3 3289.57,2628.24 3532.97,2628.24 3532.97,2664.3 3431.66,2664.3 3431.66,2935.59 "/>
  <path id="8" class="fil1" d="M3543.19 2785.99c0,-50.94 13.74,-90.86 41.13,-119.7 27.41,-28.83 62.75,-43.22 106.11,-43.22 28.4,0 53.94,6.8 76.77,20.32 22.75,13.52 40.14,32.41 52.09,56.67 11.94,24.18 17.95,51.66 17.95,82.35 0,31.12 -6.29,59.03 -18.89,83.56 -12.59,24.61 -30.41,43.22 -53.44,55.8 -23.11,12.66 -48.01,18.96 -74.69,18.96 -28.98,0 -54.8,-7.01 -77.64,-20.96 -22.75,-13.95 -40.06,-32.98 -51.79,-57.17 -11.74,-24.11 -17.6,-49.65 -17.6,-76.63zm42.07 0.71c0,36.99 9.94,66.11 29.83,87.36 19.89,21.25 44.86,31.91 74.9,31.91 30.62,0 55.74,-10.73 75.55,-32.2 19.75,-21.46 29.62,-51.94 29.62,-91.44 0,-24.97 -4.21,-46.79 -12.66,-65.39 -8.44,-18.6 -20.82,-33.06 -37.06,-43.28 -16.31,-10.23 -34.56,-15.38 -54.8,-15.38 -28.76,0 -53.52,9.87 -74.26,29.62 -20.75,19.75 -31.12,52.66 -31.12,98.8z"/>
  <polygon id="9" class="fil1" points="3890.4,2628.24 3927.32,2628.24 3927.32,2871.63 4090.94,2628.24 4131.22,2628.24 4131.22,2935.59 4094.3,2935.59 4094.3,2692.84 3931.11,2935.59 3890.4,2935.59 "/>
  <path id="10" class="fil1" d="M4197.26 2935.59l0 -307.36 60.95 0 72.69 217.57c6.72,20.25 11.6,35.41 14.67,45.51 3.5,-11.16 9.01,-27.62 16.46,-49.3l73.98 -213.77 54.44 0 0 307.36 -39.07 0 0 -257.14 -89.71 257.14 -36.63 0 -88.71 -261.86 0 261.86 -39.07 0z"/>
  <path id="11" class="fil1" d="M4543.26 2785.99c0,-50.94 13.74,-90.86 41.13,-119.7 27.41,-28.83 62.75,-43.22 106.11,-43.22 28.4,0 53.94,6.8 76.77,20.32 22.75,13.52 40.14,32.41 52.09,56.67 11.94,24.18 17.95,51.66 17.95,82.35 0,31.12 -6.29,59.03 -18.89,83.56 -12.59,24.61 -30.41,43.22 -53.44,55.8 -23.11,12.66 -48.01,18.96 -74.69,18.96 -28.98,0 -54.8,-7.01 -77.64,-20.96 -22.75,-13.95 -40.06,-32.98 -51.79,-57.17 -11.74,-24.11 -17.6,-49.65 -17.6,-76.63zm42.07 0.71c0,36.99 9.94,66.11 29.83,87.36 19.89,21.25 44.86,31.91 74.9,31.91 30.62,0 55.74,-10.73 75.55,-32.2 19.75,-21.46 29.62,-51.94 29.62,-91.44 0,-24.97 -4.21,-46.79 -12.66,-65.39 -8.44,-18.6 -20.82,-33.06 -37.06,-43.28 -16.31,-10.23 -34.56,-15.38 -54.8,-15.38 -28.76,0 -53.52,9.87 -74.26,29.62 -20.75,19.75 -31.12,52.66 -31.12,98.8z"/>
  <path id="12" class="fil1" d="M5108.54 2827.77l40.78 10.31c-8.52,33.41 -23.83,58.81 -45.93,76.34 -22.11,17.52 -49.15,26.32 -81.14,26.32 -33.06,0 -59.95,-6.72 -80.7,-20.25 -20.75,-13.45 -36.49,-32.98 -47.29,-58.53 -10.81,-25.61 -16.25,-53.01 -16.25,-82.34 0,-31.98 6.09,-59.89 18.32,-83.71 12.24,-23.82 29.62,-41.93 52.16,-54.3 22.53,-12.37 47.37,-18.53 74.4,-18.53 30.77,0 56.6,7.8 77.49,23.47 20.96,15.67 35.56,37.63 43.78,65.97l-39.92 9.45c-7.09,-22.32 -17.46,-38.64 -30.97,-48.79 -13.52,-10.23 -30.56,-15.32 -51.09,-15.32 -23.54,0 -43.28,5.66 -59.09,16.96 -15.81,11.31 -26.97,26.55 -33.34,45.58 -6.44,19.1 -9.66,38.77 -9.66,59.02 0,26.12 3.8,48.94 11.38,68.4 7.58,19.53 19.39,34.06 35.41,43.72 16.02,9.66 33.34,14.45 52.02,14.45 22.75,0 41.92,-6.59 57.67,-19.67 15.74,-13.16 26.4,-32.63 31.98,-58.53z"/>
  <polygon id="13" class="fil1" points="5263.51,2935.59 5263.51,2664.3 5162.2,2664.3 5162.2,2628.24 5405.6,2628.24 5405.6,2664.3 5304.29,2664.3 5304.29,2935.59 "/>
  <path id="14" class="fil1" d="M5449.31 2628.24l40.78 0 0 130.92 73.19 0c34.21,0 58.95,4.01 74.34,11.95 15.31,8.02 26.33,18.89 33.06,32.56 6.65,13.74 10.01,27.91 10.01,42.43 0,23.82 -8.09,44.71 -24.32,62.6 -16.17,17.95 -46.29,26.9 -90.44,26.9l-116.62 0 0 -307.36zm40.78 272.59l74.26 0c30.12,0 49.73,-5.36 58.88,-16.02 9.09,-10.66 13.67,-23.61 13.67,-38.71 0,-12.24 -3.3,-22.68 -9.95,-31.27 -6.59,-8.59 -15.45,-14.16 -26.47,-16.67 -11.02,-2.5 -29.69,-3.79 -56.02,-3.79l-54.38 0 0 106.46z"/>
  <path id="15" class="fil1" d="M3015.26 3107.81l122.92 0c24.4,0 42.49,1 54.44,3 12.02,2.07 22.68,6.3 32.13,12.66 9.44,6.44 17.31,14.96 23.61,25.62 6.3,10.66 9.44,22.67 9.44,35.91 0,14.31 -3.86,27.55 -11.59,39.49 -7.72,12.02 -18.25,20.96 -31.48,26.97 18.67,5.51 32.98,14.81 43.07,27.98 10.02,13.16 15.03,28.61 15.03,46.43 0,14.02 -3.22,27.61 -9.73,40.86 -6.51,13.24 -15.38,23.82 -26.68,31.76 -11.24,7.87 -25.12,12.74 -41.64,14.6 -10.3,1.07 -35.27,1.79 -74.84,2.07l-104.67 0 0 -307.36zm62.25 51.08l0 70.83 40.63 0c24.11,0 39.13,-0.36 45,-1.07 10.59,-1.21 18.96,-4.86 25.04,-10.95 6.09,-6.08 9.09,-14.02 9.09,-23.9 0,-9.51 -2.64,-17.16 -7.86,-23.11 -5.22,-5.94 -13.02,-9.51 -23.32,-10.73 -6.16,-0.72 -23.83,-1.07 -52.95,-1.07l-35.62 0zm0 121.91l0 82.42 57.52 0c22.32,0 36.56,-0.65 42.57,-1.86 9.23,-1.71 16.75,-5.8 22.53,-12.3 5.8,-6.59 8.73,-15.25 8.73,-26.19 0,-9.3 -2.22,-17.1 -6.72,-23.54 -4.44,-6.44 -10.95,-11.16 -19.4,-14.1 -8.44,-2.93 -26.82,-4.44 -55.08,-4.44l-50.15 0z"/>
  <path id="16" class="fil1" d="M3580.75 3415.16l-67.04 0 -26.55 -69.98 -123.27 0 -25.54 69.98 -65.83 0 119.33 -307.36 65.75 0 123.13 307.36zm-113.76 -121.92l-42.71 -113.76 -41.5 113.76 84.21 0z"/>
  <polygon id="17" class="fil1" points="3614.74,3107.81 3676.98,3107.81 3676.98,3363.22 3765.41,3363.22 3765.41,3107.81 3827.65,3107.81 3827.65,3363.22 3919.09,3363.22 3919.09,3107.81 3980.91,3107.81 3981.33,3415.38 3614.74,3415.16 "/>
  <polygon id="18" class="fil1" points="4046.08,3107.81 4104.04,3107.81 4104.04,3312.43 4228.52,3107.81 4290.34,3107.81 4290.34,3415.16 4232.39,3415.16 4232.39,3213.83 4107.9,3415.16 4046.08,3415.16 "/>
  <polygon id="19" class="fil1" points="4322.68,3415.16 4428.79,3254.9 4332.56,3107.81 4405.03,3107.81 4465.56,3199.31 4526.09,3107.81 4598.7,3107.81 4502.27,3254.97 4608.15,3415.16 4533.6,3415.16 4465.49,3311.07 4397.31,3415.16 "/>
  <path id="20" class="fil1" d="M4746.52 3263.35c0,-31.34 4.72,-57.67 14.1,-78.99 6.94,-15.67 16.52,-29.77 28.61,-42.22 12.1,-12.45 25.33,-21.67 39.72,-27.76 19.17,-8.09 41.28,-12.16 66.32,-12.16 45.36,0 81.56,14.1 108.82,42.21 27.18,28.19 40.78,67.33 40.78,117.48 0,49.73 -13.52,88.65 -40.49,116.69 -26.97,28.12 -63.1,42.14 -108.25,42.14 -45.72,0 -82.14,-13.96 -109.11,-41.93 -26.97,-27.91 -40.49,-66.39 -40.49,-115.47zm63.96 -2.07c0,34.84 8.08,61.24 24.18,79.27 16.1,17.96 36.56,26.97 61.31,26.97 24.83,0 45.15,-8.94 61.1,-26.75 15.88,-17.89 23.82,-44.65 23.82,-80.35 0,-35.27 -7.72,-61.6 -23.25,-78.91 -15.46,-17.39 -35.99,-26.05 -61.68,-26.05 -25.61,0 -46.28,8.8 -61.95,26.33 -15.67,17.6 -23.54,44.07 -23.54,79.49z"/>
  <path id="21" class="fil1" d="M5094.16 3107.81l62.24 0 0 130.92c13.81,-1.43 23.18,-4.94 28.05,-10.73 4.87,-5.72 12.45,-21.68 22.61,-47.87 12.81,-33.27 25.76,-54.02 38.71,-62.1 12.88,-8.09 33.56,-12.16 62.18,-12.16 1.43,0 4.44,-0.07 9.01,-0.21l0 45.93 -8.8 -0.21c-12.74,0 -22.03,1.57 -27.91,4.72 -5.86,3.14 -10.59,7.94 -14.24,14.37 -3.65,6.44 -9.01,19.67 -16.1,39.71 -3.79,10.66 -7.86,19.53 -12.3,26.69 -4.37,7.15 -12.17,13.87 -23.33,20.17 13.81,3.86 25.18,11.8 34.21,23.68 9.01,11.87 18.89,28.61 29.62,50.29l41.86 84.14 -72.98 0 -36.85 -79.13c-0.56,-1.15 -1.79,-3.3 -3.58,-6.51 -0.71,-1.07 -3.29,-5.94 -7.72,-14.46 -7.87,-15.16 -14.31,-24.61 -19.32,-28.4 -5.08,-3.8 -12.74,-5.72 -23.11,-5.87l0 134.37 -62.24 0 0 -307.36z"/>
  <path id="22" class="fil1" d="M5342.42 3263.35c0,-31.34 4.72,-57.67 14.1,-78.99 6.94,-15.67 16.52,-29.77 28.61,-42.22 12.1,-12.45 25.33,-21.67 39.72,-27.76 19.17,-8.09 41.28,-12.16 66.32,-12.16 45.36,0 81.56,14.1 108.82,42.21 27.18,28.19 40.78,67.33 40.78,117.48 0,49.73 -13.52,88.65 -40.49,116.69 -26.97,28.12 -63.1,42.14 -108.25,42.14 -45.72,0 -82.14,-13.96 -109.11,-41.93 -26.97,-27.91 -40.49,-66.39 -40.49,-115.47zm63.96 -2.07c0,34.84 8.08,61.24 24.18,79.27 16.1,17.96 36.56,26.97 61.31,26.97 24.83,0 45.15,-8.94 61.1,-26.75 15.88,-17.89 23.82,-44.65 23.82,-80.35 0,-35.27 -7.72,-61.6 -23.25,-78.91 -15.46,-17.39 -35.99,-26.05 -61.68,-26.05 -25.61,0 -46.28,8.8 -61.95,26.33 -15.67,17.6 -23.54,44.07 -23.54,79.49z"/>
  <polygon id="23" class="fil1" points="5689.2,3415.16 5689.2,3107.81 5751.45,3107.81 5751.45,3228.85 5872.5,3228.85 5872.5,3107.81 5934.75,3107.81 5934.75,3415.16 5872.5,3415.16 5872.5,3280.8 5751.45,3280.8 5751.45,3415.16 "/>
  <path id="24" class="fil1" d="M6125.41 3336.18l-53.66 0c-0.14,-7.72 -0.21,-12.37 -0.21,-14.1 0,-17.31 2.86,-31.55 8.65,-42.78 5.72,-11.16 17.17,-23.75 34.42,-37.77 17.25,-13.96 27.55,-23.11 30.91,-27.48 5.22,-6.86 7.8,-14.45 7.8,-22.67 0,-11.37 -4.58,-21.18 -13.81,-29.27 -9.16,-8.15 -21.53,-12.23 -37.13,-12.23 -15.02,0 -27.55,4.29 -37.71,12.8 -10.09,8.59 -17.02,21.61 -20.82,39.14l-54.08 -6.87c1.57,-25.11 12.24,-46.36 32.05,-63.89 19.82,-17.52 45.87,-26.26 78.06,-26.26 33.91,0 60.88,8.87 80.91,26.55 20.03,17.67 30.05,38.21 30.05,61.74 0,12.95 -3.65,25.33 -11.01,36.92 -7.37,11.59 -23.04,27.4 -47.15,47.43 -12.45,10.31 -20.17,18.67 -23.17,24.97 -3.01,6.3 -4.37,17.53 -4.08,33.77zm-53.66 78.99l0 -58.81 53.66 0 0 58.81 -53.66 0z"/>
  <path class="fil2" d="M1794.83 202.14c40.11,-9.34 84.83,-46.53 143.25,-46.53 7.02,0 21.68,13.28 25.06,17.89l25.07 -39.37c-14.44,-3.36 -16.7,-10.73 -25.07,-10.73l-21.49 0c-71.22,0 -121.96,31.76 -146.82,78.75z"/>
  <path class="fil3" d="M1794.83 202.14l-16.99 40.97 20.56 -15.91c18.93,1.57 20.6,10.74 42.98,10.74l25.07 0c42.71,0 53.59,-52.46 73.06,-56.85l-8.6 31.8c19.98,-0.44 28.5,-23.36 32.23,-39.38 -3.38,-4.61 -18.04,-17.89 -25.06,-17.89 -58.42,0 -103.14,37.2 -143.25,46.53z"/>
  <path class="fil4" d="M1440.28 180.66c-9.91,42.53 -21.49,37.81 -21.49,103.81 -9.72,-11.18 -21.48,-33.33 -21.48,-53.69l0 -10.73c0,-16.26 8.97,-28.04 17.9,-35.8l-39.39 7.16c-4.3,16.06 -14.33,18.27 -14.33,42.95l0 3.58c0,48.63 57.3,107.65 57.3,196.88l0 17.9c0,10.74 -7.78,23.09 -10.74,35.79l35.82 21.48c20.8,-31.06 46.55,-46.47 46.55,-100.23 0,-57.34 -49.48,-131.54 -45.12,-172.17l12.79 -67.85 -17.81 10.91z"/>
  <path class="fil5" d="M1776.91 266.58l139.67 3.58 14.32 -35.8 -10.74 0c-11.14,0 -29.48,25.06 -60.88,25.06l-10.74 0c-22.78,0 -30.8,-3.74 -43.56,-15.05l-28.06 22.21z"/>
  <path class="fil6" d="M1415.22 184.24c-8.94,7.76 -17.9,19.54 -17.9,35.8l0 10.73c0,20.37 11.76,42.51 21.48,53.69 0,-66 11.58,-61.28 21.49,-103.81l-25.06 3.58z"/>
  <polygon class="fil7" points="1583.53,280.89 1594.27,273.73 1766.17,266.58 1755.43,234.35 1547.72,234.35 1548.19,265.57 "/>
  <path class="fil8" d="M2149.36 295.21c66.13,-45.93 79.97,-21.68 125.35,-107.4l-57.31 -28.64c-17.62,11.8 -82.37,79.34 -82.37,103.81l0 3.58c0,14.52 7.59,20.88 14.33,28.64z"/>
  <polygon class="fil9" points="1583.53,280.89 1615.76,305.95 1640.83,273.73 1594.27,273.73 "/>
  <path class="fil8" d="M1941.65 288.05c7.38,4.94 9.3,10.73 17.91,10.73l10.73 0c17.43,0 22.5,-30.94 35.82,-25.05 6.21,-9.79 21.48,-53.61 29.86,-70.39 12.79,-25.63 26.07,-42.76 38.18,-65.63 -10.3,-5.46 -20.01,-10.74 -35.81,-10.74l-10.74 0c-18.9,0 -79.92,135.24 -85.95,161.09z"/>
  <polygon class="fil10" points="1594.27,273.73 1640.83,273.73 1615.76,305.95 1619.35,313.11 1877.7,310.07 1913,280.89 1916.59,270.15 1776.91,266.58 1766.17,266.58 "/>
  <path class="fil8" d="M2049.09 313.11l14.32 -14.32 20.41 -1.15 29.72 -23.91c-18.76,-39.09 52.38,-87.58 68.05,-110.97 -6.05,-8.25 -57.68,-35.8 -71.62,-35.8l-10.74 0c-10.11,43.36 -64.46,106.53 -64.46,164.66 0,7.75 9.39,17.87 14.33,21.48z"/>
  <path class="fil2" d="M1501.16 373.96l3.58 39.37 0 10.74c0,46.57 -28.76,64.22 -53.72,85.91l-3.58 7.16c30.3,0 45.33,-10.78 57.3,-28.64 6.09,-26.09 17.9,-42.27 17.9,-78.75l2.65 -36.16 -16.97 -107.02 -21.49 -14.32 14.32 121.71z"/>
  <path class="fil3" d="M2149.36 295.21l49.7 43.02 -3.15 -25.13 -14.32 0c6.97,-10.41 44.82,-30.33 61.83,-49.16 14.1,-15.61 38.13,-66.11 42.99,-69.15l2.62 18.09 19.38 -1.79 -33.7 -23.28c-45.38,85.71 -59.21,61.46 -125.35,107.4z"/>
  <polygon class="fil11" points="1501.16,373.96 1486.84,252.26 1469.74,226.63 1465.34,228.08 "/>
  <path class="fil3" d="M1941.65 288.05c-1.22,14.71 -3.58,7.99 -3.58,21.47 0,24.33 78.01,42.96 111.02,42.96 -19.14,-28.57 -42.98,-27.09 -42.98,-78.75 -13.32,-5.89 -18.39,25.05 -35.82,25.05l-10.73 0c-8.61,0 -10.53,-5.8 -17.91,-10.73z"/>
  <polygon class="fil12" points="2152,352.05 2193.32,350.42 2159.98,334.53 "/>
  <path class="fil5" d="M1619.35 313.11l3.58 7.16c43.64,0 37.77,35.8 57.31,35.8l214.87 0 0 279.21 -165.69 0.44 8.11 17.46 196.97 0 0 -311.42c-7.33,-4.91 -25.07,-21.66 -25.07,-32.22l0 -10.73c0,-9.67 1.71,-9.87 3.58,-17.89l-35.31 29.18 -258.35 3.04z"/>
  <path class="fil3" d="M2049.09 313.11c11.38,17 54.85,49.5 82.37,50.12l0 -14.32c0,-20.34 13.62,3 14.32,-28.64 -14.67,-3.92 -28.57,-30.86 -32.23,-46.53l-29.72 23.91 -20.41 1.15 -14.32 14.32z"/>
  <polygon class="fil13" points="2224.57,313.11 2332.01,313.11 2332.01,416.92 2335.59,413.33 2335.09,323.44 2371.4,280.89 2371.4,370.39 2374.98,370.39 2371.4,270.34 2271.13,266.58 "/>
  <polygon class="fil14" points="1687.39,377.55 1877.2,373.96 1877.2,617.37 1880.77,370.39 1683.26,370.56 "/>
  <polygon class="fil6" points="1583.53,420.49 1610.04,322.04 1576.37,298.79 "/>
  <polygon class="fil9" points="2335.59,413.33 2371.4,370.39 2371.4,280.89 2335.09,323.44 "/>
  <path class="fil15" d="M2031.18 431.24l25.07 32.21 15.06 3.4 -4.32 -17.72c14.02,-20.93 47.04,-42.96 82.37,-42.96l25.06 0c57.36,0 100.28,45.21 100.28,103.81l7.16 110.97 3.58 -254.15 -125.35 0c-15.96,0 -5.53,14.32 -21.49,14.32l-21.49 0c-21.57,0 -39.48,-15.2 -46.65,-15.13l-39.3 4.4 0 60.85z"/>
  <path class="fil16" d="M1504.74 488.51l36.59 -24.91 -4.35 24.91c39.76,-45.72 20.77,-175.24 32.23,-193.29l-60.88 -28.64 16.97 107.02 -2.65 36.16c0,36.47 -11.82,52.66 -17.9,78.75z"/>
  <path class="fil6" d="M1243.32 606.64c-9.85,-15.5 0.25,-32.95 -27.98,-68.69 -13.03,-16.5 -35.14,-34.33 -51.74,-48.51 -35.71,-30.48 -99.29,-54.28 -124.41,-76.11 64.59,0 95.23,25.48 131.86,54.34 22.47,17.69 83.02,69.27 83.02,103.16l0 17.9c0,8.6 -5.81,10.52 -10.74,17.89zm-393.94 78.75c22.44,-5.98 90.28,-132.44 222.03,-132.44l28.66 0c35.56,0 40.75,15.92 64.46,17.89 -16.21,-14.08 -73.23,-50.11 -100.27,-50.11l-18.02 -0.8 -32.11 4.37c7.99,-10.9 24.41,-17.89 42.98,-17.89l14.32 0c12.35,0 13.87,2.65 25.07,3.58l-50.14 -39.37c66.66,5.55 156.25,80.55 186.23,125.29l0 17.89 10.74 -7.16c28.47,-6.63 60.88,-53.11 60.88,-89.49 22.24,10.67 66.24,-35.74 83.04,-47.24l20.81 18.6c2.96,-12.7 10.74,-25.04 10.74,-35.79l0 -17.9c0,-89.23 -57.3,-148.25 -57.3,-196.88l0 -3.58c0,-24.67 10.03,-26.89 14.33,-42.95 -54.41,0 -140.41,20.94 -181.27,37.17 -62.39,24.78 -79.61,54.43 -109.13,108.57l122.08 -34.78 0 14.32c0,60.27 128.93,57.64 128.93,150.34l0 3.58c0,13.69 -9.85,29.89 -17.91,35.8 0,-69.34 -3.11,-79.73 -47.98,-109.54 -36.72,-24.41 -70.2,-29.58 -70.2,-87.34 -45.21,30.27 -118.17,40.79 -165.47,70.87 -53.43,33.97 -101.25,50.46 -131.77,108.11 26.77,-6.23 52.85,-28.64 82.37,-28.64l21.49 0c-0.46,20.57 -29.85,40.65 -42.98,50.12 -13.06,9.42 -34.58,36.62 -45.58,51.1 -34.69,45.63 -42.74,74.66 -69.02,124.3z"/>
  <path class="fil17" d="M2056.25 463.45c0,33.81 -11.74,70.31 -25.07,89.49l0 68.01 28.66 0 -3.58 -85.91c24.65,-36.8 43.09,-78.76 107.44,-78.76l7.16 0c56.68,0 77.62,23.52 103.86,53.69 0,-58.6 -42.92,-103.81 -100.28,-103.81l-25.06 0c-35.33,0 -68.35,22.03 -82.37,42.96l4.32 17.72 -15.06 -3.4z"/>
  <path class="fil2" d="M1536.98 488.51l-7.16 25.06c23.29,-12.32 52.99,-60.36 53.71,-93.08l-7.16 -121.71 -7.16 -3.58c-11.47,18.05 7.53,147.57 -32.23,193.29z"/>
  <path class="fil7" d="M2031.18 552.94c13.34,-19.18 25.07,-55.68 25.07,-89.49l-25.07 -32.21 0 121.71z"/>
  <path class="fil15" d="M2059.84 620.96l222.03 0 -7.16 -110.97c-26.24,-30.18 -47.18,-53.69 -103.86,-53.69l-7.16 0c-64.35,0 -82.79,41.96 -107.44,78.76l3.58 85.91z"/>
  <polygon class="fil18" points="1164.53,578 1194.33,594.5 1164.53,570.84 "/>
  <path class="fil8" d="M1243.32 606.64c4.94,-7.37 10.74,-9.29 10.74,-17.89l0 -17.9c0,-33.89 -60.55,-85.47 -83.02,-103.16 -36.62,-28.86 -67.27,-54.34 -131.86,-54.34 25.12,21.83 88.69,45.63 124.41,76.11 16.6,14.17 38.71,32.01 51.74,48.51 28.23,35.73 18.14,53.19 27.98,68.69z"/>
  <polygon class="fil19" points="1934.49,653.17 1937.22,612.94 1973.64,578 1977.47,653.17 1977.47,366.8 1934.49,341.75 "/>
  <path class="fil20" d="M1314.94 624.53c5.33,2.36 31.08,-10.73 50.14,-10.73l14.44 -0.8 32.11 4.37 49.47 -3.67 -2.91 28.73 0 14.32c-24.63,-6.58 -38.41,-25.06 -75.21,-25.06l-32.23 0c-27.61,0 -34.21,6.2 -53.72,10.74l-17.87 18.02 17.87 -3.7c5.94,-5.16 46.24,-16.17 57.66,-16.45l74.85 16.45c11.21,0.93 12.73,3.58 25.07,3.58l21.25 -0.03 2.62 -36.41 -9.54 14.96 0 -32.21c-57.15,0 -128.92,-16.31 -153.99,17.89z"/>
  <path class="fil21" d="M1977.47 366.8l0 286.37 153.99 0 200.54 0 0 -236.25 0 -103.81 -107.43 0 -14.33 3.58c2.29,9.84 7.16,14.55 7.16,21.48 0,8.2 -1.21,4.17 -3.58,14.32l75.2 0c8.38,0 14.33,5.94 14.33,14.32l0 261.31c0,8.24 -2.49,10.73 -10.74,10.73l-268.59 0c-8.25,0 -10.74,-2.49 -10.74,-10.73l0 -257.73 -17.9 0c-9.67,0 -9.87,-1.71 -17.9,-3.58z"/>
  <path class="fil2" d="M1096.49 509.99c56.71,29.99 93.92,55.14 127.59,109.03l-28.14 -18.72 22.31 20.65 10.44 -0.19 3.89 -6.97 0 -17.89c-29.97,-44.74 -119.57,-119.74 -186.23,-125.29l50.14 39.37z"/>
  <polygon class="fil22" points="1411.63,617.37 1458.19,642.43 1461.1,613.7 "/>
  <path class="fil11" d="M1658.74 620.96l-53.72 0 0 21.48c12.51,-2.92 12.06,-7.16 25.07,-7.16l25.06 0c9.68,0 9.87,1.7 17.91,3.58l0 -10.73c0,-15.1 -5.58,-7.16 -14.33,-7.16z"/>
  <path class="fil23" d="M1314.94 624.53l-17.91 17.9c19.52,-4.55 26.11,-10.74 53.72,-10.74l32.23 0c36.8,0 50.58,18.49 75.21,25.06l0 -14.32 -46.56 -25.06 -32.11 -4.37 -14.44 0.8c-19.05,0 -44.81,13.1 -50.14,10.73z"/>
  <polygon class="fil24" points="2335.59,413.33 2332.01,416.92 2332.01,653.17 2131.46,653.17 2127.88,656.75 2099.23,692.54 2299.77,692.54 2374.98,620.96 2374.98,370.39 2371.4,370.39 "/>
  <path class="fil23" d="M1196.76 667.49l14.33 -14.32c-14.93,-22.28 -48.63,-54.46 -82.37,-57.27 15.08,13.1 54.06,62.96 71.93,64.62l-3.89 6.97z"/>
  <path class="fil25" d="M1597.86 660.33l0 17.9c9.06,-6.07 19.36,-21.48 28.65,-21.48l14.33 0c8.6,0 10.52,5.8 17.89,10.73l7.18 -25.04 -14.32 0c-23.41,0 -41.11,6.95 -53.72,17.89z"/>
  <path class="fil26" d="M1164.53 570.84l29.81 23.66 -29.81 -16.51 -57.3 -7.16c-13.89,20.74 -28.65,44.15 -28.65,78.76l0 17.89c0,27.15 25.41,45.32 35.81,60.85l7.17 3.58 32.22 21.48 10.74 3.58 18.22 -0.19 -3.89 -6.97c-28.18,-6.56 -78.78,-49.74 -78.78,-82.33l0 -21.48c0,-11.12 5.96,-35.8 14.32,-35.8 20.9,0 40.92,56.35 82.37,57.28l3.89 -6.97c-17.87,-1.66 -56.85,-51.53 -71.93,-64.62 33.74,2.81 67.44,34.99 82.37,57.27l10.74 0c2,-2.88 7.16,-8.84 7.16,-10.73 0,-8.45 -7.02,-15.93 -10.74,-21.48l-22.31 -20.65 28.14 18.72c-33.67,-53.9 -70.87,-79.04 -127.59,-109.03 -11.2,-0.93 -12.73,-3.58 -25.07,-3.58l-14.32 0c-18.57,0 -34.98,6.99 -42.98,17.89l32.11 -4.37 18.02 0.8c27.05,0 84.06,36.03 100.27,50.11z"/>
  <path class="fil27" d="M1642.3 718.58l2.11 -11.72 0 -7.16 0 -17.89c6.04,4.2 7.17,0.51 7.17,10.73l0 3.58 0.6 7.56 -9.88 14.89zm-27.25 -39.63l7.87 -4.3 -0.71 11.46 -7.16 -7.16zm43.69 -57.99c8.75,0 14.33,-7.94 14.33,7.16l0 10.73c-8.04,-1.87 -8.23,-3.58 -17.91,-3.58l-25.06 0c-13.01,0 -12.56,4.24 -25.07,7.16l0 -21.48 53.72 0zm-39.39 -143.18c6.06,22.68 18.61,19.46 21.52,60.82 2.82,40.11 3.35,40.06 10.72,71.62l-28.77 0.8 -32.11 -4.37c3.29,12.33 7.16,9.48 7.16,14.32 0,16.56 -5.86,23.74 -7.16,39.37l7.16 0c12.61,-10.95 30.32,-17.89 53.72,-17.89l14.32 0 -7.18 25.04c-7.36,-4.93 -9.28,-10.73 -17.89,-10.73l-14.33 0c-9.29,0 -19.59,15.41 -28.65,21.48l-13.55 29.87 13.52 -8.44 3.26 2.25 -24.2 38.54 20.97 -8.53 0 -7.16 7.16 0c3.18,8.75 4.12,10.73 17.9,10.73l7.17 0c10.92,0 14.45,-3.44 21,-7.09l4.07 14.25 3.58 -17.89 -3.58 -7.16c2.51,-5.06 3.58,-5.95 3.58,-14.32l0 -7.16c0,-9.67 -1.71,-9.87 -3.58,-17.89 10.2,-2.72 25.07,-29.11 25.07,-35.8l0 -10.74c0,-29.9 -21.49,-9.47 -21.49,-39.37l0 -7.16c0,-26.36 5.3,-50.98 3.71,-71.7 -1.07,-14.12 -19.18,-46.43 -28.79,-46.43 -9.58,0 -10.59,5.17 -14.32,10.74z"/>
  <polygon class="fil28" points="1622.92,674.65 1615.05,678.95 1622.21,686.11 "/>
  <polygon class="fil29" points="1755.43,692.54 1859.28,692.54 1895.11,657.11 1934.49,653.17 1737.52,653.17 "/>
  <polygon class="fil9" points="2013.28,692.54 2099.23,692.54 2127.88,656.75 2048.24,655.9 "/>
  <polygon class="fil30" points="1314.94,692.54 1311.36,699.7 1325.99,713.97 1321.91,688.66 "/>
  <path class="fil31" d="M1361.5 721.18c16.1,0 23.8,-6.25 25.07,-21.48 -5.4,6.21 -7.69,14.32 -17.91,14.32l-7.16 0c-13.1,0 -7.73,-9.69 -25.06,-14.32 5.05,9.55 10.08,21.48 25.06,21.48z"/>
  <path class="fil27" d="M1390.21 724.88c2.85,-12.62 7.1,-12.17 7.1,-25.17l1.47 -15.51 19.95 26.14 -28.53 14.55zm-28.71 -3.7c-14.99,0 -20.02,-11.93 -25.06,-21.48 17.33,4.63 11.97,14.32 25.06,14.32l7.16 0c10.23,0 12.51,-8.1 17.91,-14.32 -1.27,15.23 -8.98,21.48 -25.07,21.48zm-46.55 -28.64l6.97 -3.88 4.08 25.3 -14.63 -14.26 -10.74 -3.58 0 10.73c4.96,18.61 30.02,32.22 53.72,32.22l21.49 0c23.95,0 36.93,-10.7 45.62,-22.48l63.83 23.21 2.11 -5.93 -18.44 -5.55 -46.41 -36.21 24.92 7.57c-11.84,-17.65 -57.68,-50.11 -90.44,-48.89l11.64 9.51c-30.73,0 -61.31,16.12 -53.71,32.21z"/>
  <path class="fil32" d="M1652.18 703.69l-0.6 -7.56 0 -3.58c0,-10.23 -1.13,-6.54 -7.17,-10.73l0 17.89 0 7.16 -2.11 11.72 9.88 -14.89z"/>
  <path class="fil30" d="M1418.74 710.33l-19.95 -26.14 -1.47 15.51c0,13 -4.25,12.56 -7.1,25.17l28.53 -14.55z"/>
  <path class="fil33" d="M1297.03 656.75c3.87,8.22 -7.16,15.1 -7.16,32.21 0,8.72 6.58,13.11 10.74,17.89l0 -10.73 10.74 3.58 3.58 -7.16c-7.59,-16.1 22.98,-32.21 53.71,-32.21l-11.64 -9.51c32.75,-1.22 78.6,31.23 90.44,48.89l-24.92 -7.57 46.41 36.21 -39.4 -71.59 -74.85 -16.45c-11.42,0.28 -51.72,11.29 -57.66,16.45z"/>
  <path class="fil34" d="M1178.85 749.82l21.49 0 10.74 -3.58c0,-24.57 -7.17,-19.1 -7.17,-35.8l-0.18 -38.84 -6.98 -4.12c-41.45,-0.93 -61.46,-57.28 -82.37,-57.28 -8.36,0 -14.32,24.67 -14.32,35.8l0 21.48c0,32.59 50.61,75.77 78.78,82.33z"/>
  <polygon class="fil35" points="2335.59,832.15 2371.4,807.1 2370.55,659.48 2335.59,696.13 "/>
  <path class="fil8" d="M849.38 685.38c-10.23,43.87 -21.49,33.32 -21.49,100.24 14.91,-10.92 57.63,-109.56 103.86,-143.18 50.53,-36.74 86.57,-71.6 175.48,-71.6l57.3 7.16 0 -7.16c-23.7,-1.97 -28.9,-17.89 -64.46,-17.89l-28.66 0c-131.75,0 -199.59,126.46 -222.03,132.44z"/>
  <path class="fil6" d="M1067.84 935.96l-5.55 11.11 -1.62 -11.11c-24.38,16.32 -138.15,191.87 -146.82,229.09 30.66,-16.21 115.24,-68.01 157.57,-68.01l10.74 0c0.75,-33.29 50.16,-105.01 78.79,-107.39l-3.19 2.09 35.42 48.02c-1.65,-19.79 -10.74,-11.99 -10.74,-32.22l0 -35.79c0,-45.98 42.97,-98.27 42.97,-132.45l-26.87 18.24 16.13 -107.73c-43.8,29.32 -120.46,136.34 -146.82,186.14z"/>
  <path class="fil36" d="M1597.86 731.93c20.31,13.59 72.91,61.99 75.21,89.49l10.74 0 -28.66 -78.76 -4.07 -14.25c-6.55,3.66 -10.08,7.09 -21,7.09l-7.17 0c-13.78,0 -14.73,-1.98 -17.9,-10.73l-7.16 0 0 7.16z"/>
  <path class="fil37" d="M1429.54 656.75l39.4 71.59 18.44 5.55 -2.11 5.93 -63.83 -23.21c-8.69,11.78 -21.66,22.48 -45.62,22.48l-21.49 0c-23.7,0 -48.76,-13.62 -53.72,-32.22 -4.17,-4.79 -10.74,-9.18 -10.74,-17.89 0,-17.12 11.03,-24 7.16,-32.21l-17.87 3.7 17.87 -18.02 17.91 -17.9c25.07,-34.21 96.85,-17.89 153.99,-17.89l0 32.21 9.54 -14.96 -2.62 36.41 -21.25 0.03c-12.35,0 -13.87,-2.65 -25.07,-3.58zm75.21 -168.25c-11.97,17.86 -27,28.64 -57.3,28.64l3.58 -7.16 -7.16 0 -35.82 -21.48 -20.81 -18.6c-16.79,11.49 -60.8,57.91 -83.04,47.24 0,36.38 -32.41,82.86 -60.88,89.49l-10.74 7.16 -3.89 6.97 -10.44 0.19c3.72,5.55 10.74,13.03 10.74,21.48 0,1.9 -5.16,7.85 -7.16,10.73l-10.74 0 -14.33 14.32 6.98 4.12 0.18 38.84c0,16.7 7.17,11.23 7.17,35.8l3.58 3.58 -16.13 107.73 26.87 -18.24 4.58 14.93 5.7 -7.72 4.06 17.85 3.58 0c15.02,23.67 1.07,28.6 29.56,59.94 19.83,21.79 23.23,26.84 46.61,46.49 14.26,11.99 37.47,26.04 52.82,36.69 16.61,11.53 34.71,32.75 50.06,43.03l-17.9 -60.85 -25.74 -52.01 4.25 -1.69c-30.81,-8.22 -25.73,-60.85 -79.51,-61.58l7.88 -6.44 -3.58 -7.16 -21.49 7.16c3.73,-13.97 15.93,-14.75 28.66,-21.48l15.04 0.71 -7.88 6.45 71.19 -0.88 36.24 -17.01c0,-25.18 2.91,-36.49 18.99,-46.28l-8.51 37.22 100.55 -12.42 25.11 -0.86 91.47 3 -59.29 -84.47 -20.97 8.53 24.2 -38.54 -3.26 -2.25 -13.52 8.44 13.55 -29.87 0 -17.9 -7.16 0c1.3,-15.63 7.16,-22.81 7.16,-39.37 0,-4.84 -3.87,-1.99 -7.16,-14.32l32.11 4.37 28.77 -0.8c-7.36,-31.56 -7.9,-31.51 -10.72,-71.62 -2.91,-41.36 -15.46,-38.14 -21.52,-60.82l-50.14 25.05c-11.49,6.08 -25.94,19.27 -39.39,10.74l7.16 -25.06 4.35 -24.91 -36.59 24.91z"/>
  <polygon class="fil38" points="2335.59,832.15 2335.9,932.64 2371.4,889.43 2371.4,807.1 "/>
  <polygon class="fil10" points="1934.49,653.17 1895.11,657.11 1859.28,692.54 1934.49,692.54 1934.49,867.95 1941.65,864.37 1937.22,766.86 1973.88,731.93 1973.88,828.58 1977.47,828.58 1977.47,692.54 2013.28,692.54 2048.24,655.9 2127.88,656.75 2131.46,653.17 1977.47,653.17 1973.64,578 1937.22,612.94 "/>
  <path class="fil13" d="M2335.59 832.15l0 -136.02 34.96 -36.65 0.85 147.62 0 82.33 -35.5 43.21 -0.31 -100.49zm-35.82 -139.61l32.23 0 0 336.49 -78.78 0 -28.65 35.8 0 3.58c178.29,0 150.41,30.34 150.41,-146.76 0,-100.23 0,-200.46 0,-300.69l-75.21 71.59z"/>
  <path class="fil8" d="M1121.56 731.93l-7.17 -3.58c-51.03,4.25 -136.37,95.45 -161.15,132.45 1.77,-0.47 167.82,-128.19 168.32,-128.86z"/>
  <path class="fil39" d="M1307.77 860.79l14.33 -7.16 7.88 -6.45 -15.04 -0.71c-12.73,6.72 -24.92,7.51 -28.66,21.48l21.49 -7.16z"/>
  <polygon class="fil9" points="1941.65,864.37 1973.88,828.58 1973.88,731.93 1937.22,766.86 "/>
  <path class="fil40" d="M1472.42 832.51c19.25,19.86 68.59,49.67 75.3,74.81 22.34,-0.5 97.46,-63.85 107.39,-80.31l-182.69 5.5z"/>
  <path class="fil26" d="M1200.34 749.82c-34.85,30.28 -52.69,34.17 -84.54,76.59 -12.82,17.09 -65.36,82.16 -47.97,109.55 26.36,-49.8 103.02,-156.82 146.82,-186.14l-3.58 -3.58 -10.74 3.58z"/>
  <path class="fil41" d="M1776.91 989.66l21.49 0 10.74 -89.49c-31.61,7.36 -32.87,-5.73 -32.26,32.19 0.4,24.44 0.03,35.16 0.03,57.31z"/>
  <path class="fil42" d="M1569.21 928.8c11.82,7.91 23.04,14.32 42.98,14.32 41.6,0 66.22,-75.99 75.2,-114.55l-10.74 0c-27.19,7.25 -71.41,82.5 -111.32,93.25l3.89 6.97z"/>
  <path class="fil42" d="M1322.1 853.63l-14.33 7.16 3.58 7.16c9.6,-2.3 6.75,-3.58 14.33,-3.58 33.15,0 56.78,82.33 125.34,82.33l14.33 0c24.81,0 66.74,-21.11 71.62,-39.37 -16.69,-4.46 -53.31,-64.44 -103.32,-64.61l-4.12 -6.97 -36.24 17.01 -71.19 0.88z"/>
  <path class="fil19" d="M1751.85 989.66l3.58 0 3.58 -78.75 -17.9 0c0,10.18 -1.2,33.76 0.55,42.4 2.52,12.46 9.73,15.38 10.2,36.34z"/>
  <path class="fil43" d="M1422.38 978.92l2.89 -16.41 -31.54 -15.81c3.73,16.02 9.96,30.67 28.65,32.22z"/>
  <polygon class="fil15" points="1809.15,900.16 1798.4,989.66 1877.2,989.66 1877.2,839.31 "/>
  <path class="fil44" d="M1751.85 989.66c-0.47,-20.97 -7.68,-23.89 -10.2,-36.34 -1.75,-8.64 -0.55,-32.22 -0.55,-42.4l-10.74 -3.58 -3.58 10.73c-22.55,5.26 -50.14,20.13 -50.14,46.54l0 7.16c0,11.63 3.1,2.7 7.17,17.89l68.04 0z"/>
  <path class="fil27" d="M1422.38 978.92c-18.69,-1.56 -24.92,-16.2 -28.65,-32.22l31.54 15.81 -2.89 16.41zm232.73 -151.91c-9.93,16.46 -85.05,79.81 -107.39,80.31 -6.72,-25.14 -56.05,-54.95 -75.3,-74.81l182.69 -5.5zm-225.57 8.72l4.12 6.97c50.01,0.18 86.63,60.16 103.32,64.61 -4.88,18.27 -46.81,39.37 -71.62,39.37l-14.33 0c-68.56,0 -92.19,-82.33 -125.34,-82.33 -7.58,0 -4.72,1.29 -14.33,3.58l-7.88 6.44c53.78,0.72 48.7,53.35 79.51,61.58l-4.25 1.69 25.74 52.01c4.52,2.39 11.84,7.16 17.9,7.16 8.35,0 19.43,-19.82 21.49,-28.64l17.9 0c44.47,0 62.93,-28.72 90.32,-47.45l13.54 11.65 3.58 -3.58 -3.89 -6.97c39.91,-10.75 84.13,-86 111.32,-93.25l7.17 -7.16 -10.74 0c-2.3,-27.5 -54.9,-75.9 -75.21,-89.49l59.29 84.47 -91.47 -3 -25.11 0.86 -100.55 12.42 8.51 -37.22c-16.08,9.79 -18.99,21.1 -18.99,46.28z"/>
  <path class="fil15" d="M2178.01 993.23c1.95,-23.4 39.36,-80.37 47.95,-109.56 10.41,-35.37 38,-80.63 38.55,-122.84l6.61 -18.16 10.74 0 -254.27 -3.58 0 254.15 150.41 0z"/>
  <path class="fil45" d="M2178.01 993.23l28.65 0c3.7,-15.84 16.08,-31.35 23.92,-47.67 8.74,-18.19 10.77,-33.52 16.99,-54.62 4.93,-16.73 28.53,-102.26 34.3,-108.9l0 -39.37 -10.74 0 -6.61 18.16c-0.55,42.22 -28.14,87.47 -38.55,122.84 -8.59,29.19 -46.01,86.17 -47.95,109.56z"/>
  <path class="fil6" d="M1569.21 502.83l50.14 -25.05c3.73,-5.58 4.74,-10.74 14.32,-10.74 9.6,0 27.71,32.32 28.79,46.43 1.58,20.72 -3.71,45.34 -3.71,71.7l0 7.16c0,29.91 21.49,9.48 21.49,39.37l0 10.74c0,6.69 -14.88,33.08 -25.07,35.8 1.87,8.02 3.58,8.22 3.58,17.89l0 7.16c0,8.37 -1.07,9.26 -3.58,14.32l3.58 7.16c7.74,33.24 39.39,76.67 39.39,103.81l0 25.05c0,71.91 -79.35,92.58 -82.37,128.86 15.99,4.27 23.39,17.89 42.98,17.89l3.58 0c20.82,0 0,-14.97 0,-32.21l0 -10.73c0,-27.93 48.69,-41.75 60.68,-100.43 8.15,-39.86 18.11,-100.62 18.11,-146.56 0,-18.5 -42.98,-73.28 -42.98,-128.86l0 -57.28c0,-21.06 7.06,-39.98 14.33,-53.69 -5.71,-24.5 -73.48,-131.42 -89.54,-143.18 -5.84,11.05 -15.49,77.83 -18.17,96.38 -4.16,28.81 -21.95,58.72 -35.54,79.02z"/>
  <polygon class="fil46" points="2013.28,1003.97 2013.28,724.77 2292.61,724.77 2009.62,721.18 "/>
  <path class="fil7" d="M2292.61 724.77c6.04,4.19 7.16,0.51 7.16,10.73l0 264.89c0,8.25 -2.49,10.74 -10.74,10.74l-265.01 0c-10.09,0 -6.63,-1.55 -10.74,-7.16l-3.66 -282.79 283 3.58zm-315.15 103.81l0 200.45 168.31 0 107.44 0 78.78 0 0 -336.49 -32.23 0 -200.54 0 -85.95 0 -35.81 0 0 136.03z"/>
  <path class="fil47" d="M2281.87 742.66l0 39.37 0 211.2 -75.21 0 -28.65 0 -150.41 0 0 -254.15 254.27 3.58zm-268.59 261.31c4.11,5.61 0.66,7.16 10.74,7.16l265.01 0c8.25,0 10.74,-2.49 10.74,-10.74l0 -264.89c0,-10.23 -1.12,-6.55 -7.16,-10.73l-279.34 0 0 279.21z"/>
  <path class="fil48" d="M1633.66 1029.03l28.66 0 125.34 0 146.83 0 0 -161.08 0 -175.41 -75.21 0 -103.85 0 0 32.22 139.66 0 0 272.05c0,18.76 -72.89,10.73 -93.11,10.73 -35.82,0 -71.62,0 -107.44,0 -6.46,4.33 -6.29,7.16 -14.32,7.16l-14.33 0c-16.99,0 -25.87,-4.01 -40.76,-6.64l8.53 20.96z"/>
  <path class="fil49" d="M1458.19 1097.04l-35.82 -46.53c-15.36,-10.28 -33.46,-31.5 -50.06,-43.03 -15.35,-10.65 -38.56,-24.7 -52.82,-36.69 -23.38,-19.65 -26.78,-24.69 -46.61,-46.49 -28.49,-31.33 -14.54,-36.26 -29.56,-59.94 -1.87,8.03 -3.58,8.23 -3.58,17.9l0 21.48c0,42.97 73.64,80.85 105.02,99.05 23.43,13.6 41.23,25.85 60.68,43.17 19.6,17.46 25.8,44.79 52.76,51.07z"/>
  <polygon class="fil38" points="2224.57,1064.83 2253.22,1029.03 2145.78,1029.03 2113.55,1064.83 "/>
  <polygon class="fil28" points="1637.25,1050.51 1643.71,1049.84 1662.32,1029.03 1633.66,1029.03 "/>
  <polygon class="fil35" points="1938.08,1068.4 2224.57,1068.4 2224.57,1064.83 2113.55,1064.83 2145.78,1029.03 1977.47,1029.03 "/>
  <polygon class="fil24" points="1941.65,864.37 1934.49,867.95 1934.49,1029.03 1787.66,1029.03 1751.85,1068.4 1938.08,1068.4 1977.47,1029.03 1977.47,828.58 1973.88,828.58 "/>
  <path class="fil50" d="M1139.46 1104.2l28.65 -60.85 -17.9 -28.64 -7.17 0c-6.75,25.28 -35,46.3 -35.45,80.79l31.87 8.7z"/>
  <path class="fil7" d="M2271.13 266.58l100.27 3.77 3.58 100.04 0 250.57c0,100.23 0,200.46 0,300.69 0,177.1 27.88,146.76 -150.41,146.76l-286.5 0 -186.23 0 -107.44 0 0 32.22 759.22 0 0 -866.27 -120.16 0.67 -12.35 31.56z"/>
  <path class="fil51" d="M1637.25 1050.51c2.45,4.37 3.58,3.83 3.58,10.74l0 42.99 762.8 -3.61 -759.22 0 0 -32.22 107.44 0 35.81 -39.37 -125.34 0 -18.61 20.81 -6.47 0.67z"/>
  <path class="fil42" d="M1404.47 989.66l17.9 60.85 35.82 46.53c18.35,9.71 24.63,17.9 53.71,17.9 58.19,0 54.71,-19.34 61.56,-63.76 6.04,-39.11 29.19,-68.21 35.14,-93.74 -18.91,-0.43 -38.91,-9.85 -42.98,-25.06l-13.54 -11.65c-27.39,18.73 -45.85,47.45 -90.32,47.45l-17.9 0c-2.06,8.82 -13.14,28.64 -21.49,28.64 -6.07,0 -13.38,-4.77 -17.9,-7.16z"/>
  <path class="fil6" d="M827.89 785.62l25.07 150.34c4.78,-3.5 43.92,-85.08 56.31,-101.22 20.49,-26.68 49.47,-63.46 76.19,-81.34 -2.7,11.6 -65.22,94.38 -80,124.08 -11.84,23.79 -53.67,127.6 -70.41,133.65l0 -17.9c0,-30.45 -10.74,-44.7 -10.74,-71.59l-3.58 0c0,58.98 -32.23,99.89 -32.23,146.76 0,21.5 4.96,47.39 14.33,60.86 8.02,-96.44 272.87,-323.6 350.95,-375.86l-32.22 -21.48c-0.5,0.68 -166.55,128.39 -168.32,128.86 24.79,-37 110.12,-128.2 161.15,-132.45 -10.4,-15.53 -35.81,-33.71 -35.81,-60.85l0 -17.89c0,-34.6 14.75,-58.02 28.65,-78.76 -88.91,0 -124.96,34.85 -175.48,71.6 -46.23,33.62 -88.94,132.26 -103.86,143.18z"/>
  <path class="fil8" d="M802.83 1129.26l0 3.58c6.61,-2.39 59.6,-80.94 70.69,-94 26.57,-31.28 51.12,-56.74 77.06,-87.64 17.01,-20.26 155.85,-154.38 170.98,-158.42l42.97 -35.8 -10.74 -3.58c-78.08,52.26 -342.93,279.42 -350.95,375.86z"/>
  <path class="fil52" d="M1193.18 1039.77l99.7 71.14 18.48 -21.03c-0.44,20.12 -7.16,19.92 -7.16,39.38 0,28.77 48.41,54.09 68.71,67.35 31.22,20.39 52.76,40.96 78.12,57.93l3.86 -1.72 -37.5 -83.39 27.03 20.56 -4.13 -21.36c22.1,25.42 82.46,102.39 114.6,110.97l0 -39.38c0,-29.17 13.28,-69.15 35.92,-75.13l-18.01 53.66c25.78,-29.65 53.72,-86.28 53.72,-143.19l0 -7.16c0,-20.78 -14.14,-67.17 -27.31,-75.42l-8.49 100.49c-10.36,15.46 -43.55,42.96 -68.05,42.96 -101.52,0 -100.14,-55.77 -156.93,-100.87 -34.76,-27.62 -51.5,-24.72 -83.8,-45.11 -21.81,-13.77 -52.93,-46.13 -52.93,-79.53 0,-18.9 4.21,-34.21 10.74,-46.54l-4.06 -17.85 -5.7 7.72 -4.58 -14.93c0,34.18 -42.97,86.47 -42.97,132.45l0 35.79c0,20.24 9.1,12.43 10.74,32.22z"/>
  <path class="fil37" d="M2013.28 1182.96l3.58 0c53.26,0 89.47,-25.12 111.02,-57.28l-239.94 0c21.23,18.45 86.58,57.28 125.34,57.28z"/>
  <path class="fil53" d="M802.83 1132.84l25.06 71.6c5.34,-8.41 16.76,-52.92 20.97,-64.96 7.9,-22.54 19.35,-38.98 30.39,-59.11 22.44,-40.95 44.97,-67.73 71.84,-103.61 47.94,-63.98 131.2,-125.37 170.47,-183.98 -15.13,4.04 -153.97,138.16 -170.98,158.42 -25.94,30.9 -50.49,56.36 -77.06,87.64 -11.09,13.06 -64.08,91.61 -70.69,94z"/>
  <path class="fil54" d="M1690.97 1168.64c57.92,0 138.53,81.6 139.66,132.44l32.23 0c-17.63,-26.31 -38.91,-38.7 -57.35,-75.12 -10.79,-21.29 -35.11,-71.12 -35.76,-100.28l-121.76 0c5.13,7.66 16.09,23.29 17.64,32.57 5.11,30.62 4.8,10.39 25.34,10.39z"/>
  <path class="fil50" d="M2063.41 1250.97l69.48 -2.82 48.7 -97.42c-6.54,2.37 -38.33,49.82 -47.51,59.91 -39.09,43 -39.39,18.6 -70.68,40.33z"/>
  <path class="fil4" d="M1164.53 756.98l-42.97 35.8c-39.27,58.61 -122.53,120 -170.47,183.98 -26.87,35.87 -49.4,62.66 -71.84,103.61 -11.04,20.14 -22.49,36.57 -30.39,59.11 -4.21,12.03 -15.63,56.55 -20.97,64.96l14.33 57.27c11.42,-16.43 17.35,-37.81 28.56,-53.78 12.12,-17.26 34.66,-30.33 43.06,-42.87 8.68,-37.22 122.45,-212.77 146.82,-229.09l1.62 11.11 5.55 -11.11c-17.39,-27.4 35.15,-92.46 47.97,-109.55 31.84,-42.42 49.68,-46.31 84.54,-76.59l-21.49 0 3.89 6.97 -18.22 0.19z"/>
  <path class="fil24" d="M1585.58 1239.44l-12.79 -2.79 0.65 44.52 74.56 -30.2c-9.25,-17.48 -28.65,-22.31 -28.65,-39.37 0,-26.47 14.37,-41.3 25.39,-57.43l-7.23 -15.77 -51.92 101.05z"/>
  <path class="fil55" d="M1923.75 1293.93c3.07,-0.26 55.79,-21.26 64.96,-24.55 26.36,-9.48 46.32,-11.8 74.7,-18.4 31.29,-21.73 31.59,2.68 70.68,-40.33 9.18,-10.09 40.97,-57.54 47.51,-59.91l3.58 -25.05 -7.16 0c-11.27,48.37 -61.72,103.81 -121.76,103.81l-21.49 0c-12.35,0 -13.87,-2.65 -25.06,-3.58l0 -7.15c79.19,-1.77 125.69,-39.62 153.99,-93.08l-14.33 0c-17.96,33.93 -64.65,82.33 -114.6,82.33l-35.81 0c-53.08,0 -107.01,-49.61 -128.93,-82.33l-57.3 0c2.45,29.48 93.9,163.67 111.02,168.25z"/>
  <path class="fil50" d="M1923.75 1293.93c-17.12,-4.58 -108.56,-138.77 -111.02,-168.25l57.3 0 -78.78 0c9.97,42.76 69.39,208.27 132.5,168.25z"/>
  <path class="fil56" d="M1472.51 1272.45l0 17.89c0,8.03 -2.83,7.85 -6.81,16.19l67.64 -12.87 3.16 -3.23 -74.74 -68.1c4.05,17.37 10.74,28.3 10.74,50.12z"/>
  <path class="fil21" d="M1139.46 1104.2c50.4,24.17 95.1,39.17 138.69,72.57 34.38,26.33 24.21,21.28 38.97,64.85 9.55,28.22 22.75,48.6 37.25,70.91l89.49 -4.3 10.74 0c-15.34,-65.8 -164.74,-111.01 -164.74,-164.65l0 -21.48c-48.14,-4.01 -89.77,-57.34 -121.76,-78.76l-28.65 60.85z"/>
  <path class="fil57" d="M1479.67 1322.56l15.67 -1.76 127.58 102 28.66 -10.74c0,-58.5 30.29,-87.25 0.65,-148.96l-73.95 34.88 -1.91 -4.04 0 39.37c0,9.57 -5.17,10.59 -11.17,14.84l-7.76 -8.44 -12.61 -36.26 -65.16 19.12z"/>
  <path class="fil58" d="M1669.48 1193.69c30.54,16.15 48.33,43.15 66.64,73 20.24,33 9.89,88.09 55.12,88.09l39.39 0c57.29,0 130.42,-13.17 168.32,-32.22 56.55,-28.43 85.55,-34.18 153.99,-50.11 -42.72,-27.09 -165.45,29.89 -193.39,32.21l10.74 14.75 -78.79 -0.45 -125.23 11.86 -1.05 -3.93 36.75 -11.5c-1.4,-62.86 -60.83,-128.86 -114.6,-128.86 -11.68,0 -11.79,1.85 -17.9,7.16z"/>
  <path class="fil59" d="M1676.64 1286.77c26.63,9.63 35.82,91.55 35.82,136.02 4.18,6.24 11.59,17.89 21.49,17.89l14.32 0c38.85,0 79.71,-26.7 118.18,-28.64 61.83,-3.11 78.71,-4.57 126.83,-23.57 35.28,-13.93 65.26,-29.26 102.38,-44.43 24.11,-9.85 83.21,-37.24 89.52,-60.86l-17.9 -10.73 -14.32 0c-68.44,15.93 -97.44,21.68 -153.99,50.11 -37.9,19.05 -111.04,32.22 -168.32,32.22l-39.39 0c-45.23,0 -34.88,-55.09 -55.12,-88.09 -18.31,-29.84 -36.1,-56.84 -66.64,-73l-8.9 3.96 -5.43 -32.6c-10.9,7.99 -17.9,24.4 -17.9,42.96 0,0.05 34.06,55.86 39.39,78.76z"/>
  <path class="fil60" d="M1261.22 1437.11c-6.16,-26.43 -66.14,-104.73 -89.53,-110.97 6.29,23.54 63.35,103.98 89.53,110.97z"/>
  <path class="fil57" d="M1368.65 1472.9c-1.07,-47.9 -65.99,-66 -84.53,-94.48 -26.48,-40.69 -49.32,-66.56 -90.19,-92.42 -31.15,-19.71 -86.33,-45.2 -126.82,-52.22 -20.01,-3.46 -169.94,-10.65 -171.18,-11.45l-17.73 27.16 121.58 -9.26c24.56,-2.1 75.72,11.48 93.69,17.34 38.68,12.61 42.83,32.64 68.61,45.95 50.22,25.92 83.99,66.79 109.88,115.69 42.29,-20.28 79.2,33.58 96.69,53.69z"/>
  <path class="fil61" d="M895.94 1222.33c1.24,0.8 151.18,7.98 171.18,11.45 40.49,7.02 95.67,32.51 126.82,52.22 40.86,25.86 63.71,51.73 90.19,92.42 18.53,28.48 83.46,46.58 84.53,94.48l0 10.74c71.1,-16.56 209.92,-22.32 254.27,-60.85l-127.58 -102 -15.67 1.76 -75.2 7.16 -18 0.82 -46.47 -4.4c-22.81,-34.06 -42.98,-56.07 -42.98,-114.55 -13.1,-3.5 -78.37,-48.22 -101.47,-59.66 -41.73,-20.66 -62.83,-36.99 -124.15,-36.99 -39.54,0 -156.67,79.31 -175.47,107.39z"/>
  <path class="fil50" d="M1207.5 1476.49c11.01,0 -9.22,39.99 -10.74,46.53 12.23,-8.96 28.65,-35.1 28.82,-56.93l-18.08 10.4z"/>
  <path class="fil50" d="M1200.34 1562.39c19.01,30.59 -113.61,202.16 -121.76,232.68 34.35,-9.17 142.15,-204.89 143.25,-254.15l-5.41 1.34 -16.08 20.14z"/>
  <path class="fil50" d="M1196.76 1497.96l-171.9 182.56c-32.06,0 -91.59,-48.19 -114.01,-65.02 -38.89,-29.21 -68.14,-47.1 -86.66,-95.95 -48.82,-128.85 28.11,-171.85 71.74,-254.27l96.69 0c-16.6,-10.53 -72.54,-5.41 -96.81,-3.7 -21.98,1.55 -48.27,26.14 -59.34,40.92 -15.66,20.88 -27.87,37.38 -40.76,59.49 -11.69,20.05 -21.37,47.71 -35.86,64.37 15.03,28.41 25.06,67.47 25.06,110.97l0 14.32c14.09,3.76 31.82,37.33 43.84,49.25 21.14,20.98 28.07,27.21 52.85,43.83 31.56,21.17 87.97,53.71 121.77,71.59 51.53,-34.49 163.03,-161.02 193.39,-218.36z"/>
  <path class="fil57" d="M1766.17 1587.46l75.21 78.75 0 71.6 53.82 -192.38 -64.57 6.24c-17.58,11.76 -31.72,27.99 -60.57,28.82l-3.89 6.97z"/>
  <path class="fil59" d="M1318.52 1562.39c-13.38,8.96 -50.73,59.57 -63.49,76.14 -12.51,16.26 -34.77,82.3 -36.78,106.42l-7.16 57.27c-2.81,17.28 61,39.73 75.2,46.53 35.46,-23.73 68.11,-51.32 107.44,-71.59 37.09,-19.12 76.82,-41.82 115.83,-63.2 51.91,-28.46 152.76,-132.39 152.76,-205.28 0,-18.09 -12.92,-35.8 -32.23,-35.8 -33.35,0 -129.72,32.18 -157.52,43.01 -46.54,18.14 -102.25,34.42 -154.05,46.48z"/>
  <path class="fil61" d="M1547.72 1855.92c8.55,4.97 54.86,-17.13 71.07,-22.03 36.99,-11.2 39.01,-14.28 67.62,-36.21 13.72,-10.5 114.85,-84.94 122.73,-84.94 8.38,0 14.33,5.95 14.33,14.32 0,38.74 -97.65,115.03 -93.11,125.29l102.31 -75.53 8.71 -39.01 0 -71.6 -75.21 -78.75c-14.84,9.93 -77.58,121.63 -95.25,148.2 -39.22,58.93 -65.7,81.79 -123.2,120.27z"/>
  <path class="fil7" d="M1196.76 1497.96l10.74 -21.48 18.08 -10.4c-0.18,21.83 -16.6,47.98 -28.82,56.93 -12.59,14.48 -26.8,40.2 -39.39,57.28 -14.35,19.45 -29.25,34.66 -43.64,53.03 -15.56,19.85 -88.86,88.16 -88.86,108.05l0 7.16c0,17.51 13.57,38.84 25.07,46.53 4.21,-18.08 61.83,-95 76.17,-113.57 28.77,-37.26 48.51,-80.69 74.24,-119.1l16.08 -20.14 5.41 -1.34c-1.1,49.27 -108.9,244.98 -143.25,254.15l-3.58 10.74c10.11,0.83 14.33,-0.08 14.33,10.73l0.8 7.28 -4.38 32.09 71.62 0 0 -10.73c0,-1.29 103.61,-295.18 109.92,-300.18l-12.04 64.82 95.5 -129.76c-21.67,-24.92 -36.84,-44.75 -75.21,-53.69l0 25.05 -25.06 0c-77.89,0 -46.98,-186.13 -257.85,-186.13l-96.69 0c-43.63,82.41 -120.57,125.42 -71.74,254.27 18.52,48.85 47.77,66.73 86.66,95.95 22.41,16.83 81.95,65.02 114.01,65.02l171.9 -182.56z"/>
  <path class="fil62" d="M1164.53 1873.82l-50.14 0c5.42,20.27 72.26,82.33 100.27,82.33 19.83,0 24.37,-13.32 30.82,-23.47l-66.11 -59 3.08 -3.45c-8.04,1.87 -8.23,3.58 -17.91,3.58z"/>
  <path class="fil57" d="M1340.29 1945.19c17.4,4.34 53.43,28.75 53.43,46.76l0 14.32c-8.03,1.87 -8.23,3.58 -17.9,3.58l-35.82 0c-23.52,0 -62.89,-7.21 -75.14,-18.46l46.5 4.14 66.71 -1.75 -37.77 -48.59zm207.43 -89.27c-32.98,17.45 -93.08,42.2 -133.97,52.24 -8.07,1.97 -76.95,15.4 -77.44,15.65 -16.94,8.63 -43,31.7 -71.5,18.02 -8.94,13.34 -21.54,35.8 -42.98,35.8l-3.58 0c-49.13,0 -72.34,-46.61 -96.69,-64.44 5.47,65.76 95.44,74.25 124.58,103.47l-67.28 -17.56c15.17,20.7 68.97,42.96 107.43,42.96l53.72 0c14.18,0 95.28,-40.59 116.03,-48.68 19.02,-7.42 42.27,-15.28 62.24,-20.12 49.91,-12.09 26.5,5.02 52.28,-30.08 13.16,-17.94 159.51,-131.13 184.88,-148.11 -12.59,47.11 -146.87,129.07 -168.32,161.09 39.85,-3.32 56.3,-22.28 77.9,-43.85 14.05,-14.03 58.67,-49.99 65.35,-59.96 -4.54,-10.26 93.11,-86.55 93.11,-125.29 0,-8.37 -5.95,-14.32 -14.33,-14.32 -7.88,0 -109.02,74.44 -122.73,84.94 -28.61,21.92 -30.63,25.01 -67.62,36.21 -16.21,4.91 -62.52,27.01 -71.07,22.03z"/>
  <path class="fil8" d="M2185.17 1283.18c-6.31,23.62 -65.41,51.02 -89.52,60.86 -37.12,15.17 -67.1,30.5 -102.38,44.43 -48.12,19.01 -64.99,20.46 -126.83,23.57 -38.47,1.94 -79.33,28.64 -118.18,28.64l-14.32 0c-9.9,0 -17.31,-11.65 -21.49,-17.89 0,-44.48 -9.19,-126.39 -35.82,-136.02l-3.58 132.44c-69.17,36.59 -174.42,75.17 -281.12,73.18l-73.43 70c51.79,-12.06 107.51,-28.34 154.05,-46.48 27.81,-10.84 124.17,-43.01 157.52,-43.01 19.31,0 32.23,17.71 32.23,35.8 0,72.88 -100.85,176.82 -152.76,205.28 -39.01,21.38 -78.75,44.08 -115.83,63.2 -39.33,20.27 -71.99,47.86 -107.44,71.59 -14.2,-6.81 -78.01,-29.25 -75.2,-46.53l7.16 -57.27c-4.21,6.62 -39.39,103.25 -39.39,110.96 0,7.11 89.82,71.6 111.02,71.6 26.68,0 62.19,-37.42 86.62,-42.7l-4.25 10.48c70.51,-5.87 187.42,-62.32 228.39,-101.04 52,-49.15 95.97,-134.45 136.9,-196.07 54.46,-82.02 138.15,-60.82 238.44,-94.58 44.13,-14.84 73.05,-33.16 104.49,-60.22 20.42,-17.57 69.23,-66.58 76.88,-90.72l-212.09 113.07c3.6,-43.27 108.41,-77.29 146.88,-96.6 31.46,-15.79 128.87,-74.36 128.87,-114.6l-0.54 -11.51 -31.7 18.67c2.3,9.6 3.58,6.75 3.58,14.32 0,5.23 -4.42,5.25 -7.17,7.16z"/>
  <path class="fil63" d="M1378.07 1993.78l-66.71 1.75 -46.5 -4.14c12.25,11.25 51.63,18.46 75.14,18.46l35.82 0c9.67,0 9.87,-1.71 17.9,-3.58l0 -14.32c0,-18.01 -36.03,-42.41 -53.43,-46.76l37.77 48.59z"/>
  <path class="fil64" d="M1668.43 1943.88c34.88,4.34 40.44,59.56 40.44,98.18 8.57,-9.85 14.33,-24.73 14.33,-42.96 0,-31.36 -10.74,-50.58 -10.74,-71.59l-1.36 -12.73 -42.66 29.09z"/>
  <path class="fil65" d="M1246.89 2120.82c0,-5.02 4.88,-7.16 10.74,-7.16l14.33 0c6.92,0 14.32,6.38 14.32,10.73 0,4.35 -7.4,10.74 -14.32,10.74 -10.19,0 -25.07,-7.17 -25.07,-14.32zm-28.65 -7.16c1.15,13.78 11.78,32.21 25.07,32.21l50.14 0c3.83,-14.33 10.74,-11.73 10.74,-28.64 0,-9.67 -1.71,-9.86 -3.58,-17.89l-53.72 0c-8.82,0 -15.58,10.83 -28.65,14.32z"/>
  <path class="fil66" d="M1615.76 1970.47c5.67,24.29 21.49,40.73 21.49,75.17l0 17.89c0,20.52 -5.71,25.6 -7.16,42.96 35.78,-8.34 57.3,-27.87 57.3,-71.6l0 -14.32c0,-23.41 -4.65,-71.59 -25.06,-71.59 -6.28,0 -39.74,17.87 -46.56,21.48z"/>
  <path class="fil27" d="M1257.64 2113.66c-5.86,0 -10.74,2.14 -10.74,7.16 0,7.15 14.88,14.32 25.07,14.32 6.92,0 14.32,-6.39 14.32,-10.74 0,-4.35 -7.4,-10.73 -14.32,-10.73l-14.33 0z"/>
  <path class="fil64" d="M1580.29 1982.31c6.04,26.27 13.99,40.86 13.99,77.65 0,29.29 -8.72,54.67 -14.32,78.75 18.52,-9.8 39.39,-56.59 39.39,-85.91 0,-37.36 -12.37,-55.36 -14.13,-78.15l-24.92 7.65z"/>
  <path class="fil67" d="M1647.99 2120.82c16.65,6.02 15.64,61.71 18.26,81.98 2.7,20.92 14.62,64.56 22.68,79.01l9.41 -185.6 -50.35 24.61z"/>
  <path class="fil64" d="M1404.47 2199.57l28.65 0c22.15,0 57.56,-14.44 74,-22.68 26.68,-13.37 46.96,-15.49 54.92,-45.33 -27.4,2.28 -79.33,53.69 -132.5,53.69 -19.55,0 -35.81,-27.56 -35.81,-50.11l0 -14.32c0,-70.76 63.8,-96.65 136.09,-96.65 -43.89,30.48 -113.04,8.43 -114.91,77.54l95.98 -24.28 1.01 4c-9.09,12.4 -78.71,32.22 -100.27,32.22l0.04 21.6 100.24 -25.18c-5.21,19.55 -69.59,35.8 -96.69,35.8 2.67,9.98 13.23,25.05 25.06,25.05l7.17 0c24.54,0 55.96,-22.56 75.2,-32.21 33.06,-16.58 50.14,-7.53 50.14,-57.28l0.8 -60.97 -4.37 -32.09c-49.1,4.08 -142.42,29.15 -170.54,51.48 -30.78,24.43 -48.01,159.72 5.8,159.72z"/>
  <path class="fil64" d="M1184.69 2109.92l1.32 10.9c0,30.49 9.53,33.78 28.65,42.95l0 -17.89c-5.19,-7.75 -10.74,-11.92 -10.74,-25.05 0,-10.39 31.32,-35.8 39.4,-35.8l68.04 0c0.54,24.25 14.33,28.23 14.33,60.85l0 35.8 25.06 0 0 -53.69c0,-30.83 13.81,-41.16 14.33,-64.44 -11.21,0.94 -12.73,3.58 -25.07,3.58l-39.39 0c-42.02,0 -79.7,-17.54 -106.77,-32.13l-9.16 74.93z"/>
  <path class="fil68" d="M1182.44 2188.83l-7.24 57.07 9.7 -3.56 8.29 -60.68c1.38,-8.9 -6.11,-11.22 -10.74,-14.32l0 21.48z"/>
  <path class="fil64" d="M1359.18 2260.25c-0.06,9.18 -3.82,9.27 -4.84,21.65l10.74 0c18.58,0 17.09,-49.15 20.71,-66.79l-35.17 -19.11 8.56 64.25z"/>
  <path class="fil69" d="M1207.76 2182.34l-0.26 27.97c0,12.34 -2.65,13.86 -3.07,23.68l21.92 8.42 -8.04 -64.13 -10.56 4.06z"/>
  <path class="fil64" d="M1708.87 2299.79l10.74 0c19.59,0 26.99,-13.62 42.98,-17.89l0 -7.16c-28.73,-7.67 -36.53,-41.08 -53.72,-60.85l0 85.91z"/>
  <polygon class="fil69" points="1317.68,2256.77 1318.49,2271.33 1339.41,2274.68 1343.59,2221.04 1343.59,2195.99 1322.74,2196.04 "/>
  <path class="fil6" d="M584.37 2242.52c-6.59,-28.31 -17.9,-29.36 -17.9,-75.17l0 -25.06c0,-28.55 11.35,-66.99 17.16,-90.22 11.77,-46.97 11.49,-37.63 11.49,-88.75 15.14,17.41 39.39,149.2 39.39,189.72 0,24.14 -12.75,78.75 10.74,78.75l7.16 0c14.39,0 26.54,-30.35 25.77,-43.03l-4.28 -42.87c11.98,8.77 17.91,32.92 17.91,53.69l0 17.89c0,31.95 -26.35,60.57 -10.74,93.08 25.76,-29.62 71.62,-154.98 71.62,-214.78 0,-43 -48.97,-111.3 -75.21,-128.86l0.26 29.19 -18.16 6.61c-10.56,-45.31 -83.98,-134.62 -118.19,-157.5 11.15,41.74 39.39,58.53 39.39,128.86l0 14.32c0,68.57 -42.97,103.73 -42.97,157.5 0,35.47 25.38,82.47 46.55,96.65z"/>
  <path class="fil70" d="M1275.54 2306.95l14.33 0 -3.58 -32.21 -0.85 -32.27 4.44 -75.12 -42.98 0c-10.92,0 -14.45,-3.44 -20.72,-7.29l20.74 143.23 28.63 3.66z"/>
  <path class="fil71" d="M1289.87 2306.95l-14.33 0 35.82 3.58c-0.94,-11.2 -3.58,-12.72 -3.58,-25.05l-1.83 -36.07 12.58 -92.81 0 -14.32c-11.25,4.08 -21.49,16.98 -21.49,32.22l0 132.44 -7.16 0z"/>
  <path class="fil66" d="M1131.4 2266.36c14.48,21.5 40.31,38.69 61.83,51.28 21.15,12.37 63.34,21.58 78.74,32.27 -77.22,0 -102.55,-44.35 -143.25,-71.59 10.57,45.34 40.35,113.8 55.17,166.78 16.72,59.73 50.92,101.68 123.89,101.68l0 -175.4c16.31,11.95 14.33,128.28 14.33,164.66 33.76,-22.6 29.43,-71.71 36.6,-120.92 5.79,-39.64 29.36,-104.66 31.44,-129.65 -18,20.69 -31,50.11 -71.62,50.11l-35.81 0c-43.21,0 -130.25,-55.29 -132.79,-82.72l-18.52 13.49z"/>
  <path class="fil66" d="M1706.64 2341.82l5.82 276.56c24.8,-35.7 71.62,-246.98 72.72,-316.44l-78.53 39.88z"/>
  <path class="fil72" d="M835.06 2750.83c23.19,14.71 69.26,-17.82 81.55,-29.45 17.85,-16.88 35.94,-46.87 45.99,-72.15 22.84,-57.44 25.55,-135.53 45.69,-194.17 10.31,-30.01 11.23,-66.97 20.61,-97.53 10.38,-33.82 19.61,-56.93 31.26,-86.87 17.19,-44.13 68.09,-111.23 104.37,-135.52l3.58 -50.12c-99.66,66.71 -160.09,170.87 -193.41,304.24 -39.34,157.48 -14.12,277.54 -139.64,361.57z"/>
  <path class="fil57" d="M1451.02 2657.76l-14.32 193.3 -1.95 179.14 9.11 143.03c13.37,57.37 32.23,116.94 32.23,189.72l2.66 72.01 -16.99 114.13 35.82 0c34.33,0 126.74,-35.52 143.25,-25.06l78.78 -46.53 -21.49 -60.85c-21.81,13.84 -53.29,-13.67 -68.04,-21.48 14.75,-177.26 14.33,-382.65 14.32,-572.74 0,-91.68 7.63,-194.34 7.15,-286.39 -0.19,-35.55 -0.06,-270.33 10.76,-282.77 -14.37,-29.93 -14.33,-86.86 -14.33,-132.44 -66.16,15.4 -50.14,32.16 -50.14,110.96 0,75.96 10.91,94.83 -21.49,143.18 11.31,3.75 -0.53,15.38 -7.16,28.64 -5.98,11.95 -11.94,23.82 -17.93,35.77 -12.29,24.53 -23.72,47.48 -35.79,71.62 -11.63,23.26 -22.37,44.99 -34.61,69.21 -13.18,26.05 -16.92,53.14 -29.85,77.55z"/>
  <path class="fil61" d="M1698.13 3416.64l-21.49 -193.3c-5.66,-59.1 0.41,-238.38 6.91,-293.78 5.38,-45.8 -0.09,-100.8 6.66,-143.69 3.37,-21.47 1.73,-48.26 4.73,-70.44 2.87,-21.32 6.77,-43.32 6.77,-68.4 -28.11,-41.96 -14.33,-273.27 -15.35,-350.17l-24.04 -43.6c-10.83,12.45 -10.95,247.23 -10.76,282.77 0.48,92.05 -7.15,194.71 -7.15,286.39 0.01,190.09 0.44,395.48 -14.32,572.74 14.75,7.81 46.23,35.32 68.04,21.48z"/>
  <path class="fil8" d="M584.37 2242.52c7.82,11.67 23.9,28.64 42.98,28.64l10.74 0c-1.42,12.94 -4.16,14.32 -17.9,14.32l-14.33 0 0 32.21c0,88.69 -71.62,170.76 -71.62,293.53 0,86.23 30.69,136.03 74.31,179.87 28.43,28.56 118.95,81.44 172.8,81.44 137.02,0 196.02,-118.14 231.24,-223.48 19.26,-57.59 30.58,-118.17 45.94,-179.59 8.14,-32.54 14.99,-60.57 27.18,-87.37 13.67,-30.04 29.7,-46.42 43.01,-71.56 -2.99,-12.81 -7.16,-16.82 -7.16,-32.21 0,-30.02 31.06,-17.37 40.11,-45.83 5.82,-18.32 8.66,-51.06 12.64,-71.92l-9.78 -25.43c-36.28,24.29 -87.18,91.38 -104.37,135.52 -11.65,29.94 -20.88,53.05 -31.26,86.87 -9.38,30.57 -10.3,67.52 -20.61,97.53 -20.15,58.64 -22.85,136.73 -45.69,194.17 -10.05,25.29 -28.14,55.27 -45.99,72.15 -12.29,11.63 -58.36,44.16 -81.55,29.45 -12.81,8.57 -25.31,17.89 -46.56,17.89l-46.55 0c-70.89,0 -136.09,-105.22 -136.09,-189.72l0 -7.16c0,-63.52 11.37,-93.06 27.3,-140.95 13.06,-39.29 40.6,-89.05 47.9,-120.36 -15.61,-32.5 10.74,-61.12 10.74,-93.08l0 -17.89c0,-20.78 -5.94,-44.92 -17.91,-53.69l4.28 42.87c0.77,12.68 -11.37,43.03 -25.77,43.03l-7.16 0c-23.5,0 -10.74,-54.61 -10.74,-78.75 0,-40.51 -24.25,-172.3 -39.39,-189.72 0,51.12 0.29,41.78 -11.49,88.75 -5.82,23.23 -17.16,61.68 -17.16,90.22l0 25.06c0,45.81 11.31,46.87 17.9,75.17z"/>
  <path class="fil67" d="M1443.86 3173.23l-9.11 -143.03 1.95 -179.14 14.32 -193.3c-9.32,17.6 -57.3,106.44 -57.3,121.71l0 14.32c0,127.13 25.83,275.18 50.14,379.44z"/>
  <path class="fil61" d="M802.83 3434.54c25.95,-6.05 90.88,-32.18 118.62,-42.51 20.64,-7.69 40.05,-13.39 61.76,-20.6 51.76,-17.2 20.03,-2.08 43.72,-38.63 32.55,-50.23 76.9,-164.95 98.71,-227.09 45.89,-130.76 136.73,-342.74 207.21,-447.95 -12.73,-24.04 -158.24,-166.23 -182.64,-182.56 -42.22,181.1 -93.43,334.17 -149.07,502.49 -24.29,73.48 -62.99,162.14 -95.61,230.17 -36.39,75.91 -64.31,154.15 -102.7,226.67z"/>
  <path class="fil73" d="M885.2 3584.88l0 -7.16c17.39,1.44 63.71,16.88 78.77,14.23l89.55 -14.23c-10.9,7.57 -64.86,29.97 -79.59,31.68 -29.04,3.36 -66.26,-19.29 -88.72,-24.52zm265.01 -1109.68c24.4,16.33 169.91,158.52 182.64,182.56 -70.49,105.21 -161.32,317.18 -207.21,447.95 -21.8,62.14 -66.16,176.86 -98.71,227.09 -23.68,36.55 8.04,21.43 -43.72,38.63 -21.71,7.21 -41.12,12.91 -61.76,20.6 -27.74,10.34 -92.67,36.47 -118.62,42.51 -7.5,11.81 -3.57,42.74 -3.58,60.85 -0.03,31.24 -8.11,44.72 17.43,39.29 38.36,-8.17 72.33,-14.24 118.66,-14.24 -18.77,25.59 -127.36,40.37 -153.99,57.28l297.24 71.59 14.32 -3.58c20.36,-244.49 119.19,-470.31 189.31,-669.89 38.02,-108.21 82.99,-200.26 131.79,-297.82 24.09,-48.15 48.84,-93.97 72.84,-141.98 12.62,-25.26 71.32,-126.53 74.48,-143.93l-27.93 25.8c4.4,-52.84 46.91,-52.02 46.6,-114.51 -0.31,-60.45 2.94,-103.64 7.12,-153.97 -32.84,2.73 -69.28,71.6 -186.23,71.6 1.87,8.03 3.58,8.23 3.58,17.89l0 10.74c0,21.15 -14.8,65.59 -17.99,85.82 -4.85,30.8 -6.29,58.1 -11.41,92.41 -1.92,12.85 -10.18,81.03 -14.83,88.98 -9.73,16.61 -33.1,47.79 -56.05,47.79l-10.74 0c-59.22,0 -127.86,-72.98 -132.5,-128.86l-3.67 -0.81 -7.08 40.18z"/>
  <path class="fil47" d="M648.83 3796.08c0,-11.64 3.1,-2.7 7.16,-17.9 20.56,1.71 46.35,16.68 71.62,17.91 30.21,1.47 52,7.15 85.96,7.15l17.9 0 0.38 3.6 175.1 -21.51c8.79,-0.92 9.12,1.54 17.9,3.58l0.19 15.46 -189.36 31.32 -0.63 -3.83 -28.66 0c-35.81,0 -157.57,-10.01 -157.57,-35.79zm25.06 -68.01c0,-27.5 130.59,-60.85 171.91,-60.85l28.65 0c66.83,0 73.06,13.97 111.02,39.37l0 17.89c9.01,6.04 17.9,17.42 17.9,32.21l-0.03 20.68 -161.13 4.38 -7.37 2.32 -160.95 -16.64 0 -39.37zm777.13 -17.9l132.5 10.74c11.18,0.87 7.76,-2.45 21.49,-3.58l0 10.74 -139.66 0c-11.84,0 -12.91,-6.86 -14.33,-17.9zm-436.91 -7.16c5.02,0 7.16,4.88 7.16,10.74l-0.15 39.46 -21.34 -32.3c2.58,-4.87 7.85,-17.9 14.33,-17.9zm432.36 -42.84l47.52 3.46 32.23 0c27.16,0 44.87,-10.73 60.88,-10.73 4.95,0 28.81,30.68 31.68,35.53l-6.6 18.16 -21.56 1.33 -139.53 -8.5 -4.61 -39.25zm441.81 -28.97c49.24,0.22 105.87,-2.96 149.77,4.09 33.24,5.35 71.92,46.38 71.39,86.87l29.18 9.48 0 21.48 -189.86 1.47 -287.92 -12.32 -2.11 -21.37c71.05,16.54 161.98,17.89 247.11,17.89l43.26 2.59 143.46 -15.91 -0.51 -3.7 -415.42 -4.46c-8.07,-34.63 -49.83,-53.34 -63.03,-72.5l138.24 -74.26c30.58,20.47 101.97,81.33 148.99,81l-12.56 -20.37zm-240.29 -1510.38c0,45.58 -0.05,102.51 14.33,132.44l24.04 43.6c1.02,76.89 -12.76,308.21 15.35,350.17 0,25.08 -3.9,47.08 -6.77,68.4 -3,22.18 -1.36,48.97 -4.73,70.44 -6.75,42.89 -1.28,97.89 -6.66,143.69 -6.5,55.4 -12.57,234.68 -6.91,293.78l21.49 193.3 21.49 60.85 -25.81 31.45 2.96 4.76 46.82 -28.7 8.26 24.72c-16.19,30.58 -9.68,34.27 -40.11,52.97 -20.44,12.57 -40.31,24.86 -60.21,36.47 -36.04,20.99 -96.61,39.43 -153.94,39.43l-32.23 0c-2.5,0 -48.62,-55.16 -50.14,-60.85 12.11,4.38 9.62,14.31 25.06,14.31 15.77,0 87.56,-22.9 105.26,-27.24 48.27,-11.83 58.45,-21.28 95.3,-40.77 -16.51,-10.46 -108.91,25.06 -143.25,25.06l-35.82 0 16.99 -114.13 -2.66 -72.01c0,-72.78 -18.86,-132.35 -32.23,-189.72 -24.3,-104.26 -50.14,-252.31 -50.14,-379.44l0 -14.32c0,-15.26 47.98,-104.11 57.3,-121.71 12.93,-24.42 16.67,-51.5 29.85,-77.55 12.24,-24.22 22.98,-45.95 34.61,-69.21 12.07,-24.15 23.5,-47.1 35.79,-71.62 5.99,-11.95 11.95,-23.82 17.93,-35.77 6.63,-13.26 18.47,-24.89 7.16,-28.64 32.4,-48.36 21.49,-67.22 21.49,-143.18 0,-78.8 -16.02,-95.56 50.14,-110.96zm137.18 181.12c-1.09,69.47 -47.91,280.75 -72.72,316.44l-5.82 -276.56 78.53 -39.88zm-76.3 -88.06c17.19,19.77 24.99,53.18 53.72,60.85l0 7.16c-15.99,4.27 -23.39,17.89 -42.98,17.89l-10.74 0 0 -85.91zm-580.16 64.44c40.7,27.24 66.03,71.59 143.25,71.59 -15.39,-10.69 -57.59,-19.9 -78.74,-32.27 -21.52,-12.6 -47.35,-29.79 -61.83,-51.28l18.52 -13.49c2.54,27.43 89.58,82.72 132.79,82.72l35.81 0c40.62,0 53.63,-29.42 71.62,-50.11 -2.07,24.99 -25.65,90.01 -31.44,129.65 -7.18,49.21 -2.84,98.32 -36.6,120.92 0,-36.38 1.98,-152.71 -14.33,-164.66l0 175.4c-72.97,0 -107.17,-41.95 -123.89,-101.68 -14.82,-52.99 -44.6,-121.45 -55.17,-166.78zm194.02 -82.29l20.85 -0.05 0 25.05 -4.19 53.64 -20.91 -3.35 -0.82 -14.56 5.07 -60.73zm-104.42 -17.76l8.04 64.13 -21.92 -8.42c0.42,-9.83 3.07,-11.35 3.07,-23.68l0.26 -27.97 10.56 -4.06zm136.02 103.62c1.03,-12.37 4.78,-12.47 4.84,-21.65l-8.56 -64.25 35.17 19.11c-3.62,17.64 -2.13,66.79 -20.71,66.79l-10.74 0zm-171.9 -114.55c4.63,3.1 12.12,5.42 10.74,14.32l-8.29 60.68 -9.7 3.56 7.24 -57.07 0 -21.48zm107.43 139.6l7.16 0 0 -132.44c0,-15.25 10.23,-28.15 21.49,-32.22l0 14.32 -12.58 92.81 1.83 36.07c0,12.34 2.65,13.86 3.58,25.05l-35.82 -3.58 -28.63 -3.66 -20.74 -143.23c6.27,3.85 9.8,7.29 20.72,7.29l42.98 0 -4.44 75.12 0.85 32.27 3.58 32.21zm-211.29 1342.36l-68.13 17.24 -35.72 4.24c-11.24,1.55 -120.31,-39.37 -143.25,-39.37 -1.16,0 -70.39,28.59 -85.95,32.21 -2.91,-12.49 -14.32,-27.62 -14.32,-35.8 0,-16.62 34.96,-46.58 50.14,-50.11 26.64,-16.9 135.23,-31.69 153.99,-57.28 -46.33,0 -80.29,6.07 -118.66,14.24 -25.55,5.43 -17.46,-8.05 -17.43,-39.29 0.02,-18.12 -3.92,-49.04 3.58,-60.85 38.39,-72.52 66.31,-150.76 102.7,-226.67 32.62,-68.03 71.33,-156.7 95.61,-230.17 55.64,-168.32 106.85,-321.39 149.07,-502.49l7.08 -40.18 3.67 0.81c4.65,55.89 73.28,128.86 132.5,128.86l10.74 0c22.94,0 46.32,-31.19 56.05,-47.79 4.65,-7.95 12.91,-76.14 14.83,-88.98 5.12,-34.31 6.56,-61.61 11.41,-92.41 3.19,-20.23 17.99,-64.68 17.99,-85.82l0 -10.74c0,-9.66 -1.71,-9.86 -3.58,-17.89 116.94,0 153.38,-68.86 186.23,-71.6 -4.19,50.32 -7.43,93.52 -7.12,153.97 0.31,62.49 -42.2,61.67 -46.6,114.51l27.93 -25.8c-3.16,17.39 -61.85,118.67 -74.48,143.93 -24,48.01 -48.75,93.83 -72.84,141.98 -48.8,97.56 -93.77,189.61 -131.79,297.82 -70.12,199.58 -168.95,425.39 -189.31,669.89l-14.32 3.58zm168.31 -1549.97l53.72 0c1.87,8.03 3.58,8.22 3.58,17.89 0,16.91 -6.92,14.31 -10.74,28.64l-50.14 0c-13.29,0 -23.92,-18.43 -25.07,-32.21 13.07,-3.49 19.83,-14.32 28.65,-14.32zm401.1 21.48l50.35 -24.61 -9.41 185.6c-8.07,-14.45 -19.99,-58.08 -22.68,-79.01 -2.61,-20.27 -1.6,-75.96 -18.26,-81.98zm-454.14 -85.83c27.06,14.59 64.74,32.13 106.77,32.13l39.39 0c12.35,0 13.87,-2.64 25.07,-3.58 -0.52,23.28 -14.33,33.6 -14.33,64.44l0 53.69 -25.06 0 0 -35.8c0,-32.62 -13.79,-36.6 -14.33,-60.85l-68.04 0c-8.08,0 -39.4,25.41 -39.4,35.8 0,13.13 5.56,17.3 10.74,25.05l0 17.89c-19.12,-9.17 -28.65,-12.46 -28.65,-42.95l-1.32 -10.9 9.16 -74.93zm210.62 164.58c-53.8,0 -36.58,-135.28 -5.8,-159.72 28.11,-22.33 121.44,-47.39 170.54,-51.48l4.37 32.09 -0.8 60.97c0,49.75 -17.08,40.7 -50.14,57.28 -19.24,9.65 -50.66,32.21 -75.2,32.21l-7.17 0c-11.84,0 -22.4,-15.07 -25.06,-25.05 27.1,0 91.47,-16.25 96.69,-35.8l-100.24 25.18 -0.04 -21.6c21.56,0 91.19,-19.82 100.27,-32.22l-1.01 -4 -95.98 24.28c1.87,-69.11 71.01,-47.06 114.91,-77.54 -72.29,0 -136.09,25.89 -136.09,96.65l0 14.32c0,22.55 16.26,50.11 35.81,50.11 53.17,0 105.11,-51.41 132.5,-53.69 -7.97,29.84 -28.25,31.96 -54.92,45.33 -16.44,8.24 -51.85,22.68 -74,22.68l-28.65 0zm214.87 -146.76c0,29.31 -20.88,76.11 -39.39,85.91 5.6,-24.07 14.32,-49.46 14.32,-78.75 0,-36.8 -7.95,-51.39 -13.99,-77.65l24.92 -7.65c1.76,22.78 14.13,40.78 14.13,78.15zm-3.58 -82.33c6.82,-3.61 40.28,-21.48 46.56,-21.48 20.41,0 25.06,48.17 25.06,71.59l0 14.32c0,43.73 -21.52,63.26 -57.3,71.6 1.44,-17.36 7.16,-22.44 7.16,-42.96l0 -17.89c0,-34.45 -15.82,-50.88 -21.49,-75.17zm95.34 -55.68l1.36 12.73c0,21.01 10.74,40.23 10.74,71.59 0,18.23 -5.76,33.1 -14.33,42.96 0,-38.62 -5.56,-93.84 -40.44,-98.18l42.66 -29.09zm-546.57 -40.97c9.68,0 9.87,-1.71 17.91,-3.58l-3.08 3.45 66.11 59c-6.45,10.15 -10.98,23.47 -30.82,23.47 -28.01,0 -94.85,-62.06 -100.27,-82.33l50.14 0zm-483.46 436.71c-7.31,31.32 -34.84,81.07 -47.9,120.36 -15.93,47.89 -27.3,77.43 -27.3,140.95l0 7.16c0,84.5 65.2,189.72 136.09,189.72l46.55 0c21.25,0 33.75,-9.33 46.56,-17.89 125.52,-84.03 100.3,-204.09 139.64,-361.57 33.33,-133.38 93.75,-237.54 193.41,-304.24l-3.58 50.12 9.78 25.43c-3.98,20.86 -6.83,53.6 -12.64,71.92 -9.05,28.46 -40.11,15.81 -40.11,45.83 0,15.39 4.17,19.4 7.16,32.21 -13.31,25.14 -29.34,41.52 -43.01,71.56 -12.2,26.8 -19.04,54.83 -27.18,87.37 -15.36,61.43 -26.68,122 -45.94,179.59 -35.22,105.34 -94.21,223.48 -231.24,223.48 -53.85,0 -144.37,-52.88 -172.8,-81.44 -43.62,-43.84 -74.31,-93.64 -74.31,-179.87 0,-122.77 71.62,-204.83 71.62,-293.53l0 -32.21 14.33 0c13.75,0 16.49,-1.38 17.9,-14.32l-10.74 0c-19.08,0 -35.16,-16.97 -42.98,-28.64 -21.17,-14.18 -46.55,-61.18 -46.55,-96.65 0,-53.78 42.97,-88.94 42.97,-157.5l0 -14.32c0,-70.34 -28.24,-87.13 -39.39,-128.86 34.21,22.89 107.63,112.19 118.19,157.5l18.16 -6.61 -0.26 -29.19c26.24,17.56 75.21,85.87 75.21,128.86 0,59.8 -45.87,185.16 -71.62,214.78zm1160.31 -572.74l-8.71 39.01 -102.31 75.53c-6.69,9.98 -51.3,45.93 -65.35,59.96 -21.6,21.57 -38.05,40.53 -77.9,43.85 21.45,-32.02 155.73,-113.98 168.32,-161.09 -25.37,16.98 -171.72,130.17 -184.88,148.11 -25.78,35.1 -2.36,18 -52.28,30.08 -19.97,4.83 -43.23,12.7 -62.24,20.12 -20.75,8.1 -101.85,48.68 -116.03,48.68l-53.72 0c-38.47,0 -92.26,-22.26 -107.43,-42.96l67.28 17.56c-29.14,-29.21 -119.1,-37.71 -124.58,-103.47 24.35,17.83 47.56,64.44 96.69,64.44l3.58 0c21.43,0 34.04,-22.46 42.98,-35.8 28.51,13.67 54.56,-9.39 71.5,-18.02 0.49,-0.25 69.37,-13.68 77.44,-15.65 40.89,-10.04 100.99,-34.79 133.97,-52.24 57.5,-38.48 83.98,-61.34 123.2,-120.27 17.67,-26.56 80.41,-138.27 95.25,-148.2l3.89 -6.97c28.85,-0.83 43,-17.06 60.57,-28.82l64.57 -6.24 -53.82 192.38zm-848.75 -472.51c210.87,0 179.96,186.13 257.85,186.13l25.06 0 0 -25.05c38.37,8.94 53.54,28.77 75.21,53.69l-95.5 129.76 12.04 -64.82c-6.32,5 -109.92,298.89 -109.92,300.18l0 10.73 -71.62 0 4.38 -32.09 -0.8 -7.28c0,-10.82 -4.21,-9.9 -14.33,-10.73l3.58 -10.74c8.15,-30.52 140.77,-202.08 121.76,-232.68 -25.73,38.41 -45.47,81.84 -74.24,119.1 -14.34,18.57 -71.96,95.49 -76.17,113.57 -11.5,-7.7 -25.07,-29.02 -25.07,-46.53l0 -7.16c0,-19.9 73.3,-88.2 88.86,-108.05 14.39,-18.37 29.3,-33.58 43.64,-53.03 12.6,-17.08 26.8,-42.8 39.39,-57.28 1.53,-6.54 21.76,-46.53 10.74,-46.53l-10.74 21.48c-30.35,57.33 -141.85,183.86 -193.39,218.36 -33.8,-17.88 -90.21,-50.41 -121.77,-71.59 -24.78,-16.62 -31.71,-22.85 -52.85,-43.83 -12.01,-11.92 -29.75,-45.49 -43.84,-49.25l0 -14.32c0,-43.5 -10.03,-82.56 -25.06,-110.97 14.5,-16.66 24.17,-44.32 35.86,-64.37 12.89,-22.11 25.1,-38.61 40.76,-59.49 11.08,-14.78 37.36,-39.37 59.34,-40.92 24.27,-1.7 80.21,-6.83 96.81,3.7zm268.59 171.82c-26.17,-6.99 -83.24,-87.43 -89.53,-110.97 23.39,6.24 83.37,84.54 89.53,110.97zm-365.28 -214.78c18.8,-28.07 135.93,-107.39 175.47,-107.39 61.32,0 82.42,16.33 124.15,36.99 23.1,11.44 88.37,56.16 101.47,59.66 0,58.47 20.16,80.49 42.98,114.55l46.47 4.4 18 -0.82 75.2 -7.16 65.16 -19.12 12.61 36.26 7.76 8.44c6,-4.25 11.17,-5.27 11.17,-14.84l0 -39.37 1.91 4.04 73.95 -34.88c29.64,61.71 -0.65,90.46 -0.65,148.96l-28.66 10.74c-44.35,38.53 -183.17,44.29 -254.27,60.85l0 -10.74c-17.49,-20.11 -54.4,-73.98 -96.69,-53.69 -25.89,-48.9 -59.66,-89.77 -109.88,-115.69 -25.79,-13.31 -29.94,-33.34 -68.61,-45.95 -17.97,-5.86 -69.12,-19.44 -93.69,-17.34l-121.58 9.26 17.73 -27.16zm576.57 50.12c0,-21.82 -6.7,-32.75 -10.74,-50.12l74.74 68.1 -3.16 3.23 -67.64 12.87c3.97,-8.34 6.81,-8.16 6.81,-16.19l0 -17.89zm196.97 -78.76c6.11,-5.31 6.22,-7.16 17.9,-7.16 53.77,0 113.2,66 114.6,128.86l-36.75 11.5 1.05 3.93 125.23 -11.86 78.79 0.45 -10.74 -14.75c27.93,-2.32 150.67,-59.31 193.39,-32.21l14.32 0 17.9 10.73c2.75,-1.91 7.17,-1.93 7.17,-7.16 0,-7.57 -1.29,-4.71 -3.58,-14.32l31.7 -18.67 0.54 11.51c0,40.24 -97.41,98.81 -128.87,114.6 -38.47,19.3 -143.28,53.32 -146.88,96.6l212.09 -113.07c-7.64,24.15 -56.45,73.15 -76.88,90.72 -31.44,27.06 -60.36,45.38 -104.49,60.22 -100.29,33.75 -183.97,12.56 -238.44,94.58 -40.92,61.62 -84.9,146.92 -136.9,196.07 -40.97,38.73 -157.87,95.17 -228.39,101.04l4.25 -10.48c-24.43,5.28 -59.94,42.7 -86.62,42.7 -21.19,0 -111.02,-64.48 -111.02,-71.6 0,-7.71 35.19,-104.34 39.39,-110.96 2.01,-24.12 24.27,-90.16 36.78,-106.42 12.76,-16.58 50.11,-67.19 63.49,-76.14l73.43 -70c106.7,1.99 211.95,-36.59 281.12,-73.18l3.58 -132.44c-5.34,-22.9 -39.39,-78.71 -39.39,-78.76 0,-18.56 7,-34.96 17.9,-42.96l5.43 32.6 8.9 -3.96zm-31.98 -55.3l7.23 15.77c-11.02,16.13 -25.39,30.96 -25.39,57.43 0,17.06 19.4,21.9 28.65,39.37l-74.56 30.2 -0.65 -44.52 12.79 2.79 51.92 -101.05zm544.1 12.35l-48.7 97.42 -69.48 2.82c-28.38,6.6 -48.34,8.92 -74.7,18.4 -9.18,3.3 -61.9,24.29 -64.96,24.55 -63.11,40.02 -122.54,-125.48 -132.5,-168.25l78.78 0c21.92,32.72 75.85,82.33 128.93,82.33l35.81 0c49.95,0 96.64,-48.4 114.6,-82.33l14.33 0c-28.31,53.45 -74.8,91.31 -153.99,93.08l0 7.15c11.2,0.94 12.72,3.58 25.06,3.58l21.49 0c60.04,0 110.49,-55.44 121.76,-103.81l7.16 0 -3.58 25.05zm-168.32 32.22c-38.75,0 -104.11,-38.83 -125.34,-57.28l239.94 0c-21.54,32.16 -57.76,57.28 -111.02,57.28l-3.58 0zm-322.31 -14.32c-20.54,0 -20.23,20.23 -25.34,-10.39 -1.55,-9.27 -12.5,-24.91 -17.64,-32.57l121.76 0c0.65,29.17 24.97,78.99 35.76,100.28 18.44,36.42 39.73,48.8 57.35,75.12l-32.23 0c-1.13,-50.84 -81.75,-132.44 -139.66,-132.44zm-522.86 -125.29c31.99,21.41 73.62,74.75 121.76,78.76l0 21.48c0,53.65 149.4,98.86 164.74,164.65l-10.74 0 -89.49 4.3c-14.5,-22.31 -27.7,-42.69 -37.25,-70.91 -14.75,-43.58 -4.58,-38.52 -38.97,-64.85 -43.59,-33.4 -88.3,-48.39 -138.69,-72.57l-31.87 -8.7c0.44,-34.49 28.69,-55.52 35.45,-80.79l7.17 0 17.9 28.64zm562.25 -136.02l23.76 -164.32 123.08 -0.34 0 96.65 0 150.34 -78.79 0 -21.49 0 -21.48 0 -3.58 0 -68.04 0c-4.07,-15.2 -7.17,-6.26 -7.17,-17.89l0 -7.16c0,-26.42 27.58,-41.28 50.14,-46.54l3.58 -10.73zm300.82 -354.38l0 -121.71 0 -60.85 39.3 -4.4c7.18,-0.06 25.08,15.13 46.65,15.13l21.49 0c15.96,0 5.53,-14.32 21.49,-14.32l125.35 0 -3.58 254.15 -222.03 0 -28.66 0 0 -68.01zm-153.98 64.43l-153.99 3.72 -8.59 -64.39 1.42 -25.24c0,-27.1 10.37,-72.55 5.15,-91.05 -6.35,-22.47 -28.37,-42.57 -33.8,-62.87l-4.12 -6.98 197.51 -0.18 -3.58 246.99zm282.78 -282.84l33.34 15.88 -41.33 1.63 7.98 -17.51zm-243.39 -64.38l-3.58 10.74c-1.87,8.02 -3.58,8.22 -3.58,17.89l0 10.73c0,10.56 17.75,27.31 25.07,32.22l42.98 25.05c8.03,1.87 8.23,3.58 17.9,3.58l17.9 0 0 257.73c0,8.24 2.49,10.73 10.74,10.73l268.59 0c8.25,0 10.74,-2.49 10.74,-10.73l0 -261.31c0,-8.38 -5.95,-14.32 -14.33,-14.32l-75.2 0c2.36,-10.15 3.58,-6.12 3.58,-14.32 0,-6.93 -4.87,-11.64 -7.16,-21.48l14.33 -3.58 46.55 -46.53 12.35 -31.56 120.16 -0.67 0 866.27 -762.8 3.61 0 -42.99c0,-6.92 -1.13,-6.37 -3.58,-10.74l-3.58 -21.48 -8.53 -20.96c14.89,2.63 23.78,6.64 40.76,6.64l14.33 0c8.03,0 7.86,-2.83 14.32,-7.16 35.82,0 71.62,0 107.44,0 20.22,0 93.11,8.02 93.11,-10.73l0 -272.05 -139.66 0 0 -32.22 -17.91 -39.37 -8.11 -17.46 165.69 -0.44 0 -279.21 -214.87 0c-19.53,0 -13.66,-35.8 -57.31,-35.8l-3.58 -7.16 -3.58 -7.16 -32.23 -25.05 -35.34 -15.33 -0.47 -31.21 207.71 0 10.73 32.22 10.74 0 28.06 -22.21c12.76,11.31 20.78,15.05 43.56,15.05l10.74 0c31.4,0 49.74,-25.06 60.88,-25.06l10.74 0 -14.32 35.8zm232.78 25.06c-6.74,-7.76 -14.33,-14.12 -14.33,-28.64l0 -3.58c0,-24.47 64.75,-92.01 82.37,-103.81l57.31 28.64 33.7 23.28 -19.38 1.79 -2.62 -18.09c-4.85,3.04 -28.89,53.54 -42.99,69.15 -17.01,18.83 -54.86,38.75 -61.83,49.16l14.32 0 3.15 25.13 -49.7 -43.02zm-705.5 214.77l7.16 0c24.96,-21.68 53.72,-39.34 53.72,-85.91l0 -10.74 -3.58 -39.37 -35.82 -145.88 4.4 -1.45 17.1 25.63 21.49 14.32 60.88 28.64 7.16 3.58 33.67 23.25 -26.51 98.46c-0.72,32.71 -30.43,80.76 -53.71,93.08 13.45,8.53 27.91,-4.67 39.39,-10.74 13.59,-20.29 31.38,-50.2 35.54,-79.02 2.69,-18.55 12.33,-85.33 18.17,-96.38 16.06,11.76 83.82,118.69 89.54,143.18 -7.27,13.72 -14.33,32.63 -14.33,53.69l0 57.28c0,55.58 42.98,110.37 42.98,128.86 0,45.95 -9.96,106.71 -18.11,146.56 -11.99,58.68 -60.68,72.5 -60.68,100.43l0 10.73c0,17.25 20.82,32.21 0,32.21l-3.58 0c-19.59,0 -26.99,-13.62 -42.98,-17.89 3.02,-36.28 82.37,-56.95 82.37,-128.86l0 -25.05c0,-27.14 -31.65,-70.57 -39.39,-103.81l-3.58 17.89 28.66 78.76 -7.17 7.16 10.74 0c-8.98,38.56 -33.6,114.55 -75.2,114.55 -19.94,0 -31.16,-6.41 -42.98,-14.32l-3.58 3.58c4.07,15.21 24.06,24.64 42.98,25.06 -5.96,25.54 -29.1,54.63 -35.14,93.74 -6.84,44.42 -3.37,63.76 -61.56,63.76 -29.08,0 -35.36,-8.2 -53.71,-17.9 -26.96,-6.28 -33.16,-33.61 -52.76,-51.07 -19.45,-17.32 -37.24,-29.57 -60.68,-43.17 -31.38,-18.2 -105.02,-56.08 -105.02,-99.05l0 -21.48c0,-9.67 1.71,-9.87 3.58,-17.9l-3.58 0c-6.53,12.33 -10.74,27.64 -10.74,46.54 0,33.41 31.12,65.76 52.93,79.53 32.3,20.39 49.03,17.49 83.8,45.11 56.79,45.11 55.41,100.87 156.93,100.87 24.5,0 57.69,-27.5 68.05,-42.96l8.49 -100.49c13.17,8.25 27.31,54.64 27.31,75.42l0 7.16c0,56.92 -27.94,113.55 -53.72,143.19l18.01 -53.66c-22.64,5.97 -35.92,45.96 -35.92,75.13l0 39.38c-32.14,-8.58 -92.5,-85.55 -114.6,-110.97l4.13 21.36 -27.03 -20.56 37.5 83.39 -3.86 1.72c-25.36,-16.98 -46.89,-37.55 -78.12,-57.93 -20.29,-13.25 -68.71,-38.58 -68.71,-67.35 0,-19.46 6.72,-19.27 7.16,-39.38l-18.48 21.03 -99.7 -71.14 -35.42 -48.02 3.19 -2.09c-28.63,2.38 -78.04,74.1 -78.79,107.39l-10.74 0c-42.33,0 -126.91,51.8 -157.57,68.01 -8.4,12.54 -30.94,25.61 -43.06,42.87 -11.22,15.97 -17.14,37.35 -28.56,53.78l-14.33 -57.27 -25.06 -71.6 0 -3.58c-9.37,-13.48 -14.33,-39.36 -14.33,-60.86 0,-46.87 32.23,-87.78 32.23,-146.76l3.58 0c0,26.89 10.74,41.13 10.74,71.59l0 17.9c16.74,-6.06 58.57,-109.87 70.41,-133.65 14.78,-29.69 77.29,-112.48 80,-124.08 -26.72,17.88 -55.7,54.67 -76.19,81.34 -12.39,16.13 -51.53,97.72 -56.31,101.22l-25.07 -150.34c0,-66.92 11.26,-56.37 21.49,-100.24 26.28,-49.64 34.33,-78.66 69.02,-124.3 11,-14.48 32.52,-41.68 45.58,-51.1 13.12,-9.47 42.51,-29.55 42.98,-50.12l-21.49 0c-29.52,0 -55.6,22.41 -82.37,28.64 30.52,-57.65 78.34,-74.13 131.77,-108.11 47.3,-30.08 120.26,-40.61 165.47,-70.87 0,57.76 33.48,62.94 70.2,87.34 44.87,29.81 47.98,40.21 47.98,109.54 8.07,-5.91 17.91,-22.11 17.91,-35.8l0 -3.58c0,-92.71 -128.93,-90.07 -128.93,-150.34l0 -14.32 -122.08 34.78c29.52,-54.14 46.74,-83.8 109.13,-108.57 40.86,-16.23 126.86,-37.17 181.27,-37.17l39.39 -7.16 25.06 -3.58 17.81 -10.91 -12.79 67.85c-4.36,40.62 45.12,114.82 45.12,172.17 0,53.76 -25.75,69.17 -46.55,100.23zm669.68 -236.25c3.66,15.67 17.56,42.62 32.23,46.53 -0.7,31.64 -14.32,8.3 -14.32,28.64l0 14.32c-27.52,-0.62 -70.99,-33.12 -82.37,-50.12 -4.94,-3.61 -14.33,-13.73 -14.33,-21.48 0,-58.13 54.36,-121.31 64.46,-164.66l10.74 0c13.94,0 65.58,27.55 71.62,35.8 -15.67,23.39 -86.81,71.88 -68.05,110.97zm-107.43 0c0,51.66 23.83,50.17 42.98,78.75 -33.01,0 -111.02,-18.63 -111.02,-42.96 0,-13.48 2.35,-6.76 3.58,-21.47 6.03,-25.85 67.05,-161.09 85.95,-161.09l10.74 0c15.8,0 25.51,5.29 35.81,10.74 -12.11,22.87 -25.39,40 -38.18,65.63 -8.38,16.78 -23.65,60.6 -29.86,70.39zm-42.98 -100.24c-3.73,16.02 -12.25,38.94 -32.23,39.38l8.6 -31.8c-19.47,4.39 -30.35,56.85 -73.06,56.85l-25.07 0c-22.38,0 -24.04,-9.17 -42.98,-10.74l-20.56 15.91 16.99 -40.97c24.87,-46.99 75.61,-78.75 146.82,-78.75l21.49 0c8.37,0 10.63,7.37 25.07,10.73l-25.07 39.37zm-1095.86 340.07c62.41,0 72.12,-32.57 111.03,-35.8 -53.28,46.28 -74.6,50.23 -114.71,118.02 -22.39,37.83 -57.19,113.23 -57.19,171.92l0 60.86c0,53.54 12.4,66.89 -8.23,124.21 -8.11,22.54 -31.16,89.07 -31.16,112.04l0 21.48c0,56.43 52.23,139.59 57.31,200.46 -20.79,31.03 -78.79,99.58 -78.79,146.76l0 3.58c0,1.71 24.49,114.22 26.28,116.93 17.92,27.16 38.21,61.49 60.49,82.71 14.69,14 159.6,106.95 174.67,108.21 0,36.82 23.2,82.33 50.14,82.33 8.03,0 7.86,-2.83 14.32,-7.16l-8.58 49.87c-1.5,17.25 18.36,7.4 30.07,7.4 10.13,0 12.82,10.31 17.91,17.9 0,49.41 5.19,39.91 21.48,71.59 7.16,13.9 27.81,46.07 42.98,50.12l0 28.64c0,12.34 -2.65,13.86 -3.58,25.05 -43.74,10.19 -113.89,86.61 -138.25,123.13 -31.07,46.58 -64.24,119.99 -78.19,183.15 -15.86,71.75 -21.17,153.6 -38.53,222.8 -10.87,43.36 -68.93,151.05 -110.32,151.05l-39.39 0c-63.96,0 -132.5,-87.76 -132.5,-157.5l0 -46.54c0,-139.43 139.67,-308.16 139.67,-422.39l0 -17.89c0,-57.09 -67.29,-146.79 -107.44,-157.5l0 25.05c-21.03,-24.19 -32.52,-59.21 -61.81,-88.57 -19.14,-19.19 -51.37,-65.35 -85.03,-65.35l-10.74 0c2.76,33.08 46.56,68.37 46.56,153.92l0 17.89c0,49.6 -46.56,96.43 -46.56,150.34l0 14.32c0,53.14 82.37,121.95 82.37,128.87l0 25.05c0,74.79 -82.37,185.95 -82.37,304.26l0 10.74c0,73.38 42.35,147.69 79.67,185.25 28.46,28.64 127.58,83.22 181.76,83.22l14.32 0c146,0 199.46,-107.35 242.41,-212.32 25.63,-62.62 64.07,-330.65 108.55,-342.52 2.74,11.76 10.74,45.98 10.74,57.27 0,35.18 -59.55,240.59 -73.13,281.28 -30.03,89.91 -56.48,179.48 -88.44,265.97 -21.82,59.05 -218.03,478.93 -218.03,487.26l0 89.49c0,12.34 2.65,13.86 3.58,25.05 -17.67,9.35 -68.04,54.82 -68.04,78.76 0,20.96 17.1,33.71 21.48,50.11 -10.91,2.55 -60.92,20.33 -67.3,25.8 -13.28,11.38 -17.65,57.69 -7.9,78.01 -8.67,5.81 -14.33,10.49 -14.33,25.06l0 3.58c0,31.08 136.01,46.53 179.07,46.53l3.58 0c86.7,0 163.24,-14.75 222.04,-42.95l-4.44 -67.96 0.85 -35.85 79.61 -30.19c-0.82,-177.7 59.78,-321.6 105.26,-457.98 25.68,-76.99 112.64,-371.89 155.35,-403.16 0,51.25 -2.45,110.79 4.33,156.75 2.64,17.89 7.32,45.7 11.99,66.77 4.12,18.58 8.67,46.67 13.78,64.98 20.4,73.13 41.53,187.58 41.53,277.07 0,42.65 -9.42,75.91 -10.59,118.29 -1.11,40.42 -39.55,58.51 -39.55,89.33 0,10.09 24.54,34.23 30.97,44.21 9.58,14.83 5,48.89 4.82,70.36 -0.3,36.05 0.34,32.36 35.46,39.73 19.49,4.09 44.23,6.79 68.41,6.79l39.39 0c18.84,0 30.81,-4.3 42.98,-10.73l7.56 -35.7 6.76 -0.1c7.86,33.74 2.94,45.11 38.57,50.94 27.23,4.46 45.43,6.27 79.36,10.17 53.54,6.14 109.42,10.48 168.57,10.48l153.99 0c20.43,0 78.79,-4.09 78.79,-21.48l0 -21.48c0,-9.9 -2.77,-8.6 -10.74,-10.73 0,-43.37 -54.31,-100.49 -94.48,-109.61 -49.35,-11.19 -128.95,2.21 -188.44,2.21 -18.61,0 -87.12,-56.8 -103.85,-68.01 4.35,-9.07 10.73,-26.11 10.73,-39.37 0,-8.85 -27.9,-64.86 -34.27,-83.87 -11.11,-33.1 -15.18,-58.55 -21.57,-96.57 -12.49,-74.25 -7.91,-146.72 -4.9,-223.92 2.95,-75.61 3.51,-160.34 3.45,-232.81 -0.06,-72.51 10.74,-152.64 10.74,-221.93 27.87,-10.09 75.21,-249.87 75.21,-311.43l0 -35.8c0,-32.11 -28.85,-37.68 -45.7,-54.55 -7.49,-7.51 -40.25,-47.01 -40.25,-56.42l0 -75.17c0,-56.91 32.23,-58.31 32.23,-110.97l0 -21.48c0,-21.03 -22.9,-68.4 -32.23,-82.33 27.08,-40.42 117.61,-70.98 153.99,-125.29 0,-27.01 17.27,-60.57 21.83,-89.15 4.12,-25.87 13.7,-61.18 19.08,-91.9 8.58,-48.96 -2.56,-52.71 46.47,-64.51 25.93,-6.24 56.28,-17.72 81.54,-25.89 34.29,-11.09 93.48,-74.68 113.33,-105.08 10.36,-15.86 31.68,-57.69 41.95,-69.04 16.96,-18.77 48.26,-25.93 48.26,-59.16l0 -10.73c0,-9.81 -6.88,-32.22 -17.91,-32.22 -8.14,0 -15.63,25.06 -39.39,25.06l-25.06 0c9.34,-34.97 44.42,-56.68 50.14,-125.29l211.29 0c8.25,0 10.74,-2.49 10.74,-10.73l0 -898.49c-8.03,-1.87 -8.23,-3.58 -17.9,-3.58l-68.05 0c-7.16,-26.8 -91.91,-71.6 -121.76,-71.6 -13.2,0 -14,10.74 -25.06,10.74 -2.52,0 -44.94,-39.38 -78.79,-39.38l-21.48 0 -9.36 15.39c-16.68,-11.31 -19.98,-22.55 -47.94,-22.55l-7.16 0c-15.69,0 -28.8,8.62 -32.23,21.48l-7.16 0c-2.88,-7.94 -14.98,-21.48 -25.07,-21.48l-57.3 0c-48.39,0 -134.21,68.58 -143.25,107.4l-236.36 0 0 39.37c-22.98,-1.92 -46.56,-38.49 -46.56,-64.44l0 -39.37c-18.56,4.96 -19.22,11.92 -50.14,14.32 -19.59,1.52 -33.67,6.91 -53.67,7.21 -29.09,0.44 -80.32,9.18 -105.34,16.42 -63.94,18.5 -128.24,34.09 -160.45,83.04 -8.81,13.38 -16.88,22.76 -25.13,35.73 -7.69,12.11 -14,30.99 -20.53,40.35 -3.94,5.65 -64.34,36.59 -76.84,44.89 -63.51,42.18 -78.95,61.45 -120.31,123.17z"/>
  <path class="fil63" d="M885.2 3584.88c22.46,5.22 59.69,27.88 88.72,24.52 14.73,-1.7 68.69,-24.11 79.59,-31.68l-89.55 14.23c-15.05,2.65 -61.38,-12.78 -78.77,-14.23l0 7.16z"/>
  <path class="fil61" d="M1640.83 3524.02c-36.84,19.49 -47.02,28.94 -95.3,40.77 -17.69,4.34 -89.48,27.24 -105.26,27.24 -15.44,0 -12.96,-9.93 -25.06,-14.31 1.52,5.7 47.64,60.85 50.14,60.85l32.23 0c57.32,0 117.9,-18.44 153.94,-39.43 19.9,-11.61 39.77,-23.9 60.21,-36.47 30.44,-18.7 23.92,-22.39 40.11,-52.97l-8.26 -24.72 -46.82 28.7 -2.96 -4.76 25.81 -31.45 -78.78 46.53z"/>
  <path class="fil61" d="M1078.58 3649.31l-297.24 -71.59c-15.18,3.53 -50.14,33.49 -50.14,50.11 0,8.18 11.41,23.31 14.32,35.8 15.56,-3.62 84.8,-32.21 85.95,-32.21 22.94,0 132.01,40.92 143.25,39.37l35.72 -4.24 68.13 -17.24z"/>
  <path class="fil74" d="M1451.09 3699.42l139.53 8.5 21.56 -1.33 6.6 -18.16c-2.87,-4.85 -26.73,-35.53 -31.68,-35.53 -16.01,0 -33.72,10.73 -60.88,10.73l-32.23 0 -47.52 -3.46 4.61 39.25z"/>
  <path class="fil75" d="M1583.53 3720.91l-132.5 -10.74c1.42,11.04 2.49,17.9 14.33,17.9l139.66 0 0 -10.74c-13.73,1.14 -10.31,4.46 -21.49,3.58z"/>
  <path class="fil74" d="M1900.84 3651.56c-47.02,0.33 -118.41,-60.53 -148.99,-81l-138.24 74.26c13.2,19.15 54.96,37.86 63.03,72.5l415.42 4.46 0.51 3.7 -143.46 15.91 -43.26 -2.59c-85.13,0 -176.06,-1.35 -247.11,-17.89l2.11 21.37 287.92 12.32 189.86 -1.47 0 -21.48 -29.18 -9.48c0.53,-40.49 -38.15,-81.52 -71.39,-86.87 -43.9,-7.06 -100.53,-3.87 -149.77,-4.09l12.56 20.37z"/>
  <path class="fil75" d="M1014.12 3703c-6.48,0 -11.74,13.03 -14.33,17.9l21.34 32.3 0.15 -39.46c0,-5.86 -2.14,-10.74 -7.16,-10.74z"/>
  <path class="fil74" d="M673.9 3767.44l160.95 16.64 7.37 -2.32 161.13 -4.38 0.03 -20.68c0,-14.79 -8.89,-26.17 -17.9,-32.21l0 -17.89c-37.96,-25.41 -44.19,-39.37 -111.02,-39.37l-28.65 0c-41.32,0 -171.91,33.35 -171.91,60.85l0 39.37z"/>
  <path class="fil75" d="M813.57 3803.24c-33.96,0 -55.75,-5.68 -85.96,-7.15 -25.27,-1.23 -51.05,-16.2 -71.62,-17.91 -4.06,15.2 -7.16,6.26 -7.16,17.9 0,25.78 121.76,35.79 157.57,35.79l28.66 0 0.63 3.83 189.36 -31.32 -0.19 -15.46c-8.78,-2.05 -9.11,-4.5 -17.9,-3.58l-175.1 21.51 -0.38 -3.6 -17.9 0z"/>
 </g>
</svg>
