<?xml version="1.0" encoding="utf-8"?>
<svg version="1.1" id="Layer_1" xmlns="http://www.w3.org/2000/svg" xmlns:xlink="http://www.w3.org/1999/xlink" x="0px" y="0px"
	 viewBox="0 0 368.7 354.2" style="enable-background:new 0 0 368.7 354.2;" xml:space="preserve">
<style type="text/css">
	.st0{fill:#299D30;}
</style>
<g>
	<g>
		<path class="st0" d="M368.7,169.9c0,101.8-82.5,184.3-184.3,184.3C82.5,354.2,0,271.7,0,169.9c0-4.2,0.2-8.2,0.4-12.3L112,221.8
			l236.4-136C361.4,111.1,368.7,139.6,368.7,169.9 M112,175.4L8.1,115.7c-2,6.6-3.7,13.4-5,20.3L112,198.6L338.3,68.5
			c-3.7-5.6-7.8-11.1-12.1-16.3L112,175.4z M312.2,37.1c-5.1-4.9-10.5-9.6-16.2-13.9L112,129.1L24.2,78.5c-3.3,5.8-6.3,11.8-9,18
			l96.8,55.7L312.2,37.1z M112,105.9l165.4-95.1c-6.9-4-14.1-7.7-21.5-10.8L112,82.7L48,45.9c-4.6,5-8.8,10.3-12.8,15.8L112,105.9z"
			/>
	</g>
</g>
</svg>
